<?xml version="1.0" encoding="UTF-8"?>
<svg id="Capa_1" xmlns="http://www.w3.org/2000/svg" version="1.1" viewBox="0 0 923.4 647.9">
  <!-- Generator: Adobe Illustrator 29.4.0, SVG Export Plug-In . SVG Version: 2.1.0 Build 152)  -->
  <g id="_x33_">
    <g>
      <path d="M805.15,597.04c-1.15,1.39-1.68,3.28-2.92,4.6-5.37,5.73-13.32,10.55-19.51,15.49-3.36,2.68-26.82,13.31-30.61,13.41-2.83.07-.29-1.25-5.84.14-20.85,5.21-51.7.68-68.49-13.44-1.62-1.36-2.67-3.93-3.67-4.58-3.22-2.1-15.24-4.65-21.6-7.97-6.65-3.47-21.13-12.15-26.16-18.03-3-3.5-9.33-14.37-10.35-18.65-2.11-8.86-.86-17.1,3.59-25.01,1.15-2.04,5.46-5.3,5.16-6.67-.94-1.41-2.38-2.32-3.37-3.69-4.83-6.68-8.98-13.91-8.66-22.42.23-6.26,7.16-17.92,11.56-22.53,4.04-4.24,11.81-8.68,17.52-9.99l-2.84-12.28c2.63-4.93,2.06-12.42,6.32-16.72,1.76-1.78,10.93-9.43,12.77-10.23,1.93-.84,3.96-.57,5.78-1.22s3.12-2.42,4.93-3.07c8.98-3.23,22.92-2.99,32.55-2.44,6.25.36,12.07,2.39,17.85,3.08,2.18.26,4.27,1.42,6.57.83.61-2.54.75-5.53,1.52-7.98,8.22-26.11,24.46-61.67,49.23-75.77,16.08-9.16,32.33-12.54,49.68-4.07,11.91,5.82,18.86,18.11,17.52,31.27-.93,9.12-5.45,11.46-9.74,18.26-1.3,2.07-2.01,4.61-3.32,6.68-9.13,14.5-28.54,39.06-21.93,57.16.62,1.7,1.99,2.89,2.63,4.46,3.17,7.72,6.2,15.13,10.29,22.71,3.71,6.88,3.37,7.85,5.35,14.65.85,2.93,3.97,7.83,4.67,12.43.36,2.38-1.02,3.97-.86,5.72.13,1.55,1.99,2.62,2.12,5.01.21,3.91-2.11,14-2.85,18.27-3.56,20.59-11.99,36.91-24.91,52.58ZM794.56,348.46l-3.99,3.99,1.01,1.01,3.99-3.99-1.01-1.01ZM808.12,488.43c-1.64-2.08-12.5-25.69-13.09-28.43-1.56-7.2.9-20.69,4.34-27.24,2.45-4.66,7.9-11.25,10.33-15.67,1.41-2.57,1.54-5.64,3.29-8.71,4.55-8.01,13.44-16.03,17.24-24.76,3.02-6.93,3.03-10.65-.53-17.29-2.07-3.87-4.69-6.34-8.55-8.45-8.68-4.75-21.37-4.31-30.34-.67-16.51,6.68-32.26,25.31-39.42,40.58-5.83,12.44-10.28,25.55-14.44,38.62l.28,1.35,20.57,7.48c2.36,2.13,4.41,5.1,1.56,7.53-4.7,4.02-11.21-.98-16.54-2.55-15.8-4.67-32.34-7.35-48.51-7.4-2.99-.01-5.57-1.43-9.01-1.14s-5.02,2.52-7.21,2.86c-4.67.73-7.92.19-13.2,2.76-8.6,4.19-15.26,11.74-14.01,21.84,1.45,11.75,13.05,10.7,21.69,14.32,13.18.96,26.07,5.74,39.01,7.02,2.86.28,5.68-2.2,8.03,1.92,5.21,9.14-8.56,8.42-14,8.04-7.14-.5-15.98-1.96-23.04-3.99-6.1-1.76-4.31-1.76-11.11-2.05-3.43-.14-13.56-4.01-17.36-5.49-1.63-.64-4.64-3.29-5.63-3.09-6.06,3.88-13.34,4.76-18.11,10.94-2.72,3.52-7.37,14.08-6.4,18.23.28,1.17,1.95,2.28,2.41,3.66.53,1.59.09,4.05.63,4.86.23.35,1.98.85,2.82,1.63,4,3.71,8.77,8,14.01,9.87,13.12,4.68,27.04,8.82,41.06,11.29,3.26.58,16.97,2.01,18.47,3.34,2.37,2.11,1.63,5.29.21,7.83-2.16,1.32-4.83,1.41-7.3,1.29-11.56-.54-29.65-5.04-40.75-8.28-7.3-2.13-13.93-6.18-21.09-8.63-1.7.33-8.16,10.55-8.45,12.56-.25,1.68.85,3.78.93,5.78.07,1.87-.87,4.08-.5,5.52,1.43,5.45,10.14,15.78,14.45,19.44,2.6,2.21,5.25,2.08,7.49,3.51,1.99,1.26,5.06,5.41,7.49,6.51,1.57.71,3.39.35,4.92,1.08,5.7,2.73,7.7,4.87,14.94,5.88,4.54.64,15.07-1.59,17.62,2.56.76,1.23.89,3.97.06,5.1-1.13,1.52-4.51-.23-3.57,2.9,4.83,1.35,9.8,4.6,14.51,6.1,2.87.91,20.54,3.94,23.05,3.86,1.32-.04,2.57-1.71,4.89-2,3.36-.42,9.15,1.14,10.92.83,1.21-.22,14.53-5.11,16.86-6.04,28.57-11.35,47.69-34.98,56.26-63.74,2.3-7.71,2.2-12.24,2.96-19.55.26-2.48,1.63-4.33,1.48-7.79-.26-6.24-3.4-18.22-6.15-23.93-1.91-3.98-4.28-9.21-6.48-12ZM773.82,361.71c.39.49,2.65-1.75,1.99-3-.39-.49-2.65,1.75-1.99,3ZM832.81,388.72c-1.25-.66-3.49,1.6-3,1.99,1.25.66,3.49-1.6,3-1.99ZM824.81,398.72c-1.96-.3-3.31,1.16-2.99,2.99l2.99-2.99ZM809.81,425.72c-1.83-.32-3.29,1.04-2.99,2.99l2.99-2.99ZM809.82,478.71c.39.49,2.65-1.75,1.99-3-.39-.49-2.65,1.75-1.99,3ZM665.81,483.72c-1.83-.32-3.29,1.04-2.99,2.99l2.99-2.99ZM621.81,514.71h-1.99s0,3,0,3c.39.49,2.64-1.75,1.99-3ZM619.81,519.71h-2c.66,1.35.66,1.64,0,2.99h2s0-2.99,0-2.99ZM626.82,532.71c.39.49,2.65-1.75,1.99-3-.39-.49-2.65,1.75-1.99,3ZM826.81,537.72c-1.8-.32-3.28,1.35-4,2.99,1.8.32,3.28-1.35,4-2.99ZM685.81,549.72h-3s0,2.99,0,2.99l2.99-2.99ZM821.81,555.7c1.83.32,3.29-1.04,2.99-2.99l-2.99,2.99ZM817.82,560.71c.39.49,2.65-1.75,1.99-3-.39-.49-2.65,1.75-1.99,3ZM817.56,565.46l-7.51,7.48,1.01,1.02,7.51-7.48-1.01-1.02ZM644.07,593.69c0-.68-.55-1.24-1.24-1.24s-1.24.55-1.24,1.24.55,1.24,1.24,1.24,1.24-.55,1.24-1.24ZM658.81,601.7l.99-2.5-1.97-1.49v4s.98,0,.98,0ZM800.81,597.72c-1.25-.66-3.49,1.6-3,1.99,1.25.66,3.49-1.6,3-1.99ZM668.81,605.71v-2.99s-.99,0-.99,0l-1.01,2.99h2ZM784.82,608.71c1.63-.72,3.31-2.2,2.99-4-1.63.72-3.31,2.2-2.99,4ZM714.82,629.71c.39.49,2.65-1.75,1.99-3-.39-.49-2.65,1.75-1.99,3Z"/>
      <g>
        <g>
          <path d="M654.25,137.29c4.26,4.76,13.32,14.9,15.09,21.38,2.39,8.75-4.26,11.61-9.01,6.02-1.48-1.74-1.12-4.13-2.08-5.92-3.84-7.15-13.66-17.16-19.9-22.1-2.55-2.02-6.17-2.46-9.03-4.97-3.39-2.96-2.64-4.06-8.26-5.74-6.12-1.83-20.59-5.4-26.6-4.98-2.61.19-9,1.28-12.1,1.75-11.3,1.71-30.63,12.99-38.06,21.94-1.74,2.1-3.24,6.43-5.48,7.52-5.83,2.82-9.47-.77-7.79-6.77,1.31-4.69,5.32-6.48,7.85-9.18,6.64-7.06,12.35-13.5,21.92-17.06,1.8-.67,3.84-.4,5.76-1.24s3.14-3.15,5.19-3.81c8.01-2.58,26.65-2.86,35.16-1.83,17.07,2.06,36.21,12.54,47.34,24.98ZM570.82,119.71c.39.49,2.65-1.75,1.99-3-.39-.49-2.65,1.75-1.99,3Z"/>
          <path d="M484.51,109.03c3.8,2.91,7.49,6.11,11.35,9.14,7.01,5.49,12.88,10.67,17.38,18.62,2.67,4.72,4.71,10.36.95,15-9.77.47-7.41-3.96-10.54-9.4-.93-1.62-3.26-5.11-4.39-6.61-3.53-4.7-16.36-15.64-21.55-18.45-3.01-1.62-16.51-6.18-19.56-6.29-1.57-.05-3.2.85-4.83.77-10.65-.51-12.52.09-22.48,3.41-5.28,1.76-17.2,9.56-21.56,13.48-3.46,3.11-9.22,12-13.78,10.9-8.91-2.17,6.55-16.85,9.29-19.39,11.6-10.72,28.68-18.15,44.62-19.37,7.02-.54,29.61,4,35.1,8.21Z"/>
          <path d="M499.63,166.98l.67,1.74c.89-.72,1.99-1.65,3.14-1.77,5.11-.51,18.71,2.22,24.87,2.77,2.65.24,5.53-.35,8.06-.06,2.78.31,5.01,2.63,8.11,2.73,11.93.38,22.22,2.34,33.84,3.17,21.86,1.56,43.94,4.71,66.05,6.2,14.97,1.01,31.96,1.06,46.87,3.03,3.26.43,5.86,2.7,9.06,2.98,3.61.31,6.55-1.26,9.98-1.09,3.93.19,9.59,2.14,14.25,2.61,5.46.56,12.42-.32,17.34.87,2.3.55,14.87,7.97,16.43,9.57,3,3.08,10.77,17.02,12.69,21.31,3.31,7.38,3.47,19.05-5.93,21.43-5.23,1.33-6.01-1.36-9.7-1.8-6.26-.76-7.8,2.17-14.47-1.55-7.1-3.96-5.88-8.37-8.68-14.31-6.11-12.95-11.87-15.47-25.9-17.1-8.33-.97-16.64-1.98-25-3-11.76-1.43-23.69-1.48-35.09-3.91-6.4-1.37-11.99-2.31-16.94,2.9-.65,5.19-1.08,10.41-2.53,15.47-16.65,58.09-88.81,73.45-134.92,39.01-7.31-5.46-17.59-20.09-21.78-29.21-4.88-10.6-4.87-17.63-6.26-28.75-.6-4.83-1.28-9.76-6.71-11.28-2.41-.67-10.93.38-12.37,2.18s-.55,4.06-1.13,5.87c-3.08,9.66-12.78,22.19-19.8,29.2-7.45,7.43-11.46,12.13-21.99,16.01-23.7,8.73-49.89,4.92-71.48-7.14-6.7,2.49-16.96,5.04-24.19,5.31-10.23.38-20.51,1.58-30.84,1.41-6.49-.11-13.64-2.03-20.48-1.06l10.28,12.25c3.17,5.78,2.69,9.61-4.53,8.51-5.17-.79-7.93-8.48-11.75-12.27-1.67-1.66-4.74-2.65-5.73-3.76-2.31-2.59-1.97-4.4-6.36-7.15-16.34-10.21-24.06-12.97-42.71-18.28-6.99-1.99-7.45-1.01-14.75-1.26-7.94-.28-13.79-.46-21.89,1.02-13.6,2.49-21.22,5.84-32.65,13.35-4.66,3.06-9.06,5.93-13.44,9.56-8.17,6.79-11.01,15.18-16.07,23.93-1.25,2.16-2.78,4.85-5.4,4.1v.98s2.04.62,2.04.62c.42,5.52-2.85,11.66-2.97,16.99-.06,2.71,1.04,10.44,1.34,13.94.07.8,5.78,13.07,6.54,14.22,2.6,3.93,7.39,11.2,10.59,14.2,2.18,2.05,4.38,1.99,7.54,5.41,1.55,1.68,4.01,1.02,1.92,4.63,2.58.53,1.54-.56,2.5-2.03l.94.08c3.1,3.44,7.33,3.1,10.57,4.45,4.22,1.75,6.82,3.89,11.73,5.27,7.98,2.24,17.34,1.51,24.53,3.47,2.11.57,4.06,3.25,7.27,3.73,10.89,1.62,18.38,1.73,29.37,4.47,5.11,1.28,10.65-.95,14.52-.45,1.49.19,2.52,1.74,4.09,2.02,2.9.52,8.9-.2,12.81.35,11.92,1.67,25.74,1.39,38.19,1.7,17.16.43,34.42.64,51.97-.04,33.16-1.29,65.05-3.42,97.99-8.85,21.37.4,43.16-4.17,63.83-7.49,17.38-2.79,36.21-7.3,52.66-14.17,1.73-.72,11.61-4.98,12-5.51,1.46-1.97-2.57-2.26-4.05-3.43-4.61-3.63-13.21-14.55-7.28-19.61,6.67-.94,6.07,2.88,8.78,6.1,12.16,14.39,33.88,18.47,50.45,9.35,6.09-3.35,9.54-11.74,17.15-4.73.44,3.8-1.02,5.9-3.55,8.33-1.31,1.25-9.86,7.27-11.23,7.77-7.15,2.64-16.93,4.77-24.66,4.12-2.97-.25-12.43-3.14-13.91-2.76-1.36.35-5.46,4.65-7.33,5.72-15.52,8.9-42.43,16.11-60.11,19.9-2.83.61-12.31,1.03-14.03,2.47-.62.52-.86,2.63-1.75,3.73-5.87,7.26-12.11,14.4-17.45,21.77-2.48,3.43-4.14,9.39-9.02,9.31,2.88,7.29-8.46,8.24-13.32,6.77-.36-.11-4.96-3.78-5.6-4.4-4.97-4.79-13.08-14.31-17.76-19.75-1.41-1.63-5.9-9.32-6.92-9.54l-17.88,1.93c-6.23-2.42-11.05,1.55-16.01,1.98-6.04.53-17.15-1.15-23-.03-10.39,1.99-21.79,1.89-32.81,2.39-2.52.11-5.35.89-8.04.75-2.81,2.88-5.36,5.95-8.14,8.88-4.67,4.9-8.7,9.79-13.1,14.88-5.79,6.7-8.31,12.33-18.45,9.61-5.36-1.44-6.28-6.21-8.98-9.82-5.38-7.2-12.33-16.37-18.55-22.69-.79-.81-1.13-1.86-1.63-2.83-3.71-.64-7.6.16-11.33-.18-9.86-.9-19.3-1.78-29-3-3.19-.4-12.44-2.82-14.51-1.53-.75.46-1.77,2.91-2.95,4.05-3.22,3.11-4.58,5.29-7.01,7.99-5.49,6.11-11.31,12.06-17.01,17.98,1.91,1.36,3.7,3.06,5.65,4.34,10.22,6.72,18.68,11.63,30.33,15.67,3.75,1.3,13.94,5.8,16.72,6.37s7.02-.72,11.51.4c13.08,3.27,29.48,4.94,43.45,6.39,6.06.63,14.31-.27,19.86.3,2.95.3,4.62,2.05,7.96,2.12,2.91.07,5.35-1.21,7.97-1.14,11.35.32,26.16,5.31,37.31,5.82,2.82.13,5.4-1.36,8.7-.74,8.59,1.61,26.99,6.85,35.05,7.04,5.97.14,9.51-.04,15.68,1.2,5.85,1.17,14.31,3.58,19.66,4.22,2.4.29,5.47-.91,8.59-.44,5.24.79,5.47,1.87,12.08,1.94,13.76.14,27.47,2.92,40.97,2.03,1.87-.12,3.57-1.18,5.48-1.02v3.01c2.66-1.08,8.34-4.41,10.74-4.86,2.25-.42,6.48,1.04,9.81.9,7.99-.34,24.12-6.09,32.27-8.73,16.73-5.42,35.72-15.74,47.19-29.81,3.09-3.79,5.85-13.28,12.54-10.12,5.88,2.78-3.02,14.89-5.56,18.1-8.31,10.45-20.5,19.35-32.07,25.96-4.25,2.43-8.86,5.23-13.95,7.05-26.38,9.41-52.61,11.03-80.48,12.51-11.79-1.89-25.09-1.55-36.82-3.38-20.32-3.16-40.6-6.11-61.07-9.74-18.31-3.25-40.04-7.47-58.27-8.25-17.81-.76-34.36-2.83-51.84-4.64-9.78-1.01-21.05-1.48-30.76-3.24-5.95-1.08-7.97-2.3-14.23-2.67-12.87-.76-41.59-14.06-52.41-21.68-3.57-2.52-13.08-9-15.6-11.4-.94-.89-9.51-10.35-9.96-11.04-5.68-8.68-12.95-22.53-15.33-32.67-.49-2.09.27-4.33-.69-6.31-1.48-2.52-12.14-5.46-14.51-7.51-1.08-.93-.65-2.49-1.68-3.53-1.34-1.36-5.25-2.66-7.34-4.41-14.89-12.42-23.02-39.12-19.72-57.77,3.8-21.46,16.47-40.11,33.27-52.73,3.69-2.77,10.26-7.58,14.43-9.57,11.56-5.55,42.06-12.6,54.5-10.47,1.58.27,2.58,1.91,4,1.96,4.57.15,10.57-1.04,15.9.06.72.15.57,1.53,1.38,1.95,4.02,2.08,4.36-.35,9.29,3.48,2,1.55,8.05.75,12.68,3.37,6.38,3.62,13.57,7.63,18.95,12.21l27.92-.09,2.02,2.15c7.45-.41,15.7-2.45,22.9-3.07,7.46-.65,15.43,1.1,22.5-2.01.65-2.36-.63-1.67-1.28-2.24-13.43-11.87-24.83-29.55-27.68-47.28-1.06-6.57-.95-17.05-2.24-22.76-.92-4.08-7.88-7.67-2.25-13.66,4.26-4.55,8.1.26,12.95.45s10.37-1.83,15-1.51c2.54.17,4.91,1.48,7.27,1.76,16.28,1.98,33.51,3.01,49.71,5.3,2.48.35,4.26,2.4,6.3,2.8,7.66,1.49,17.26,1.78,25.74,3.17,6.41,1.05,12.64,1.21,18.94,1.99,2.51.31,5.8,2.53,9.17,2.91,20.65,2.34,42.35,4.15,62.96,8.03,1.79.34,5.31-.48,6.25.33ZM306.81,150.7c-1.23-2.8-4.64-2.74-7-1.98,1.61,3.86,3.72,2.49,7,1.98ZM289.82,151.71c.39.49,2.65-1.75,1.99-3-.39-.49-2.65,1.75-1.99,3ZM345.07,152.69c0-.68-.55-1.24-1.24-1.24s-1.24.55-1.24,1.24.55,1.24,1.24,1.24,1.24-.55,1.24-1.24ZM354.81,152.72h-3s0,1.99,0,1.99c1.25.65,3.48-1.6,3-1.99ZM321.05,153.95l-3.99,3.99,1.01,1.01,3.99-3.99-1.01-1.01ZM383.81,156.71l-2.99.49c.92,1.06,1.51,1.82,2.99,1.5v-1.99ZM333.55,196.43c.6-.55.8-1.93,1.73-2.73,6.78-5.86,13.22-12.09,19.98-18.05,2.97-3.93,3.6-8.02-1.1-10.84-8.1-4.87-18.64,10.53-23.43,15.31-3.9,3.89-12.08,6.51-8.68,13.83,1.79,3.84,8.46,5.22,11.5,2.47ZM471.81,168.7c1.96.3,3.31-1.16,2.99-2.99l-2.99,2.99ZM316.82,171.71c.39.49,2.65-1.75,1.99-3-.39-.49-2.65,1.75-1.99,3ZM464.43,169.07l-5,2.98.78,1.3,5-2.98-.78-1.3ZM381.58,172.94c-.48-.46-4.69-1.96-5.45-2-5.09-.28-17.25,14.56-22.34,17.25-4.05,4.89-10.6,7.79-10.06,15.04.32,4.21,4.69,6.14,8.55,5.49,2.59-.43,11.66-10.91,14.51-13.54,2.6-2.39,5.07-5.08,7.34-7.16,1.89-1.73,4.69-2.4,6.7-4.8,2.49-2.98,3.89-7.23.75-10.29ZM425.07,173.69c0-.68-.55-1.24-1.24-1.24s-1.24.55-1.24,1.24.55,1.24,1.24,1.24,1.24-.55,1.24-1.24ZM485.07,174.69c0-.68-.55-1.24-1.24-1.24s-1.24.55-1.24,1.24.55,1.24,1.24,1.24,1.24-.55,1.24-1.24ZM443.81,175.71h-2.99v1.99h2.99v-1.99ZM496.04,176.95l-4.47,4.51,1.02,1.01,4.47-4.51-1.02-1.01ZM438.81,183.71c-1.18-1.18-3.97,1.99-2.99,4,1.32-.22,3.83-3.16,2.99-4ZM618.82,187.71c1.52,1.52,4.26-2.98,1.5-2.98-.64,0-2.08,2.4-1.5,2.98ZM517.82,188.71c.39.49,2.65-1.75,1.99-3-.39-.49-2.65,1.75-1.99,3ZM539.13,200.03c.73-.8,2.11-1.04,3.15-2.33,4.17-5.16,1.38-11.32-5.26-11.81-5.08-.37-12.29,11.1-17.23,13.3-4.72,4.04-8.33,9.02-12.44,13.58-2.29,2.55-4.29,1.32-4.58,6.44-.36,6.4,5.06,10.01,10.44,6.39,3.26-2.19,7.15-8.2,10.06-10.94,5.54-5.21,10.57-8.85,15.86-14.64ZM551.81,186.72c-1.8-.32-3.28,1.35-4,2.99,1.8.32,3.28-1.35,4-2.99ZM621.81,189.72c-1.96-.3-3.3,1.16-3,2.99h1.99s1.01-2.99,1.01-2.99ZM385.56,190.46l-3.99,3.99,1.01,1.01,3.99-3.99-1.01-1.01ZM303.07,192.69c0-.68-.55-1.24-1.24-1.24s-1.24.55-1.24,1.24.55,1.24,1.24,1.24,1.24-.55,1.24-1.24ZM539.09,231.98c4-4.61,11.46-10.87,16.18-15.31,3.18-2.99,11.88-9.09,14-12,3.58-4.93,2.36-13.02-4.96-13.02-5.45,0-15.07,12.92-20.56,15.52-3.89,4.56-8.49,8.8-12.92,13.07-3.68,3.55-5.79,2.77-5.67,9.8.11,6.25,3.42,9.32,9.71,7.23,3.44-1.15,2.73-3.57,4.22-5.28ZM503.56,192.46l-5.51,5.47,1.01,1.02,5.51-5.47-1.01-1.02ZM640.81,192.72h-3s0,1.99,0,1.99c1.25.65,3.48-1.6,3-1.99ZM407.04,193.95l-4.47,4.51,1.02,1.01,4.47-4.51-1.02-1.01ZM415.81,200.7c1.83.32,3.29-1.04,2.99-2.99l-2.99,2.99ZM427.82,201.71c.39.49,2.65-1.75,1.99-3-.39-.49-2.65,1.75-1.99,3ZM599.82,203.71c.39.49,2.65-1.75,1.99-3-.39-.49-2.65,1.75-1.99,3ZM732.81,200.71l-2.93.04-1.06,3.95c1.85.67,4.9-3.08,4-3.99ZM741.56,201.46l-4.51,4.47,1.01,1.02,4.51-4.47-1.01-1.02ZM404.81,209.7c1.16,1.08,7.07-4.84,5.99-5.99-3.03.74-4.22,3.72-5.99,5.99ZM422.56,204.46l-4.51,4.47,1.01,1.02,4.51-4.47-1.01-1.02ZM609.81,207.72c-1.8-.32-3.28,1.35-4,2.99,1.8.32,3.28-1.35,4-2.99ZM179.81,208.72c-1.25-.66-3.49,1.6-3,1.99,1.25.66,3.49-1.6,3-1.99ZM739.07,209.69c0-.68-.55-1.24-1.24-1.24s-1.24.55-1.24,1.24.55,1.24,1.24,1.24,1.24-.55,1.24-1.24ZM480.81,209.72c-1.96-.3-3.31,1.16-2.99,2.99l2.99-2.99ZM412.82,214.71c.39.49,2.65-1.75,1.99-3-.39-.49-2.65,1.75-1.99,3ZM174.81,212.72c-1.25-.66-3.49,1.6-3,1.99,1.25.66,3.49-1.6,3-1.99ZM608.81,212.71c-1.28-1.31-4.58,3.36-3.99,5,1.41-.45,4.95-4.02,3.99-5ZM398.81,213.72c-1.13-1.06-6.05,3.82-4.99,4.99,2.45-.76,4.24-2.55,4.99-4.99ZM582.81,215.71h-1.99s-1.01,2.99-1.01,2.99c1.96.3,3.3-1.16,3-2.99ZM496.81,219.72c-1.48-.33-2.08.42-2.99,1.49l1.49,1.5,1.5-2.99ZM349.81,220.72c-1.83-.32-3.29,1.04-2.99,2.99l2.99-2.99ZM374.82,225.71c.92.91,4.66-2.15,3.99-4-1.77.89-4.41,1.58-3.99,4ZM382.81,226.7c1.83.32,3.29-1.04,2.99-2.99l-2.99,2.99ZM565.82,226.71c.39.49,2.65-1.75,1.99-3-.39-.49-2.65,1.75-1.99,3ZM572.82,226.71c.39.49,2.65-1.75,1.99-3-.39-.49-2.65,1.75-1.99,3ZM593.81,228.7c1.96.3,3.31-1.16,2.99-2.99l-2.99,2.99ZM492.82,230.71c1.63-.72,3.31-2.2,2.99-4-1.63.72-3.31,2.2-2.99,4ZM392.05,227.95l-3.99,3.99,1.01,1.01,3.99-3.99-1.01-1.01ZM235.07,230.69c0-.68-.55-1.24-1.24-1.24s-1.24.55-1.24,1.24.55,1.24,1.24,1.24,1.24-.55,1.24-1.24ZM603.73,228.8l-6.85,8.11,1.29,1.09,6.85-8.11-1.29-1.09ZM393.81,237.7c1.57,1.65,5.83-5.48,2.5-6.98l-2.5,6.98ZM406.81,231.72c-1.83-.32-3.29,1.04-2.99,2.99l2.99-2.99ZM760.07,232.69c0-.68-.55-1.24-1.24-1.24s-1.24.55-1.24,1.24.55,1.24,1.24,1.24,1.24-.55,1.24-1.24ZM344.07,233.69c0-.68-.55-1.24-1.24-1.24s-1.24.55-1.24,1.24.55,1.24,1.24,1.24,1.24-.55,1.24-1.24ZM286.81,233.72h-1.99s-1.01,2.99-1.01,2.99h1.99s1.01-2.99,1.01-2.99ZM483.81,236.71c.65-1.25-1.6-3.48-1.99-3v3s1.99,0,1.99,0ZM352.81,236.7l-1.5-1.98-1.5,1.49,3,.49ZM486.82,238.71c.39.49,2.65-1.75,1.99-3-.39-.49-2.65,1.75-1.99,3ZM507.81,236.72c-1.96-.3-3.31,1.16-2.99,2.99l2.99-2.99ZM607.65,236.92l-3.61,5.25,1.28.88,3.61-5.25-1.28-.88ZM487.07,242.69c0-.68-.55-1.24-1.24-1.24s-1.24.55-1.24,1.24.55,1.24,1.24,1.24,1.24-.55,1.24-1.24ZM586.81,245.71c-1.95-.29-3.3,1.17-2.99,2.99,1.95.29,3.3-1.17,2.99-2.99ZM517.81,249.72c-1.96-.3-3.3,1.16-3,2.99h1.99s1.01-2.99,1.01-2.99ZM582.81,249.72c-1.96-.3-3.31,1.16-2.99,2.99l2.99-2.99ZM512.81,254.71c-1.8-1.74-4.18,5.15-3.99,6l3-1.01-.88-2.89c1.44.39,2.95-1.05,1.86-2.1ZM536.81,256.72h-1.99s-1.01,2.99-1.01,2.99h1.99s1.01-2.99,1.01-2.99ZM566.04,263.95l-5.47,5.51,1.02,1.01,5.47-5.51-1.02-1.01ZM589.23,326.92l-2.42,4.78,1.58.8,2.42-4.78-1.58-.8ZM176.81,367.72c-2.53.35-6.06-2.48-7.66-2.74-1.15-.19-2.52.84-3.74.67-6.34-.88-12.48-3.18-18.81-4.19-4.24-.67-7.76-2.39-11.78-3.75-1.91,2.24,8.43,22.83,10.58,25.91,2.34,3.33,6.59,6.37,8.91,10.08,7.56-7.41,15.04-15.07,21.51-23.47.67-.87,1.36-1.02.98-2.51ZM433.81,362.71v-3.99s-.99,0-.99,0l-1.01,3.99h2ZM467.81,363.72c-4.4.97-9.14.57-13.51.98-8.87.84-17.6,2.48-26.03,3.97-1.62.29-3.37-.14-4.96.03-3.17.33,1.3,2.49,1.5,2.71,4.28,4.9,7.59,9.02,12,13.76,1.46,1.57,6.17,8.95,8.38,8.48l22.62-29.93ZM207.07,366.69c0-.68-.55-1.24-1.24-1.24s-1.24.55-1.24,1.24.55,1.24,1.24,1.24,1.24-.55,1.24-1.24ZM211.07,366.69c0-.68-.55-1.24-1.24-1.24s-1.24.55-1.24,1.24.55,1.24,1.24,1.24,1.24-.55,1.24-1.24ZM323.82,370.71c.39.49,2.65-1.75,1.99-3-.39-.49-2.65,1.75-1.99,3ZM274.81,371.71l-.49-2.99c-1.06.92-1.82,1.51-1.5,2.99h1.99ZM297.81,376.72c-4.08-.01-8.49-.8-12.51-1-4.5-.23-10.4.07-14.94.05-4.18-.02-8.37-.09-12.55-.04l18.52,24.99c3.07.75,7.35-8.84,8.93-10.05,3.85-2.97,7.32-6.27,10.55-10.45.43-.56,2.23-3.31,2-3.49ZM169.82,383.71c.39.49,2.65-1.75,1.99-3-.39-.49-2.65,1.75-1.99,3ZM189.81,420.71h-1.99s0,3,0,3c.39.49,2.64-1.75,1.99-3ZM583.82,430.71c.39.49,2.65-1.75,1.99-3-.39-.49-2.65,1.75-1.99,3ZM216.82,432.71c.39.49,2.65-1.75,1.99-3-.39-.49-2.65,1.75-1.99,3ZM543.81,450.72h-1.99s-1,3.99-1,3.99c.61.73,3.24-3.79,2.99-3.99ZM406.82,457.71c.39.49,2.65-1.75,1.99-3-.39-.49-2.65,1.75-1.99,3ZM514.81,459.71v-2.99s-.99,0-.99,0l-1.01,2.99h2ZM494.81,460.72c-1.83-.32-3.29,1.04-2.99,2.99l2.99-2.99ZM480.81,461.72c-1.83-.32-3.29,1.04-2.99,2.99l2.99-2.99Z"/>
        </g>
        <path d="M700.8,230.7c-.39-2.15,1.85-2.24,3.02-3.46.83-.86,1.18-2.24,1.98-3.05,2.16-2.18,6.68-4.14,8.52-.49,3.33,6.6-8.81,10.9-8.42,13.35.34,2.15,8.44,13.54,10.12,16.94,1.01,2.03,2.75,5.53,3.57,7.43.72,1.67,1.29,7.14,2.7,7.25,1.25-.77,2.79-1.53,4.24-1.74,12.52-1.83,32.05,4.04,44.31,8.24,1.8.62,8.77,3.87,10.01,4.99,2.12,1.91,4.58,6.29,4.9,9.14,1.32,11.79-7.01,16.7-14.49,23.37-7.44,6.63-15.08,13.74-23.94,19.06-3.9,2.35-9.14,5.61-13.49,6.01l-.04,15.97c2.32-.27,10.43,2.27,12,3.5,3.04,2.4-1.77,7.62-4.99,5.5,1.52,2.47.92,4.4-.09,6.91-3.4.79-5.1-1.04-7.43-2.91-3.06-2.45-2.22,3.5-2.73,5.24-.26.87-1.19,1.61-1.47,2.53-.7,2.31-.44,5.03-1.83,7.17-2.59,4.02-11.53,6.66-12.22.39-.17-1.54,3.87-10.37,4.55-13.06,8.11-32.13-1.02-73.59-10.02-104.55-.19-.65-5.28-10.87-5.95-12.08-1.12-2.02-6.52-9.07-8.4-11.57-3.13-4.16-14.08-12.37-8.37-17.56,4.72-4.3,10.19,5.44,13.94,7.48ZM733.82,327.71c7.7-3.88,14.37-9.07,21.06-14.43,3.44-2.76,8.38-6.25,11.48-9.52.85-.9,6.12-7.25,6.27-7.73,1.47-4.89-.57-7.78-4.8-9.83-6.45-3.14-13.43-4.15-20.05-5.95-1.52-.41-2.92-1.91-4.67-2.33-1.31-.31-11.06-2.02-11.65-1.96-1.68.17-4.28,2.18-5.74,3.21-1.58,1.84,1.41,6.18,1.87,8.27,1.07,4.92,1.12,10.08,3.17,14.83l3.08,25.43ZM776.07,281.69c0-.68-.55-1.24-1.24-1.24s-1.24.55-1.24,1.24.55,1.24,1.24,1.24,1.24-.55,1.24-1.24Z"/>
        <g>
          <path d="M183.09,275.43c-2.15-2.39-3.62-7.01-3.32-10.25,1.4-15.21,28.13-16.43,27.09,2-.66,11.82-16.72,16.07-23.77,8.25ZM193.81,262.71h-1.99s0,3,0,3c.39.49,2.64-1.75,1.99-3Z"/>
          <path d="M140.54,248.91c5.43-1.11,13.25,1.94,14.81,7.76,2.6,9.71-1.89,16.81-12.07,17.08-16.04.43-18.24-21.69-2.74-24.84Z"/>
        </g>
      </g>
    </g>
  </g>
  <g id="_x32_">
    <g>
      <path d="M716.32,220.65c5.75,5.99-9.26,12.86-8.68,16.11l10.77,14.29,7.15,15.92c1.08.69,7.85-2.52,10.57-2.61,13-.48,27.02,7.68,39.35,9.6l13.87,5.67c-.05,3.32,3.19,7.58,3.27,10.22.28,8.68-8.47,16.4-14.55,21.55-7.49,6.34-19.69,14.68-28.84,19.16-3.66,1.79-7.45,3.88-11.62,3.88l-1.05,14.96c3.07.72,16.52,3.28,17.52,4.99,2.85,4.86-4.75,5.91-8.43,6.1-2.36,3.9,3.06,9.49-1.76,10.81-2.77.76-7.49-6.65-8.82-8.87-1.85-.06-2.46,21.42-14.22,18.72-7.27-1.67,0-12.69,1.25-17.7,7.57-30.27.14-53.98-6.34-82.74-.63-2.81.34-5.95-.41-8.59-2.24-7.85-16.04-29.36-21.82-36.18-1.58-1.86-6.58-5.36-6.82-5.74-.27-.42.4-1.85.25-2.89-.31-2.17-2.41-3.47,1.25-5.81,5.18-3.32,10.38,4.98,13.86,7.9,3.1-2,10.45-12.68,14.25-8.73ZM737.58,324.39c1.15,1.21,24.15-14.15,26.5-16,2.15-1.69,11.5-9.81,12.52-11.47,6.73-10.94-8.89-11.65-15.22-13.84-5.28-1.83-8.9-3.2-14.23-4.77s-12.1-6.12-17.14-.94c-3.73,3.84,3.32,12.62,3.56,15.55.37,4.57-1.7,1.51,1,6.15,2.3,3.95.1,7.66.46,10.86.15,1.31,1.26,2.49,1.46,4.02.44,3.42.4,7.02,1.08,10.44Z"/>
      <g>
        <path d="M200.3,249.68c4.68,3.74,5.28,14.6,1.23,19.17-3.96,4.47-16.35,7.29-21.36,3.64-.89-.65-.29-2.27-.84-2.84-.83-.87-3.86.02-4.69-4.8-1.63-9.55,3.53-17.03,13.41-17.53,2.52-.13,10.45.93,12.25,2.37Z"/>
        <path d="M123.92,266.04c-5.7-5.35-4.97-14.2.13-19.66,1.9-2.03,9.19-4.06,12.01-4.08,10.25-.09,15.06,6.68,13.45,16.54-1.57,9.61-18.84,13.54-25.59,7.2Z"/>
        <path d="M616.57,272.38c1.95-2.95,4.71-5.6,7.99-6.99,1.26,1.33-5.73,7.75-7.99,6.99Z"/>
        <g>
          <path d="M642.3,120.68c3.06,2.46,3.98,3.05,7.19,5.29,5.19,3.63,14.96,9.52,12.09,16.42l2.49-1.98c.98.03,8.1,16,8.29,17.73.82,7.43-10.03,7.52-11.83.75l2.03-3.49-3.48.06c-1.68-2.65-3.2-6.65-5.05-9.03-1.1-1.41-2.77-1.9-3.86-3.14s-3.42-5.62-3.71-5.81c-.41-.26-2.44,1.48-3.72.77-.28-.15-.55-1.63-1.26-2.23-26.05-21.9-73.25-17.49-96.95,6.83-2.37,2.43-2.61,5.92-6,6.96-4.93,1.52-9.22.06-7.76-5.66,1.29-5.06,15.07-16.2,19.88-19.17,19.08-11.81,51.19-18.09,73.09-12.26,1.68.45,17.76,7.33,18.55,7.96Z"/>
          <path d="M487.23,106.75c8.95,5.33,19.25,15.12,24.14,24.34,2.23,4.21,8.14,15.86.46,17.07s-6.8-4.01-8.85-7.67c-21.12-37.74-68.04-41.12-99.32-13.51-4.33,3.82-6.41,10.94-12.37,9.25-6.53-1.85-.2-9.69,2.26-12.37,22.34-24.32,64.6-34.43,93.69-17.11Z"/>
          <path d="M772.34,241.16c-.65.67-3.26,1.46-4.17,1.32-1.13-.17.09-2.53-1.58-2.08l-.93,3.58c-4.2,2.77-7.81-2.98-9.71-3.35-3.77-.74-8.21,4.6-14.35,1.18-.72-.4-.84-1.96-1.2-2.17-.37-.23-1.71.79-2.78.3-4.14-1.89-4.01-7.25-5.11-9.77-.47-1.07-1.83-.89-2.26-1.96-1.16-2.92-.17-5.45-2.22-8.76-3.36-5.43-14.93-10.43-21.08-11.01-5.5-.51-7.35.11-13.96-.95-8.8-1.42-13.74.8-21.72-4.09-.83-.51-.48-2.06-1.22-2.03-1.75.06-4.27,3.03-7.97,3.04-1.46,0-11.11-1.65-12.95-2.06-2.42-.55-7.62-5.77-8.55-4.94-2.18,1.95,2.56,1.67,1.99,2.98-3.83,1.66-10.28-2.71-12.51,2.01-.83,1.76-1.11,8.62-2,11.99-11.3,43.08-63.91,65.34-105.71,55.73-8.19-1.88-22.88-8.26-29.92-13.08-21.63-14.78-31.63-35.89-33.93-61.13-.4-4.35,2.52-7.06-3-9.93-4.34-2.25-10.01-1.31-14.45.39-1.51,8.1-4.47,13.32-9.03,19.97-14.43,21.02-34.66,34.53-61.1,36.89-4.53.4-13.41,1.49-15.76-1.73-8.98.95-22.79-3.26-31.51-6.7-2.92-1.15-3.26-4.27-6.62-4.35s-6.7,2.42-10.03,2.87c-10.09,1.36-28.48,1.69-38.92,1.52-5.52-.09-10.95-1.62-16.49-1.43l7.96,8.76c3.61,5.36,11.27,15.99-1.01,14.78-7.03-.69-4.73-4.11-7.23-7.28-.55-.7-2.34-1.1-3.25-2.21-20.74-25.59-58.98-38.74-92.85-33.94-34.32,4.86-67.19,27.75-74,63.08-2.92,15.16-1.12,19.34,6.63,32.07.79,1.29.35,3.34,1.03,4.45.72,1.17,19.33,16.15,21.37,17.12,7.26,3.46,16.07,5.93,23.56,8.44,7.98,2.67,15.14,3.83,22.6,6.6,8.93,3.32,19.9,4.6,29.33,6.47,27.58,5.48,56.59,6.15,85.35,6.58,14.47.21,34.37,2.21,49.01.56,1.97-.22,4.73-2.45,8.04-2.52s6.2,1.85,8.95,1.85c12.2,0,29.8-2.21,42.55-3.25,51.95-4.25,102.61-9.25,152.54-24.49l17.4-8.59c-4.73-3.48-10.46-6.17-13.46-11.54-.74-1.33-.25-3.35-.58-3.92-.2-.35-5.62,1.7-2.93-5.03l3.98,3,1.64-4.88c6.9-1.78,6.68,3.3,9.84,6.9,10.32,11.76,35.31,15.28,49.51,9.46,5.17-2.12,13.8-10.58,19.01-8,7.61,7.36-10.33,16.84-16.21,18.81-5.35,1.79-16.85,3.96-22.18,3.61-3.93-.25-11.84-3.17-14.91-2.71-2.36.35-5.62,4.37-8.17,5.84-17.09,9.84-44.01,17.02-63.15,20.88-3.31.67-10.12.48-12.38,1.6-1.18.58-14.9,17.38-17,20-3.22,4.01-12.04,14.09-14.1,17.23-1.15,1.75.78,4.88-4.62,6.07-14.69,3.23-14.97-4.74-22.63-13.45-4.46-5.07-9.4-9.23-13.63-13.82-5.91-6.43-8-7.87-17.48-6.46-6.12.91-6.89.8-12.94,1.05-23.94.98-47.87,4.91-71.91,4.1-10.32,8.24-18.59,17.96-27.16,27.86-2.31,2.67-1.37,4.85-6.71,6.26-12.74,3.36-18.23-6.02-24.28-15.37-1-1.54-1.25-4.1-1.77-4.71-.89-1.05-3.59-.67-4.54-1.46-1.24-1.04-.68-4.19-1.51-5.5-.33-.53-8.38-8.36-8.96-8.6-3.58-1.5-6.06.11-8.92-.21-9.26-1.04-18.87-2.1-28.25-3.56-5.25-.82-10.84-2.37-15.98-3.76-5.58,6.29-12.45,11.73-18.14,17.86-3.86,4.15-6.29,9.39-11.47,12.51,1.19,1.69,3.56,1.88,4.98,3.03,39.79,32.14,114.14,34.08,164.52,39.46,6.56.7,15.63,2.42,21.27,2.74,46.42,2.61,90.72,13.12,137.73,13.34,2.38.01,4.78-1.32,7-1.17s3.39,1.89,4.81,1.88c2.6-.01,6.39-3.41,8.35-3.57,1.59-.13,3.11,1.59,4.89,1.74,9.59.82,15.74-2.02,24.66-4.21,27.3-6.69,49.97-15.39,67.78-39.26,1.5-2.01.5-4.49,5.54-5.48l.89,1.94,3.56-.94c3.18,2.23-4.37,15.56-6.16,18.33-3.37,5.18-18.32,18.71-23.89,21.19-1.16.51-2.47-.5-2.78-.32-.26.15-1.46,3.24-3.8,4.66-7.25,4.41-16.5,7.09-24.34,9.66-7.72,2.54-23.93,8.07-31.53,8.56-3.07.2-5.65-1.24-8.89-1.04-2.49.15-6.89,3.08-9.09,3.07s-3.53-1.85-5.96-2.16c-5.95-.77-13.47,2.69-21.08,2.1-11.22-.88-22.88-1.99-33.85-3.09-3.26-.33-6.74-2.91-10.14-3-2.7-.07-5.09,1.47-7.88,1.04-18.46-2.85-37.44-8.02-55.54-10.56-16.11-2.26-32.92-1.38-49.31-3.67-5.6-.78-8.16-.55-13.01-.97-2.45-.21-5.01-2.61-7.28-2.75-3.94-.23-6.66-.17-10.94-.55-23.94-2.1-52.3-4.66-75.77-10.73-1.89-.49-4.03-3.26-6.36-3.47s-4.05,1.37-7.43.28c-2.83-.91-9.79-6.08-12.21-7.34-.56-.29-5.33.23-7.76-.71-3.17-1.24-4.61-4.63-7.23-5.76-14.67-6.32-28.51-15.81-38.74-28.25-3.53-4.29-13.84-21.41-14.78-26.23-.53-2.67-.7-6.63-1.15-9.79-.51-3.56,1.17-7.92-3.12-9.92-1.88-.88-4.93-.5-6.31-1.46-1.09-.75-.52-3.33-2.66-4.57-1.52-.88-3.78-.74-5.94-2.06-5.85-3.57-12.2-13.85-15.62-19.38-1.29-2.08-3.55-2.89-4.52-5.56s.57-5.21.09-7.95c-5.46-30.91,11.74-60.26,37.1-77.99,18.8-13.14,40.36-16.87,62.47-19.53,1.91-.23,5.19-.37,7.02-.13.63.08,3.79,2.38,3.92,3.08,5.4-5.31,9.16-1.11,14.08-.07,3.36.71,9.86-.2,11.73.23,1.36.31,2.81,3.02,5.12,3.92,2.94,1.15,5.74.38,7.94,1.09,1.33.43,1.37,2.24,2.37,2.86,3.62,2.21,8.17,1.99,12.14,4.6,2.36,1.55,3.92,4.84,6.64,5.36,4.91.94,12.59-.39,18.02-.02,7.19.5,14.43,2.41,21.98,2.12,8.54-.32,17.7-2.8,26.48-2.09l-11.83-14.66c-3.33-6.39-10.1-15.26-12.16-21.93-.73-2.37.16-4.52-.44-6.39-.64-1.97-3.06-3.69-3.42-5.75-.43-2.44,1.11-4.98.93-7.75-.17-2.63-2.05-4.45-2.15-7.02-.11-2.75,1.94-6.22.97-8.87-.65-1.78-2.91-1.12-3.96-2.3-.97-1.09-2.17-5.16-1.96-6.76.56-4.35,5.41-2.94,6.61-4.51.37-.49-2.77-7.37,5.07-7.76,2.71-.14,4.47,2.09,6.91,2.63,1.61.36,5.08.48,6.94.51,15.51.25,31.46.86,46.94,3.62,2.29.41,4.17,2.56,7.17,2.89s5.27-.92,7.66-.73c3.11.25,5.45,3.04,7.47,3.54,6.18,1.55,18.38,3.31,24.81,4.19,31.82,4.35,64.46,8.94,96.69,14.31,2.45.41,9.72,3.39,10.26,3.37.74-.02,1.73-1.61,3.85-1.6,6.68.03,16.6,2.72,23.63,3.47,3.57.38,7.73-.76,10.43-.49,2.36.24,4.88,2.57,7.32,2.78,33.93,2.92,67.96,6.21,101.76,9.23,9.12.81,18.72.49,26.78,1.21,2.45.22,5.01,2.61,7.28,2.75s4.66-1.35,7.86-.93c2.62.35,4.54,2.58,7.17,2.93,3.72.51,7.61-1.2,11.89-.96,6.19.35,30.95,2.95,35.57,4.45,2.42.78,16.42,8.54,17.93,10.07,1.03,1.05,5.32,6.12,6.45,7.55,3.62,4.59,8.75,23.55,8.62,29.38-.03,1.43-1.47,7.48-2.27,8.31ZM297.56,146.41c-1-3.26,4.71-4.95,2.01-7.55-1.39-1.04-9.24.57-10.99,2.05l5,1.98c.02.56-2.41,1.02-3.47,2.54-2.29,3.31-1.42,8.14.96,2.94l1.49,2,2.11-4.97,2.9.99ZM319.57,145.4c-11.11,3.47-9.6,14.01-12.99,22.99,2.67-1.04,2.42-4.99,5.98-4.01l-3-.99c.09-8.45,4.86-12.34,10.01-17.99ZM352.32,169.15c3.59-9.02-4.55-13.13-12.1-8.61-3.17,1.89-21,17.3-23.33,20.16-2.94,3.6-2.78,8.07.66,11.2,3.29,1.23,6.77.54,9.72-1.31l25.05-21.44ZM352.92,197.74c8.15-7.36,17.11-13.85,25.09-21.4,4.42-6.74-3.92-12.28-10.43-9.43l-28.02,23.97c-4.91,7.33-.76,15,8.3,12.29,2.53-.76,3.52-4.05,5.06-5.44ZM440.57,168.4c-3.45-.87-3.34,1.98-5.1,3.39-1.63,1.3-4.38,1.17-4.9,4.59l5.49-3.03,2.49,2.03,2.01-6.98ZM297.57,172.4l-5.36,5.04.38,2.95,4.99-7.99ZM434.57,177.4c-3.86.06-4.4,3.88-3.98,6.99,1.46-.48,4.91-5.98,3.98-6.99ZM613.57,191.38l6.52-4.02-.02-6.96-3.91.97-1.57,5.02,2.98.49-3.99,4.5ZM534.22,181.66c-1.4.13-3.92,1.82-5.15,2.74l-28.56,26.44c-3.32,8.03.03,14.27,8.6,9.59,2.34-1.28,28.84-25.22,30.46-27.53,3.86-5.53.93-11.8-5.35-11.23ZM420.57,186.4l-42.56,32.89-1.43,3.1,17.51-12.03c6.74-7.51,17.11-13.58,24.39-20.56,1.07-1.03,2.53-1.45,2.09-3.4ZM404.57,188.4c-6.05,2.48-10.85,8.12-15,12.98l10.01-7.48,4.99-5.5ZM563.99,202.81c1.65-1.49,3.17-1.82,4.35-4.15,3.99-7.84-2.98-12.93-10.35-9.35l-36.18,29.32c-4.08,8.39,2.26,19.22,10.72,12.22,2.93-2.42,8.46-10.04,11.02-11.86,6.5-4.62,14-10.39,20.43-16.18ZM420.58,201.39c3.94-2.59,7.84-6.17,4.49-10.99l-4.49,10.99ZM597.57,201.38c1.26,1.2,8.9-6.19,6.99-8.99l-6.99,8.99ZM622.57,193.4c-.84-1-5.12,3.83-5.32,4.26-.84,1.81-.82,2.48.83,3.73l4.49-7.99ZM728.57,197.4l-4.99,3.5,2.02,2.47,1.96-.58,1.01-5.39ZM733.57,197.4c-3.49-3.59-5.78,10.25-3.98,11.99,2.22-.6.89-2.45,2.41-3.98.64-.65,9.19-6.43,9.57-6.01.64,2.92-4.33,6.95-4.56,8.47-.34,2.23.96,5.07-1.43,8.04l2,1.49,7-20c-4.38,2.21-8.31,1.54-11.98,6l.99-5.99ZM311.56,205.4l1-6.01-5.99,5.02,2.5,2.97.5-3.01,1.99,1.03ZM614.57,201.4c-6.8,2.24-12.13,7.57-14.99,13.99,4.14-1.02,5.55-5.05,8.05-7.44,1.92-1.83,5.96-2.6,6.94-6.55ZM616.56,219.39c-.07-5.06,5.11-7.76,4-12.99l-4.78,7.71.78,5.29ZM584.32,207.15l-8.51,8.47,1.02,1.02,8.51-8.47-1.02-1.02ZM592.58,226.39c1.46,1.32,9.72-9.07,12.01-9.48l3.98-5.51-9.5,8c-1.07-4.52-6.36-.3-6.49,3l4.5-3.99c.74-.16.69,1.05.49,1.48-.48,1.05-6.03,5.57-4.99,6.51ZM400.57,215.4l-10.48,7.01-2.52,3.97c.69.7,8.45-6.12,9.47-7.02.56-.5,3.97-3.57,3.53-3.96ZM760.57,234.39c.58-.53,1.75-9.43-.98-10,.61,4.11-.32,6.11-3.01,8.98l3.99,1.01ZM502.58,235.39c2.11-1.55,4.98-3.94,6.42-6.07,1.09-1.63,2.26-2.44.07-3.91l-6.49,9.98ZM576.58,249.39l20.9-14.59,2.09-3.4c-2.29.5-9,7.74-9.99,6.99l1.5-4.99c-2.97,6-5.29,7.23-9.97,11.03-1.55,1.26-4.8,2.85-4.53,4.96ZM584.92,250.79c2.05-1.54,4.23-2.1,3.64-5.4-2.22,1.68-2.5,4.14-5.99,4.01.98,5.37,1.55,1.99,2.35,1.39ZM510.56,248.39c-4.95.05-6.16,1.92-5.98,7l5.98-7ZM541.57,259.4l-4.99,5.98h4c-.9-2.53-.39-3.8,1-5.98ZM555.57,266.38c2.27.74,9.23-5.62,7.99-6.99l-7.99,6.99ZM163.57,359.4l-44.99-12.01c.5,6.38,2.77,12.29,5.57,17.92.63,1.27,2.43,2.02,2.92,3.1.76,1.68.14,3.97.67,4.82.33.53,2.77.64,3.82,1.67,1.87,1.83,3.86,7.92,7.65,9.43.84.14,5.31-3.51,6.38-4.42,3.18-2.7,8.11-7.85,10.98-11.02,1.19-1.31,7.58-8.69,7-9.48ZM462.56,358.4c-1.86.19-3.51,1.02-5.44,1.05-10.18.18-22.3.8-31.51,3.5-3.25.96-6.83-.68-9.03,1.94l22.45,24.48,23.52-30.98ZM247.58,369.39c-1.71,2.41,6.44,8.5,7.99,10.5,1.79,2.3,9.74,15.47,11.5,15.47l21.48-23.47c-.96-1.51-1.94-1.34-3.44-1.53-11.98-1.5-25.63,1.2-37.53-.97ZM565.57,435.4l-10,7.98c2.39.96,10.47-7.53,10-7.98Z"/>
        </g>
      </g>
      <g>
        <path d="M813.55,337.38c.08-.06-.27-1.73.67-1.99,4.99-1.38,21.05,4.34,25.25,7.61,1.35,1.05,1.78,2.87,3.03,3.99,1.31,1.18,3.15,1.01,4.13,2.1,1.08,1.19,5.77,10.42,6.42,12.32,4.83,14.09-1.91,23.79-9.83,34.63-8.42,11.52-25.27,32.8-27.6,46.9-1.59,9.6,3.32,16.74,8.49,24.44.89,1.33,2.66,1.59,3.5,2.75,2.3,3.18,1.43,6.92,2.72,10.01,1.92,4.59,2.29,1.51,3.73,8.77,2.45,12.38,7.88,26.92,7.63,40-.06,3.17-1.87,4.21-2.12,6.05-.31,2.31,1.48,4.6.89,6.72-.74,2.64-8.16,4.42-6.38,7.7l4.5-2.99c-.23,2.62.53,5.78-.2,8.29-.46,1.58-3.29,8.16-4.27,10.73-8.88,23.35-26.36,43.24-48.2,56.8-9.25,5.74-18.6,7.18-28.54,9.37-4.14.91-12.46,6.32-15.28.81-.97.53-1.11,2.44-1.7,2.78-1.45.85-20.02-.48-23.18-.91-9.51-1.28-33.7-8.26-40.63-14.37-1.63-1.44-4.74-6.05-5.65-6.35-2.71-.91-7.25-.25-11.33-1.67-3.37-1.17-24.52-12.1-26.95-14.05-2.71-2.18-3.92-5.61-6.55-7.45-1.7-1.2-4.29-1.34-5.5-2.5-1.82-1.74-5.54-10.5-6.27-11.24s-3.34-.33-4.27-2.23c-.37-.76-3.55-15.53-3.53-16.48.01-.64,2.3-11.68,2.56-12.46,1.5-4.61,6.34-10.99,10.48-13.58-7.16-7-10.26-13.84-10.04-24.03.33-15.35,13.64-28.57,27.95-32.57,0-4.74-2.55-7.31-1.95-12.45.24-2.01,1.51-2.97,1.73-4.13.72-3.79-.21-5.8,2.87-10.28,14.5-21.09,43.72-27.71,67.99-25.07,4.21.46,10.79,3.29,15.02,3.97,1.78.29,3.66.03,5.44.05.05-1.67-.1-3.44.43-5.06,6.36-19.31,21.43-52.92,37.07-66.98,1.95-1.75,3.64-.96,5.02-1.91,11.87-8.26,15.26-11.31,29.56-15.47,3.9-1.14,5.09-3.7,10.21-2.34,1.03.27,2.24,2.1,2.7,1.76ZM798.38,598.24c.13-.13-.6-1.47.11-2.34,11.15-13.62,20.89-23.09,23.27-40.79.3-2.26,3.31-5.18,3.61-7.44,1.62-12.2,2.27-24.26.14-36.73-2.95-17.22-13.13-33.66-20.91-49.09-.49-.98-2.35-1.58-2.83-3.17-2.01-6.63,1.05-21.15,4.06-27.54,2.56-5.45,10.41-15.03,12.81-20.22,5.38-11.61,12.44-17.18,18.57-27.41,4.8-8.01,5.62-12.36,1.52-20.8-4.83-9.92-15.82-15.67-26.81-16.01-2.98-.09-17.77,4.92-21.05,6.47-21.22,10.01-33.56,32.63-43.52,52.48l-6.67,25.56c3.61,3.39,8.93,2.99,12.82,4.73s8.68,5.38,13.01,6.98c5.57,6.23-2.17,12.54-9.2,9.2-2.34-1.11-2.13-2.97-3.51-3.74-23.68-13.22-73.07-20.17-95.28-2.56-5.61,4.45-9.46,9.2-10.35,16.43-.81,6.53,3.67,12.44,9.06,15.96,12.85,8.39,44.5,14.81,59.88,15.67,2.76.15,7.14-3.14,9.06,3.47,1.43,4.91-3.26,6.45-7.19,6.93-7.14.88-33.12-2.31-38.68-5.93-.53-.35-.84-1.31-.75-1.97l-2.44,1.96c-3.44-4.18-8.95-2.06-12.84-3.17-.55-.16-8.82-4.05-10.24-4.75-2.3-1.14-7.84-6.63-9.11-6.88s-11.09,4.51-12.83,5.86c-11.32,8.75-13.7,22.82-3.55,33.5,10.86,11.42,31.81,15.57,46.25,19.75,8.5,2.46,15.03,4.47,24.28,5.72,6.1.82,11.94-2.13,9.99,8-2.02,3.29-10.55,3.22-14.01,3.03-1.8-.1-11.7-.95-12.77-1.19-2.85-.62-6.73-4.69-7.17-4.68-10.38.14-27.51-5.38-37.49-9.71-1.98-.86-5.3-4.37-7.75-5.3-2.44-.39-10.03,11.23-10.32,13.44-.19,1.49,1.27,12.48,1.93,14,1.84,4.26,6.82,8.26,9.63,11.37,1.53,1.7,6.48,8.26,7.86,9.13,2.03,1.28,3.96.46,5.34,1.18.5.26,4.19,5.17,5.82,5.74l-1.57,2.99c2.36.31,3.81-2.51,6.28-1.85,1.32.35,3.77,3.34,5.79,4.28,2.68,1.25,7.55,2.03,10.53,3.52,5.11.25,21.31-3.22,23.92,2.06,2.93,5.94-7.59,7.68-6.52,8.99,5.66,3.3,15.65,4.16,20.77,6.71,1.68.83,1.13,2.24,1.24,2.3.56.31,1.55-1.73,3.26-1.76,6.62-.14,21.13,4.97,27.02,3.57,2.64-.63,7.22-5.5,9.2-.8,10.29-5.59,22.57-7.2,32.43-13.58,3.48-2.25,7.27-6.97,10.57-9.43,1.63-1.22,4.71-1.53,5.32-2.14ZM810.57,452.4c-2.86-.54-1.61.76-2.26,2.18-.99,2.16-2.05,4.31-1.72,6.81,2.72-1.6,3.1-6.21,3.99-8.99ZM828.57,478.4c-5.14.07-.07,8.01-3,10.98,5.68-.39.44-7.7,3-10.98ZM788.57,616.38c1.65,1.55,7.94-6.59,6.99-8.99l-6.99,8.99Z"/>
        <path d="M775.57,582.38l20.99-20.99c-.1,2.19-2.13,4.39-3.48,6.01-2.54,3.08-10.47,11.33-13.46,13.54-1.36,1-2.09,1.85-4.05,1.44Z"/>
      </g>
    </g>
  </g>
  <g id="_x31_">
    <path d="M824.05,404.54c.68-1.17.72-2.91,1.54-4.29,3.53-5.88,10.25-13.71,10.5-20.58.11-3.06-1.46-10.51-2.58-13.48-3.16-8.42-8.86-14.36-17.22-17.78-5.61-2.29-16.92-5.08-22.75-4.21-1.5.22-2.45,1.25-3.46,1.47-.93.2-1.86-.38-3.05-.05-4.15,1.16-5.71,4.91-7.98,6.08-.76.39-2.09-.56-3.31-.37-2.51.41-3.94,3.05-5.76,4.32-15.62,10.82-25.76,28.69-33.48,45.52-1.53,3.33-5.07,10.17-6.02,12.98-.88,2.62-.28,5.81-.72,7.36-.36,1.29-1.85,2.25-2.31,3.62-.66,1.94.05,4.17-1.41,5.6l-5.58,1.35-1.03-1.94c-20.14-3.63-37.75-3.79-56.68,5.29-4.03,1.93-4.82,4.43-7.71,7.29-3.07,3.04-6.31,3.94-7.85,9.17-.75,2.54.81,4.12.64,5.67-.32,2.8-2.19,5.47-1.7,10.13.25,2.39,2.45,3.94,1.86,6.47-5.08.41-7.28,5.57-11.82,6.18l-2.15,8.86c-4.05.54-.86-2.95-1-5-3,1.84-7.47,7.75-8.55,10.94-.5,1.46-.25,2.98-.66,4.34-.32,1.06-1.52,1.71-1.79,3.21-1.6,9.04,1.22,18.14,7,25.01,1.49,1.77,3.66,4.3,6,4.51-2.89,3.81-4.84,7.02-6.55,11.49-.58,1.51-1.99,5.04-2.33,6.21-.19.66.8,12.45,1.06,13.61.55,2.5,3.48,4.24,3.68,5.3.19,1.02-1.17,2.43-.81,3.77.37,1.4,2.82,1.57,3.47,2.6.67,1.04.35,2.73.99,4.01.9,1.82,15.02,12.99,17.57,14.43,7.84,4.43,17.14,9.67,25.37,12.63,7.65,2.75,4.12,1.56,9.01,5.99,5.93,5.36,24.84,12.17,33,13,6.52.66,18.57.11,25-1.09,2.53-.47,4.81-1.95,7.46-2.07l.09-2.89c1.86-.56,2.3,1.47,3.68,1.88,4.52,1.32,11.74-4.71,15.32-6.87h-3s0-2,0-2c1.99,1.26,2.32-.2,3.99-1l-1,3c15.6-9.42,29.51-19.32,37.85-36.65,2.97-6.16,3.53-6.63,7-12,4.02-6.21,10.01-26.53,10.17-33.89.02-1.07-.72-2.26-.65-2.99.13-1.26,2.46-4.85,2.66-7.95.29-4.43-1.61-4.56-1.95-6.17-.29-1.33,1.75-1.85,1.5-3.38-1.41-8.66-6.84-21.26-11.14-28.91-4.02-7.15-5.43-14.89-8.93-22.07-.64-1.31-2.92-2.37-3.38-4.7-.38-1.93.56-7.7.59-9.97.07-5.81.8-5.05,2.82-10.3,2.16-5.64,5.29-9.96,8.31-15.67,1.68-3.17,2.84-6.92,5.15-9.85l-3-.99c1.49-1.19,5.12-2.58,6.03-4.14ZM828.02,381.17v-1.99s3.99-2.01,3.99-2.01c.67,1.85-3.09,4.9-3.99,4ZM828.02,358.18v1.99s-2.99,1-2.99,1v-3s2.99,0,2.99,0ZM822.02,543.18c-1.68,1.72-3.28,3.32-5,5-.08-2.24,2.73-5.06,5-5ZM821.04,355.92c.68,0,1.24.55,1.24,1.24s-.55,1.24-1.24,1.24-1.24-.55-1.24-1.24.55-1.24,1.24-1.24ZM817.04,350.92c.68,0,1.24.55,1.24,1.24s-.55,1.24-1.24,1.24-1.24-.55-1.24-1.24.55-1.24,1.24-1.24ZM800.01,350.18c.31,1.83-1.03,3.29-3,3l3-3ZM761.04,374.92c.68,0,1.24.55,1.24,1.24s-.55,1.24-1.24,1.24-1.24-.55-1.24-1.24.55-1.24,1.24-1.24ZM743.01,402.18c.65,1.25-1.6,3.49-1.99,3-.65-1.25,1.6-3.49,1.99-3ZM713.02,434.18c.49.39-1.75,2.65-3,1.99-.49-.39,1.75-2.65,3-1.99ZM696.04,432.92c.68,0,1.24.55,1.24,1.24s-.55,1.24-1.24,1.24-1.24-.55-1.24-1.24.55-1.24,1.24-1.24ZM683.02,434.18l-3,3c-.29-1.96,1.17-3.3,3-3ZM668.01,436.18c.32,2.81-1.93,4.99-3.5,6.99l-2.5-2.98c2.78.03,3.71-3.06,6-4.01ZM657.02,452.18c.65,1.25-1.6,3.49-1.99,3v-3s1.99,0,1.99,0ZM659.02,478.18v3s-.99,0-.99,0l-1-2.99h2ZM632.02,527.17c.23-1.29,1.64-1.63,2-3-.99-.04-2.01.03-3,0v-.49c1.51-2.14,3.73-2.26,3,.5.67.03,1.34-.05,2,0,.44.32-2.83,3.95-4,2.99ZM633.02,571.17c.77-2.3,2.14-2.47,3,0h-3ZM711.02,619.17c-.49-.39,1.75-2.65,3-1.99.49.39-1.75,2.65-3,1.99ZM742.02,618.17l.99-.74c-.05.45-.22.82-.99.74ZM746.01,618.17c-1.79.35-.45-1.54-1.39-1.95l1.39-1.04v3ZM782.78,601.93l-1.01-1.01,4-4,1.01,1.01-4,4ZM805.04,565.39c-.68,0-1.24-.55-1.24-1.24s.55-1.24,1.24-1.24,1.24.55,1.24,1.24-.55,1.24-1.24,1.24ZM811.02,560.17c-.49-.39,1.75-2.65,3-1.99.49.39-1.75,2.65-3,1.99ZM816.01,486.18v3l-1.99-1.5c.54-.52,1.62-1.9,1.99-1.5ZM807.01,470.18c.29,1.96-1.17,3.3-3,3l3-3ZM803.78,426.93l-1.01-1.01,4-4,1.01,1.01-4,4ZM806.02,428.17c.72-1.64,2.22-3.31,4-2.99-.72,1.64-2.22,3.31-4,2.99ZM813.02,406.18c-.32-1.78,1.36-3.28,2.99-4,.32,1.78-1.36,3.28-2.99,4ZM820.02,393.18c-.65-1.25,1.6-3.49,1.99-3,.65,1.25-1.6,3.49-1.99,3ZM813.58,397.17c-.33.88.53,1.9-.01,2.97-1.06,2.11-4.23,3.15-5.31,4.26-2.08,2.15-.91,7.74-1.73,9.7-1.21,2.86-5.92,6.67-6.99,9.05-.36.8.59,1.88.03,2.99-.85,1.7-4.86,3.8-5.39,5.69-.41,1.46.07,3.18-.34,4.66-.66,2.33-2.41,4.48-2.77,7.23-.68,5.31-.09,14.71,2.44,19.45.87,1.64,3.14,1.55,3.51,2.68.91,2.72-.37,5.77.12,7.62.14.54,5.01,9.28,5.38,9.69.82.92,2.5,1.19,3.03,1.97.66.95,1.12,6.96,3.43,10.41.52.78,1.67.55,1.83.79,1.28,1.91-.23,10.32,4.24,11.44-.73,5.12,1.44,9.51.41,14.46-.94,4.55-.43,4.67-.69,8.29-.15,2.13-2.21,4.53-2.58,6.34-.46,2.23.22,4.61-.36,6.64-.96,3.35-2.71,5.84-4.01,10.99-.63,2.51-3.27,4.72-2.81,7.7l-1.99-1.02c.56,4.75-3.76,6.44-5.54,10.98-1.47,3.74-5.99,11.64-8.97,15.02-1.23,1.39-3.29,1.47-4.48,2.52-1.5,1.32-1.52,3.65-3.02,4.98-9.54,8.44-20.81,10.62-31.28,15.71-1.28.62-2.45,2.45-3.15,2.49-1.9.12-5.04-1.21-8.05-.69-2,.35-3.32,2.57-4.97,2.62-5.72.19-16.79-1.8-22.81-2.84-1.4-.24-8.31-3.43-9.73-4.27-.47-.28-1.29-1.25-.99-1.5,5.07-1.29,9.65-2.28,7.89-8.4-1-3.48-8.93-2.13-11.39-2.07-2.16.05-4.37-1.18-7,.38l-13.5-1.93-1,3c-.16-1.12.42-3.07-.14-3.86-.2-.28-5.26-3.29-5.92-3.58-1.68-.75-3.69-.88-5.5-1.5-1.16-.39-2.56-1.81-2.96-1.82-.86-.02-1.68,2.44-3.49,1.76l1.94-2.62c-.73-4.58-6.64-4.96-8.92-6.89-.41-.34-6.78-7.49-7.07-7.93-1.37-2.11-1.24-4.8-3.28-7.28-.69-.83-2.55.69-.67-2.27l-3,1c-.38-.43,2.83-8.62,2.99-10.59.13-1.6-.89-3.78-.52-4.43.71-1.24,5.41-6.84,6.52-7.53,1.74-1.08,4.86,2.07,7.2,2.86,5.6,1.88,10.1,1.64,15.34,2.07,1.67.14,6.37,4.24,9.13,4.39,5.93.32,4.21,1.2,8.02,2.06,3.49.79,8.13-.12,11.85.16,4.05.3,9.14,3.1,13.04.1,2.9-2.23,3.73-8.91-.27-9.95-1.06-.27-2.11.48-2.79.39-10.09-1.36-21.4-2.51-31.56-4.97-9.36-2.26-25.59-6.81-33.49-12.51-.75-.54-5.74-5.52-5.98-6.02-.85-1.73-.24-3.58-.66-5.33-.3-1.24-1.52-2.31-1.68-3.34-.21-1.31,1.32-2.64,1.65-4.06.43-1.89.3-5.64.96-6.97.62-1.27,3.36-5.67,4.22-6.86.61-.84,5.1-4.37,6.09-4.91,3.74-2.02,7.95-.55,10.45-4.54,3.13,4.9,5.59,3.25,9.82,4.17,1.84.4,3.01,2.25,4.36,2.64,3.16.92,8.19-.25,11.77.23,3.23.43,8.83,3.51,11.18,3.76,6.38.65,10.24.65,17.09,2.04.51.1,7.33.24,7.76.18,1.81-.26,6.4-3.54,6.57-5.54.12-1.39-.67-3.43-1.58-4.46-2.41-2.75-8.79-1.51-12.76-2.24-12.06-2.22-31.14-3.29-41.96-7.03-1.28-.44-7.23-3.1-8.09-3.7-1.62-1.14-3.15-5.55-3.2-7.54-.03-1.14,1.38-9.87,1.7-10.33.22-.31,1.92-.63,2.86-1.62,1.3-1.36,2.13-4.16,3.24-5.28,2.19-2.2,7.05-3.46,9.99-4.51,6.14-2.18,16.43-4.15,23.27-3.8,1.52.08,2.93,1.04,4.01,1.04,1.51,0,2.37-1.77,2.96-1.78.44,0,1.48,1.54,2.99,1.79,13.03,2.11,26.82,4.13,39.82,7.17,4.14.97,6.99,6.5,12.65,2.28,2.5-1.87,2.69-7.15.9-8.34-.58-.38-2.14.05-3.11-.34-6.46-2.6-12.42-6.51-19.72-6.82-.4-6.75,2.25-12.02,4.47-17.95,3.14-8.39,6.59-15.57,10.24-23.75.65-1.45.96-4.42,1.46-5.05.47-.59,2.68-1.05,3.83-2.67,5.59-7.86,11.77-16.5,20.27-21.73,3.83-2.36,17.21-8.82,21-7.64,1,.31,1.64,1.61,3.17,1.84,5.71.86,6.03-.07,11.46,3.54,4.75,3.15,7.84,7.37,8.83,13.17.51,2.98-.18,6.44-1.34,9.23-1.86,4.47-7.26,9.74-8.89,14.05ZM671.01,479.18c.65,1.25-1.6,3.49-1.99,3-.65-1.25,1.6-3.49,1.99-3ZM547,159.65c4.38-1.75,3.95-5.63,6.57-8.42,2.38-2.55,10.63-9.81,13.5-11.5,2.01-1.18,4.61-1.56,6.91-3.09,1.31-.87,2.34-2.9,3.7-3.3,2.12-.63,4.7.2,6.85-.14,1.68-.27,2.55-2.04,3.94-2,1.13.03,2.09.95,3.79.81,2.4-.2,7.45-2.86,9.11-2.65,2.99.38,6.91,2.05,11.29,2.45,3.65.34,10.7,2.35,14.66,3.56,1.96.6,2.13,2.63,5.69.82-2.79,5.08,5.46,6.43,8.52,8.98,1.65,1.37,2.42,3.73,3.49,4.51,2.54,1.85,8.57,1.13,9.07,6.48l3.92-.97c1.22,2.61-2.28,1.74-2,2.49.62,1.7,2.94,4.01,3.88,6.13,1.76,3.95,1.42,8.97,6.81,10.19,5.67,1.28,8.38-1.5,7.13-7.13-6.75-17.74-20.41-28.2-35.89-38.14-1.1-.7-2.88-2.02-3.2-2.21-2.77-1.64-7.3-3.36-10.44-4.12-13.54-3.3-34.69-5.52-47.85-.26-2.63,1.05-3.53,3.33-5.71,4.29-2,.89-3.97.54-5.78,1.22-4.13,1.57-10.53,5.41-13.05,9.04-.77,1.11-.07,2.18-.36,2.54-.19.24-2.79,1.81-4.48,3.5-3.46,3.45-6.62,4.29-7.87,10.14-1.21,5.64,2.43,8.93,7.79,6.79ZM629.01,127.18c.29,1.96-1.16,3.3-2.99,3v-1.99s2.99-1,2.99-1ZM411.48,147.14c3.23-5.07,4.54-7.66,9.62-11.43,1.57-1.16,2.88-2.23,4.51-3.43,2.79-2.05,9.18-2.75,8.47-7.02,8.6-.14,15.75-5.47,23.63-6.97,1.56-.3,3.1.83,4.77.91,6.08.29,19.69,2.29,24.82,5.18,3.01,1.7,4.52,6.57,8.76,8.33,1.4.58,2.69-.61,2.83-.45,3.52,3.81,13.8,14.48,15.63,18.98.64,1.57-.19,5.71,2.46,7.5,1.42.96,2.58-.27,3.56-.19,1.32.1,2.45,3.62,4.93-.41,1.86-3.03.63-10.92-.97-13.95-1.88-3.55-10.66-13.93-13.71-16.79-1.23-1.16-11.26-4.87-11.68-5.37-.38-.45.19-1.95-.28-2.64-.58-.86-8.23-6.08-9.84-6.71-15.38-6.07-37.55-6.43-52.68.3-13.38,5.96-26.05,16.42-33.59,27.95-.21.32-1.28.18-1.74.87-5.24,7.89,6.95,10.88,10.49,5.33ZM491.02,117.18v4s-.99,0-.99,0l-1-3.99h2ZM417.04,134.92c.68,0,1.24.55,1.24,1.24s-.55,1.24-1.24,1.24-1.24-.55-1.24-1.24.55-1.24,1.24-1.24ZM408.04,137.92c.68,0,1.24.55,1.24,1.24s-.55,1.24-1.24,1.24-1.24-.55-1.24-1.24.55-1.24,1.24-1.24ZM633.79,213.52c.09-1.23-.9-2.48-.83-3.83.02-.39,2.98-5.16,3.24-5.34.23-.16,4.76-1.12,5.42-1.17,6.51-.46,13.24,3.42,20.08,3.72,2.11.09,6.18-.96,8.56-.54,4.49.8,6.65,3.27,12.2,2.75,7.32-.68,10.48,2.15,17.1,3.06,2.83.39,4.74-1.11,6.88-1,1.54.08,6.27.82,7.9,1.18,5.43,1.18,11.91,6.8,14.17,11.85,1.43,3.21,2.28,4.94,2.95,7.96.8,3.57,2.33,5.72,5.22,7.86.59.44,4.63,2.85,5.03,2.97,3.95,1.16,8.03-.99,12.57.43,1.11.35,1.85,1.58,3.26,1.79,2.79.41,3.24-1.03,5-1.58,1.6-.5,2.84,1.04,4.94-2.5,1-1.68,1.9-10.48,1.43-12.27-.33-1.25-1.94-1.77-2.4-2.69-.67-1.34-.18-3.12-.66-3.83-.24-.35-1.81-.41-2.76-1.78-1.1-1.59.01-2.91-.56-4.31-1.06-2.61-3.33-3.31-4.53-4.78-2.1-2.58-3.21-7.97-6.95-9.79-.75-.36-1.89.62-2.99.04-1.41-.74-2.73-1.44-4.03-2.11-1.86-.96-1.56-3.08-5-1.44l1-2.99c-5.2.11-10.38.04-15.52-.48-6.85-.7-10.16-2.03-17.94-1.49-6.84.48-12.88-3.21-20.06-3.06-5.04.1-5.62-.61-9.94-1-3.25-.29-7.64,1.24-10.03.58-16.9-4.7-36.82-3.2-53.99-4.49-1.46-.11-2.31-1.76-4.01-2.06-4.15-.76-9.48,1.28-13.83.71-2.46-.32-4.9-2.72-6.14-2.7-1.18.02-2.36,1.08-3.96.99-3.39-.19-7.1-2.19-11.1-2.06-6.49.21-7.56-.08-13.92-.99-7.24-1.03-15.5-1.11-23.09-1.92-15.01-1.6-30.08-3.17-44.87-5.06-11.27-1.44-21.95-2.51-33.16-4.91-32.55-3.01-63.62-9.43-95.87-13.13-5.38-.62-13.14-2.71-18.06-2.99-2.86-.16-6.08,1.21-8.81.74-3.22-.56-6.75-2.5-10.19-2.74-5.14-.37-12.97,1.04-18,.98-2.32-.03-5.55-2.32-8,1.09-4.29,5.97.83,8.11,2.28,11.7.71,1.74,3.99,15.95,3.89,16.81-.07.64-1.2,1.29-1.42,2.16-.76,2.94,2.74,8.18,2.73,9.77,0,1.17-1.13,2.25-.87,3.85.24,1.47,2.02,2.95,2.65,4.43,1.48,3.5,1.31,8.38,4.23,9.93.97,8.18,9.13,14.49,14,20.89l3-1.55-1.07,3.45c1.3,1.17,2.66-.21,2.07,2.55-3.03-1.26-5.19,1.48-6.66,1.78-3.67.75-9.76-.94-12.76-.78-5.49.29-9.42,2.11-15.08,2.08-4.14-.02-9.76,1.02-14.03.87-1.51-.05-2.35-1.78-4.91-2.02-6.43-.59-12.87.47-19.12.99-6.78.56-5.8-.78-10.39-2.5-1.27-.47-3.22-.16-3.87-.61-.41-.28-1.22-3.32-2.67-3.83l-1,2c-3.03-.89-6.04-6.79-7.48-7.52-3.39-1.72-12.78-.61-14.55-3.46l.47-1.96c-2.58-1.83-3.92,1.02-5.29.84-1.23-.16-2.91-2.16-4.66-1.93l1.01-1.96c-2.07-.73-4.86.99-6.37.81-1.08-.13-2.16-1.42-3.34-1.68-2.39-.54-7.12,1.35-9.73,1.93-2.02-4.98-3.86-2.47-7.25-2.34-11.18.43-20.38.13-31.59,3.51-13.13,3.95-24.17,10.85-35.08,17.7-.72.45-.9,1.66-1.71,2.51-.45.47-1.53.4-1.86.72-.42.41.49,1.62.48,2.32-.07,4.33-2.39,1.38-3.58,2-2.05,1.06-4.33,5.99-5.98,8.03-2.2,2.74-6.43,5.91-7.56,9.43-1.3,4.04.18,2.5-2.44,5.74-3.23,3.99-6.86,17.66-7.07,22.84-.09,2.3,1.29,4.28,1.13,5.97-.14,1.53-1.61,2.2-1.91,3.21-.48,1.56,3.11,11.64,3.58,15,.17,1.23-.89,2.17-.3,4.33,1.62,5.89,6.07,6.88,8.09,10.99.64,1.31.42,2.58.56,3.95l2.94.05-1.01,2.99,5-1.99c-.45,2.24-4.14,1.12-2.89,4.38.27.72,1.69,2.21,2.36,2.67,1.7,1.17,4.99,2.41,6.53,3.46,1.19.81.52,3.5,4.01,2.49l-1.01,2.99c3.78,1.07,6.02,2.31,10.01,1.01l-2,2.99,4.89-.93c-.21,2.42,2.57,2.59,2.95,3.09.35.47.2,5,.61,6.9.94,4.43,4.18,6.06,5.11,8.89.88,2.7.85,5.49,2.45,8.05,3.69.86.62-4.3,3.99-5,.44,1.01-1.74,2.78-.38,3.02.97.17,1.63-.59,1.38.97l-2.99,1.5c2.14,2.92,3.46,7.44,5.96,10.03,1.79,1.86,10.84,10.44,12.48,11.52,1.96,1.3,4.34.92,5.91,1.89,1.57.97,5.49,5.63,7.26,6.94,3.95,2.94,13.73,6.68,18.68,9.32,7.76,4.14,14.06,3.6,20.98,6.02,2.05.72,3.41,2.34,6.27,2.72,5.36.72,6.68-.86,12.2.81,11.42,3.44,24.12,2.35,35.78,3.21,2.69.2,5.25,1.45,7.87,1.95l3.6-4.91-.99,5c2.04.52,2.49-1.98,4.31-1.85,1.93.13,4.77,2.45,6.35,2.7,1.68.27,3.2-2.09,4.69-1.73.9.22,1.6,1.8,3.17,1.94,1.64.14,3.2-1.2,4.94-1.1,3.35.2,6.06,2.41,12.08,2.07,11.4-.64,19.44.56,30.97,1.49,5.75.46,10.73,2.1,15.96,2.5,2.73.21,5.37-.66,7.6-.5,3.23.23,5.55,2.47,8.66,3.25,3.91.98,8.13-.14,10.57.35,2.11.43,4.46,3.33,7.43,3.72,1.72.22,2.99-.99,4.57-.72,18.67,3.23,34.58,7.19,53.77,8.4,2.83.18,5.8,2.08,8.47,2.44,9.01,1.19,20.98.88,29.99.2,5.23-.4,9.79.08,14.97-.06,2.52-.07,3.87-1.74,6.02-2.07,4.51-.68,10.12.02,14.78-.34,11.38-.88,16.37-1.92,26.66-6.22.6-.25,2.29-2.4,3.01-1.41.31.43-.47,2.04.53,1.95.51-.47.95-1.14,1.57-1.44,13.69-6.4,27.56-12.54,38.66-22.84,5.34-4.95,11.61-12.17,14.31-19.19,1.31-3.39,2.38-6.86,1.96-10.54-2.06-.32-3.3.41-4.5,2l-.99-2.02c-.99-.04-1.68-.11-2.55.48-1.13.75-3.9,8.85-5.91,11.09-3.52,3.89-16.53,14.21-21.08,16.92-1.36.81-3.2.81-4.34,1.5-.73.44-.36,1.6-1.3,2.02-4.61,2.02-7.22,2.72-11.74,3.03-3.56.25-16.86,6.51-21.27,7.8-2.35.69-6.43.19-8.37.71-3.7.99-7.78,3.55-12.44,3.55-2.52,0-7.44-1.94-10.03-1.7-1.06.1-6.04,3.5-8,3.38-.97-.06-1.94-2.41-3.09-2.67-1.1-.24-3.09,1.64-4.89,1.9-3.96.57-7.59-1.14-10.88-.94-8.48.53-8.45.03-16.15-.99-7.51-1-14.75.86-22.73-1.27-1.95-.52-4.48-2.44-6.4-2.59-1.77-.14-2.86,1.76-4.63,1.62-2.31-.18-4.46-2.62-6.21-2.85-4.05-.54-3.17.8-9.02-.92-3.33-.98-6.28.18-8.69-.23-2.35-.4-4.27-2.38-5.41-2.62-1.27-.27-5.12,1.54-6.89,1.43-1.25-.08-3.62-1.74-5.42-2.15-7.2-1.66-11.58-1.96-18.55-2.4-6.22-.39-7.62-2.57-15.18-2.34-6.87.21-12.57-1.67-19.61-2.05-13.38-.71-26.34-1.43-39.17-2.7-6.26-.62-16.26.3-23.06.1-3.82-.11-7.8.16-10.99.02-2.64-.12-5.2-2.74-8.96-3.12-5.13-.52-12.86,1.54-16.83.9-2.19-.35-9.89-4.44-12.02-3.74-2.23.73-2.02,2.14-6.02.85-.59-.19-.77-2.55-4.41-2.8-1.82-.13-3.29,1.07-4.58.73-2.12-.56-2.75-4.6-7.97-2.03-9.73-6.67-21.2-10.3-30.68-17.39,3.72-2.48,5.19-6.35,7.53-9.46,1.13-1.5,2.85-2.57,3.92-4.08,1.56-2.21,1.98-5.46,3.05-6.95.68-.95,2.44-1.41,3.53-2.47.8-.78,1.07-2.52,1.93-3.07.59-.38,4.67-1.07,5.55-1.03,2.49.11,3.97,2.15,5.13,2.39.97.19,2.37-.9,3.79-.84,7.12.33,13.11,2.26,21.04,1.98,4.67-.16,7.86.74,12,1.07,2.94.23,7.36-.65,9.88.12,1.11.34,1.7,1.71,2.72,2.33.83.5,2.11.3,2.71.75.19.14,2.65,3.58,2.77,3.81.57,1.11-.38,2.19-.04,2.98.7,1.61,3.7,2.71,4.94,4.02,2.49,2.61,3.94,6.36,6.21,9.24,2.31,2.92,4.51,7.12,8.82,7.27,2.22.08,10.01-1.54,11.54-3.04,1.05-1.03.82-2.57,1.49-3.51.74-1.04,2.3-.97,3.31-2.69,1.54-2.61,1.86-7.56,3.11-9.69.5-.84,2.13-1.16,3.09-2.09,2.97-2.89,3.66-4.39,4.02-8.51,4.03-.58,7.42,1.32,11.48.99,5.29-.43,11.22-1.66,16.92-2.03,12.18-.79,26.07-.46,38-2.05,6.35-.85,3.35-1.38,10.26-.16,6.95,1.22,7.26-2.6,10.84-2.81,2.95-.17,6.71,2.12,10.77.84,5.43-1.71,6.47-.42,12.22-.78,1.72-.11,3.17-1,4.87-1.11,1.37.12,3.85,9.16,4.79,9.89.64.49,2.22.26,3.86,1.64,1.98,1.67,2.39,4.21,3.92,6.07,1.24,1.52,3.12,2.02,3.75,2.75,6.17,7.23,6.87,13.47,18.74,11.7,6.08-.9,4.36-4.47,6.01-6.99.53-.81,2.15-1.06,2.98-2.02,4.94-5.75,9.37-14.97,13.69-21.31,1.87-2.73,4.27-5.18,5.81-8.19,5.9-1.4,12.11-1.87,18.01-2.93,2.34-.42,5.45-2.19,6.67-2.32,7-.74,17.16-.18,21.92-6.27,7.83,3.67,13.2-6.16,21.13-5.67l11.98-9.17,15.79,2.94c4.27-2.47,9.05-1.86,13.55-3.52,2.76-1.02,9.95-6.08,11.45-8.54,2.71-4.44-.02-9.52-5.47-8.55-4.66.83-6.24,4.21-9.98,6.1-3.6,1.82-9.49,3.95-13.46,3.44-4.7-.6-12.37-3.05-16.45-5.55-1.11-.68-7.65-5.22-7.93-5.62-.45-.65-.04-1.9-.2-2.74l-5.96-.05,4.99-2.49c-.91-2.58-2.79-3.17-5.55-3.45-3.05-.3-5.84,0-6.24,3.6-.09.75,3.66,10.39,4.34,11.32.76,1.05,2.27,1.21,3.03,1.99,1.77,1.83,1.61,4.17,5.45,4.04.18,1.19.03,1.81-1.03,2.46-1.28.78-6.82,4.03-7.68,4.32-4.19,1.39-15.71,6.71-17.99,7.09-2.68.44-5.85-.63-10.34.59-9.16,2.49-18.31,4.72-27.71,6.29-8.12,1.36-16.08,2.54-24.26,3.25.94,2.65.75,3.28-1.5,5l.5-4c-2.49.66-5.19-.77-7.31-.72-4.82.09-12.17,2.68-17.19,2.64-9.65-.06-16.07,2.12-25.01,2.61-5.01.27-10.33,1.44-14.01,1.55-2.16.06-3.99-1.18-5.76-.92-6.7,1-6.2,2.09-14.2,1.81-9.93-.35-19.66,2.47-29,2-8.79-.44-15.26,1.77-23.04,2.11-2.3.1-4.04-1.13-5.99-1.14-2.31-.02-5.01,1.57-7.29,1.85-5.13.61-12.33.33-17.54-.06-17.28-1.31-37.12-.28-53.97-2.03-5.47-.57-7.51.17-12.38-1.44-1.73-.57-9.07.99-11.71.73-5.7-.55-13.25-3.04-19.15-3.94-6.59-1.01-13.65,1.53-19.16-2.39-.31-.22-.21-1.22-.93-1.67-1.32-.83-6.57-.74-8.92-.92-7.21-.55-15.83-.63-22.69-3.31-2.03-.79-4.12-3.09-6.43-3.57-1.91-.39-3.96.14-5.66-.34-1.76-.5-2.44-3.53-4.59-2.78l-.08,1.89c-2.58.69-1.63-.74-2.51-1.88-1.31-1.68-3.53-5.11-4.94-6.17-1.75-1.3-2.66.19-4.03-.82-1.68-1.24-11.63-15.06-12.09-17.08-.57-2.51.4-5.12-1.42-8.01l-2.99,1.01c-1.47-4.53,1.2-7.66.79-11.87l-1.87-.68c.55-4.49,3.02-11.8,3.14-15.97.05-1.84-1.11-4-.94-4.87.25-1.23,8.43-9.06,9.34-12.56.23-.88-.41-1.9-.05-3.06,1.02-3.32,3.8-3.51,5.6-5.47,1.58-1.72,3.7-5.82,5.24-7.26,1.34-1.25,4.6-2.15,5.81-3.71.89-1.16.65-2.67,1.15-3.34.77-1.02,6.27-4.08,7.75-2.21-.65-3.54,6.57-7.74,9.54-8.55,5.48-1.49,10.95-2.55,16.54-3.9,4.8-1.17,3.08-1.2,8.44-1.48,2.83-.15,7.34-2,10.01-1.99,13.85.03,26.66,2.76,39.45,7.46,6.56,2.41,13.11,4.95,19.02,8.98,3.35,2.28,7.62,4.41,10.06,6.92.92.94,1.28,2.53,2.43,3.59,1.71,1.58,5.44,2.25,6.34,3.16.81.82.9,3.24,2.67,4.83,1.26,1.14,4.27,1.9,4.41,2.1.41.61-.14,2.52,1.07,4.43.65,1.02,2.96,2.8,4.06,3.94,1.32,1.37,1.75,4.03,4.47,4.11,5.46.16,8.07-1.52,5.31-6.9-1.28-2.49-3.37-2.44-3.65-2.85-.78-1.15,1.01-4.74-2.18-6.35-.98-.49-2.67-.38-2.89-.58-.56-.51,1.13-4.34-2.5-4.95l-3.57-4.98c1.88.44,3.86-.53,5.5-.53,5.71,0,8.54,1.08,15.06.59,7.49-.56,15.47,2.77,22.99-.02,6.76-2.51,4.4-1.43,10.92-1.02,5.96.38,14-1.07,19.83-2.24,2.03-.41,3.96-1.97,6.16-1.82,1.94.13,9.99,4.69,12.51,5.56,17.14,5.89,36.07,5.96,53.05-.02,3.39-1.19,11.67-5.43,14.5-7.5,2.3-1.68,9.26-9.82,11.49-12.51,3.87-4.66,15.68-20.3,16.81-25.19.35-1.53-.06-3.22.35-4.65,1.04-3.66,9.02-5.22,12.37-4.69,2.45.38,1.78,1.76,2.75,2.75.67.68,1.95.42,2.56,1.93,1.91,4.74,1.06,7.38,1.49,11.65.65,6.34,3.36,15.2,5.62,21.25,1.22,3.26,4.44,6.32,4.05,10.45l3.99-2c.62,1.98-2.32,2.84-1.96,4.41.09.38,4.16,5.33,4.92,6.16.84.91,2.46,1.18,2.82,1.66.46.6.35,2.09,1.17,3.31,3.35,4.97,21.17,16.1,27.01,18,2.1.69,6.63.43,6.86.68,1.84,2.02.9,1.9,4.77,2.69,11.92,2.43,22.8,2.99,34.83,1.02,22.43-3.67,35.91-11.03,51.3-27.2.64-.68,8.99-14.78,9.51-16.07,1.79-4.45,6.24-18.16,6.54-22.32ZM754.04,233.92c.68,0,1.24.55,1.24,1.24s-.55,1.24-1.24,1.24-1.24-.55-1.24-1.24.55-1.24,1.24-1.24ZM731.02,207.18v3h-3c-.3-1.83,1.04-3.28,3-3ZM308.02,178.18c-.65-1.25,1.6-3.49,1.99-3,.65,1.25-1.6,3.49-1.99,3ZM319.04,158.39c-.68,0-1.24-.55-1.24-1.24s.55-1.24,1.24-1.24,1.24.55,1.24,1.24-.55,1.24-1.24,1.24ZM323.04,207.39c-.68,0-1.24-.55-1.24-1.24s.55-1.24,1.24-1.24,1.24.55,1.24,1.24-.55,1.24-1.24,1.24ZM94.02,285.17c-.49-.39,1.75-2.65,3-1.99.49.39-1.75,2.65-3,1.99ZM606.01,409.18c.29,1.96-1.17,3.3-3,3l3-3ZM602.01,410.18c.65,1.25-1.6,3.49-1.99,3-.65-1.25,1.6-3.49,1.99-3ZM589.02,423.18c-.38.81-3.69,6.4-5,4.99-1.05-1.13,3.85-6.05,5-4.99ZM550.01,444.18c.65,1.25-1.6,3.49-1.99,3-.65-1.25,1.6-3.49,1.99-3ZM379.02,441.18v2h-3c-.49-.4,1.75-2.65,3-2ZM348.04,432.92c.68,0,1.24.55,1.24,1.24s-.55,1.24-1.24,1.24-1.24-.55-1.24-1.24.55-1.24,1.24-1.24ZM311.04,430.92c.68,0,1.24.55,1.24,1.24s-.55,1.24-1.24,1.24-1.24-.55-1.24-1.24.55-1.24,1.24-1.24ZM273.01,429.18c.65,1.25-1.6,3.49-1.99,3-.65-1.25,1.6-3.49,1.99-3ZM264.04,427.92c.68,0,1.24.55,1.24,1.24s-.55,1.24-1.24,1.24-1.24-.55-1.24-1.24.55-1.24,1.24-1.24ZM244.02,425.18c.49.39-1.75,2.65-3,1.99-.49-.39,1.75-2.65,3-1.99ZM211.04,418.92c.68,0,1.24.55,1.24,1.24s-.55,1.24-1.24,1.24-1.24-.55-1.24-1.24.55-1.24,1.24-1.24ZM180.02,411.18h3c.69.55-3.76,4.33-3,0ZM572.02,333.18c.49.39-1.75,2.65-3,1.99-.49-.39,1.75-2.65,3-1.99ZM436.02,387.17l3-3c.29,1.96-1.17,3.3-3,3ZM464.01,355.18c.65,1.25-1.6,3.49-1.99,3-.65-1.25,1.6-3.49,1.99-3ZM439.6,366.19c8.34,1.26,16.91-1.35,25.42-1.01.6.56-1.33,3.76-1.81,4.68-1.4,2.69-12.37,19.98-13.78,20.28-4.67-1.3-6.25-5.63-8.97-8.94-1.69-2.06-1.78-2.21-3.38-4.56-1.57-2.3-5.3-5.39-7.05-7.96l9.58-2.49ZM356.01,364.18c.25,1.87,0,3.47-1.99,4-.25-1.87,0-3.47,1.99-4ZM270.01,395.17h-.99c-.26-1.84.02-3.48,1.99-4l-1,4ZM279.02,369.68c.54-.52,1.63-1.91,1.99-1.51v4l-1.99-1.51v-.99ZM266.52,376.17c2.8-.34,6.11.15,9.03.04,1.54-.06,2.84-.96,4.05-1.03,3.19-.17,7.89,2.44,11.42,1.99.2,2.56-2.67,3.58-3.87,5.62-.81,1.37-.9,3.04-1.67,4.32-1.6,2.64-4.27,4.5-6.04,7.01-4.45-.23-3-3.35-4.93-5.95-1.11-1.5-2.76-1.6-3.54-2.67-1.15-1.59-1.47-5.02-2.45-6.37-.77-1.06-2.21-.76-2.5-.98-.08-.06-.41-1.88.5-1.99ZM212.04,366.92c.68,0,1.24.55,1.24,1.24s-.55,1.24-1.24,1.24-1.24-.55-1.24-1.24.55-1.24,1.24-1.24ZM148.52,389.17c-2.75,0-.03-4.52,1.5-2.99.59.59-.87,2.99-1.5,2.99ZM168.02,404.18h3c.69.55-3.76,4.33-3,0ZM173.04,392.39c-.68,0-1.24-.55-1.24-1.24s.55-1.24,1.24-1.24,1.24.55,1.24,1.24-.55,1.24-1.24,1.24ZM179.02,382.17l-3,1c-.29-1.96,1.16-3.3,2.99-3v1.99ZM152.77,365c6.19.54,9.65,1.18,15.79,2.13,2.44.38,11.67-.82,10.04,4.08-.72,2.15-4.4,7.72-5.94,9.65-1.7,2.14-6.81,6.54-9.13,8.32-.87.66-.99,1.36-2.5.99-.33-4.1-5.43-5.38-7.49-8.02-3.16-7.02-8.63-12.37-10.52-19.98.43-.42,7.97,2.66,9.75,2.82ZM158.02,224.17c-.49-.39,1.75-2.65,3-1.99.49.39-1.75,2.65-3,1.99ZM180.04,222.39c-.68,0-1.24-.55-1.24-1.24s.55-1.24,1.24-1.24,1.24.55,1.24,1.24-.55,1.24-1.24,1.24ZM184.51,219.17h-.99c-.52-.54-1.91-1.63-1.51-1.99h4l-1.51,1.99ZM199.02,224.18v-3s1.99,0,1.99,0c.65,1.25-1.6,3.49-1.99,3ZM240.02,240.18c-.65-1.25,1.6-3.49,1.99-3,.65,1.25-1.6,3.49-1.99,3ZM407.02,222.18c.49.39-1.75,2.65-3,1.99-.49-.39,1.75-2.65,3-1.99ZM375.04,170.92c.68,0,1.24.55,1.24,1.24s-.55,1.24-1.24,1.24-1.24-.55-1.24-1.24.55-1.24,1.24-1.24ZM343.76,179.93l1.01,1.01-4,4-1.01-1.01,4-4ZM335.02,191.17l3-3c.29,1.96-1.17,3.3-3,3ZM351.02,209.17c.25-1.36,3.17-3.82,4-2.99v1.99s-4,1-4,1ZM353.51,202.17c-3.49,3.24-4.55,6.55-9.94,5.96-6.89-.76-7.98-6.05-4.45-11.35,1.47-2.2,3.56-1.8,4.66-2.84,3.2-3.02,6.25-8.53,9.21-11.29,3.26-3.04,11.68-8.53,15.84-5.3.23.18,2.21,4.78,2.2,5.33-.01.72-4.32,8.6-4.99,9.02-1.24.78-3.08.11-3.86.63-.3.2-4.57,4.52-5.01,4.99-.17.19.88,1.27-.05,2.36-.9,1.06-2.59,1.52-3.61,2.47ZM360.04,230.39c-.68,0-1.24-.55-1.24-1.24s.55-1.24,1.24-1.24,1.24.55,1.24,1.24-.55,1.24-1.24,1.24ZM369.02,222.18c-.38-2.4.47-4.24,3-4,.24.2-2.39,4.74-3,4ZM387.56,197.22c-3.68,3.68-5.78,5.11-9.28,8.22-1.77,1.57-4.83,4.75-6.79,6.71-1.21,1.21-1.79,3.16-2.92,4.08-5.39,4.39-13.49-.52-11.03-7.12,1.57-4.2,6.1-6.07,9.01-8.9,2.14-2.08,3.96-5.22,7-7.02,2.93-4.13,7.38-7.35,11.47-10.5,8.09-1.84,13.76,1.43,8.45,9.44-1.6,2.41-4.17,3.33-5.92,5.08ZM394.02,233.18c-.65-1.25,1.6-3.49,1.99-3,.65,1.25-1.6,3.49-1.99,3ZM393.78,201.93l-1.01-1.01,4-4,1.01,1.01-4,4ZM397.02,182.18h3c.69.55-3.76,4.33-3,0ZM401.04,238.39c-.68,0-1.24-.55-1.24-1.24s.55-1.24,1.24-1.24,1.24.55,1.24,1.24-.55,1.24-1.24,1.24ZM403.02,243.18l4-1c-1.15,2.6-4.57,4.88-4,1ZM404.02,241.17c-.49-.39,1.75-2.65,3-1.99.49.39-1.75,2.65-3,1.99ZM408.04,235.39c-.68,0-1.24-.55-1.24-1.24s.55-1.24,1.24-1.24,1.24.55,1.24,1.24-.55,1.24-1.24,1.24ZM418.04,213.39c-.68,0-1.24-.55-1.24-1.24s.55-1.24,1.24-1.24,1.24.55,1.24,1.24-.55,1.24-1.24,1.24ZM422.02,231.17c-.49-.39,1.75-2.65,3-1.99.49.39-1.75,2.65-3,1.99ZM431.01,230.17h-.99v-4h.99v4ZM428.02,215.17c-.49-.39,1.75-2.65,3-1.99.49.39-1.75,2.65-3,1.99ZM452.01,185.18c-.66-.6-3.22-.99-2.99-1.5,1.09-2.42,3.3-.97,2.99,1.5ZM478.01,206.17h-.99s0-3,0-3h2s-1,3-1,3ZM481.02,175.18c-.65-1.25,1.6-3.49,1.99-3,.65,1.25-1.6,3.49-1.99,3ZM492.01,242.18l-1.99-1.5c.54-.52,1.62-1.9,1.99-1.5v3ZM501.02,236.17v-1.99s2.99-1,2.99-1c.29,1.96-1.16,3.3-2.99,3ZM505.78,205.93l-1.01-1.01,4-4,1.01,1.01-4,4ZM523.04,257.39c-.68,0-1.24-.55-1.24-1.24s.55-1.24,1.24-1.24,1.24.55,1.24,1.24-.55,1.24-1.24,1.24ZM531.05,219.71c-2.69,2.61-6.44,5.36-9.06,7.94-1.22,1.2-1.63,3.79-3.62,4.38-2.48.74-4.95-.17-7.27-.93.1-2.64-.76-6.59.41-8.92.92-1.85,3.44-2.33,4.27-3.22.78-.83.95-2.86,2.22-4.29,4.69-5.24,10.08-9.26,15.04-13.96,1.5-1.42,2.12-3.36,3.44-4.56,6.17-5.66,14.75-2.88,12.05,6.05-5.94,5.71-11.56,11.78-17.48,17.52ZM542.04,264.39c-.68,0-1.24-.55-1.24-1.24s.55-1.24,1.24-1.24,1.24.55,1.24,1.24-.55,1.24-1.24,1.24ZM567.02,272.18h3c.69.55-3.76,4.33-3,0ZM574.05,209.71c-1.09,1.2-2.83,1.73-4.06,2.94-1.98,1.94-3.79,4.86-5.24,6.25-1.2,1.15-3.95,1.83-5.21,3.29-3.24,3.79-1.25,2.6-6.06,5.94-3.16,2.2-7.91,9.66-11.48,12.51-.67.53-3.87,2.22-4.48,2.22-.63,0-4.66-2.09-5.04-2.66-.74-1.11-.59-3.19-.49-4.56.87-12.1,12.98-13.94,18.3-23.21l16.72-13.78c7.17-2.64,12.07,5.54,7.05,11.04ZM592.02,252.18c.49.39-1.75,2.65-3,1.99-.49-.39,1.75-2.65,3-1.99ZM589.01,221.18c.65,1.25-1.6,3.49-1.99,3-.65-1.25,1.6-3.49,1.99-3ZM587.02,267.17c-.49-.39,1.75-2.65,3-1.99.49.39-1.75,2.65-3,1.99ZM591.02,264.18c-.31-1.83,1.03-3.29,3-3l-3,3ZM611.02,222.17l3-3c.31,1.83-1.03,3.29-3,3ZM611.02,216.17c-.49-.39,1.75-2.65,3-1.99.49.39-1.75,2.65-3,1.99ZM622.02,220.18c-.65-1.25,1.6-3.49,1.99-3,.65,1.25-1.6,3.49-1.99,3ZM625.02,193.17v-3s.99,0,.99,0l1,2.99h-2ZM761,275.65c-8.72-3.26-17.73-7.55-27.48-7.56-3.52,0-7.13,2.02-10.52,1.66-1.88-1.32-3.9-11.24-5.18-13.87-1.04-2.13-3.42-3.15-4.35-5.66-.86-2.34-.39-3.82-2.63-5.8-.27-.24-1.74.95-2.32-.16-3.51-6.74.3-6.87,4.21-10.42.3-.27.27-1.01.6-1.33.74-.73,2.2-.71,2.59-1.93,2.12-6.55-4.78-9.68-9.43-5.44-2.09,1.9-3.69,7.64-7.5,5.58-1.44-.78-1.94-3.47-2.93-4.08-1.78-1.1-3.76.72-4.64-2.48l-4.41.46c-5.55,3.66,8.39,16.63,10.47,19.61,1.26,1.81,7.56,10.95,8.03,11.94.44.92-.86,2.54,1.03,5.01,1.14,1.48,3.12,1.9,3.31,2.19.16.25,1.9,5.19,1.96,5.48.16.84-.72,1.85-.59,2.7.17,1.06,2.2,2.49,2.62,4.33.56,2.5-.18,5.12.37,7.63.5,2.28,2.74,5.36,3.55,8.46,2.46,9.46,3.03,19.38,3.73,28.73.64,8.53,1.4,16.84,1.47,25,.04,4.93,1.07,2.51-.68,8.18-1.06,3.42-.28,8.54-2.3,14.76-1.12,3.44-2.46,6.98,0,10.14,1.78,1.27,10.36-.93,11.03-3.1.6-1.96.07-2.89-1.98-2.48v-.99s3.57-.97,3.57-.97c-.07-2.94-.02-5.38,3.46-3.56,1.26.66,1.81,3.13,3.97,2.53.41-2.29,1.7-6.08,3.28-7.73,1.9-1.99,9.19-4.66,3.45-7.49-1.42-.7-5-2.22-6.41-2.6-3.07-.82-5.47,1.02-5.39-4.68.02-1.48,1-2.77,1-4.01,0-1.19-.93-2.53-.99-4-.18-4.39,2.99-2.94,5.8-4.27,7.91-3.74,19.47-14.41,25.71-20.27,2.9-2.72,10.2-8.88,12.03-12,.85-1.46,2.62-7.8,2.54-9.39-.19-3.69-5.02-11.96-8.28-13.78-1.53-.86-6.88-4.12-7.69-4.38-1.78-.58-3.06.44-4.04.07ZM691.02,230.17c-.49-.39,1.75-2.65,3-1.99.49.39-1.75,2.65-3,1.99ZM713,266.78l-1.99-.6,1.37-4.49,1.99.6-1.37,4.49ZM745.52,275.19l1.49,1.49-1.49,1.49-1.49-1.49,1.49-1.49ZM727.52,369.17l-1.5-2.48,3-1.5c.23,1.85.05,2.91-1.5,3.99ZM773.04,294.92c.68,0,1.24.55,1.24,1.24s-.55,1.24-1.24,1.24-1.24-.55-1.24-1.24.55-1.24,1.24-1.24ZM759.56,306.21c-1.29,1.18-4.04,1.72-4.36,2.15-.47.63,0,2.11-1.17,3.31-3.22,3.33-10.45,7.66-14.52,10.49-1.83,1.27-2.41,3.77-5.49,3,1.4-4.61-1.65-8.94-2-12.58-.71-7.4-.91-15.26-3.24-22.66-.3-.97-1.4-1.66-1.62-2.46-.13-.47.4-5.3.77-5.8,4.17-5.61,6.87-2.1,11.87-.77,3.98,1.06,8.25.94,11.77,2.23,2.02.75,10.27,4.86,11.99,6.01,3.99,2.65,2.35,4.5,3.31,8.42-2.77,2.14-5.08,6.61-7.3,8.65ZM143.2,268.86c-.56,1.91-.5,11.74.3,13.33.73,1.44,4.38,5.03,6.06,3.11l.45,1.87,2.99-1.99v3c5.33-.22,14.21-1.53,16.8-6.71,2.67-5.35,2.55-12.34-1.77-16.82-5.61-5.82-22.33-4.44-24.84,4.21ZM156.04,271.39c-.68,0-1.24-.55-1.24-1.24s.55-1.24,1.24-1.24,1.24.55,1.24,1.24-.55,1.24-1.24,1.24ZM225.69,284.94c.17-.23,1.92-4,1.95-4.23.2-1.87-1.78-9.46-2.94-11.26-.18-.27-.93-.3-1.29-.66-.38-.38-.4-1.17-.64-1.31-1.52-.87-7.57-2.85-9.25-2.84-3.59,0-5.04,1.86-7.54,3.01-1.44.66-3.63.32-4.5,1.5-1.62,2.19-3.02,10.71-2.5,13.45.15.81,1.56.45,1.8.77.54.74.11,2.48.73,3.82,1.26,2.68,6.21,3.25,8.12,5.85,4.38-.45,11.69-1.34,14.49-5.35.82-1.17-.07-2.1.15-2.32.22-.23,1.17-.08,1.43-.42ZM214.02,281.17c-.49-.39,1.75-2.65,3-1.99.49.39-1.75,2.65-3,1.99Z"/>
  </g>
</svg>