<?xml version="1.0" encoding="UTF-8"?>
<svg id="Capa_2" data-name="Capa 2" xmlns="http://www.w3.org/2000/svg" viewBox="0 0 990.4 924.89">
  <g id="Capa_1-2" data-name="Capa 1">
    <g>
      <path d="M860.1,312.26c17.57,2.73,36.29,7.41,52.35,15.15,28.97,13.96,33.2,28.88,17.06,56.78-11.51,19.9-30.24,36.6-47.4,51.58,22.04,8.63,44.96,16.47,63.88,31.1,9.89,7.65,20.85,17.79,19.87,31.58-1.91,26.95-47.77,63.26-70.14,75.94-.97.51-1.68,1.16-1.69,2.36,0,2.33,13.81,11.95,16.58,14.49,60.9,55.74,92.75,145.18,74.79,226.84-16.21,73.73-72.11,119.5-149.33,103.69-59.7-12.22-108.36-59.55-142.38-107.62-8.29-11.71-21.01-37.52-29.06-45.94-3.1-3.25-11.56-7.03-15.87-10.13-25.87-18.58-46.07-43.65-53.81-75.19-7.83-31.88-1.29-73.15,36.89-78.86,3.01-16.83,13.37-30.73,31.24-32.78-9.66-21.92-33.04-64.21-9.47-83.96,27.48-23.03,58.61,20.01,70.49,40.97,1.39.33,1.64-.2,2.51-.97,3.77-3.32,7.5-9.21,12-13,14.54-12.22,40.62-23.48,55.44-5.5,17.1,20.74-7.21,48.65-14.74,69.21-2.64,7.21-5.85,18.16-6.27,25.72-.7,12.73,6.86,22.99,9.74,35.34,1.73,7.39.99,19.49,2.5,24.5,1.06,3.51,27.09,28.79,31.78,33.22,13.03,12.3,27.09,23.69,40.66,35.4,1.67.3,12.71-11.4,14.33-13.44,4.61-5.79,13.55-27.98,22.6-21.55,5.46,3.88.01,12.38-2.4,16.74-5.61,10.12-14.11,19.6-22.15,27.86l-.02,1.45c4.76,3,18.03,12.74,18.05,18.52.02,9.71-9.34,6.23-14.53,2.48-17.89-12.94-38.95-32.38-55.54-47.46-11.82-10.75-23.03-22.37-34.5-33.51-2.24-.34-1.15.41-1.49,1.47-1.58,4.87-3.07,13.66-10.25,12.37-10.32-1.86-1.55-19.15-.87-26.47,3.19-34.42-19.2-70.84-36.07-99.68-10.34-17.67-38.38-65.33-55.48-73.52-18.52-8.86-24.29,8.74-21.02,24.02,6.08,28.46,27,59.31,39.24,85.75,2.73,8.22-3.29,15.01-10.59,8.59-6.06-5.33-12.26-26.7-16.56-29.44-8.71-5.56-19.54,4.25-22.59,12.22-3.68,9.6-2.74,16.97-.32,26.69,1.28,5.14,9.94,21.94-.99,21.92-8.5-.01-12.05-18.85-13.54-25.39-1.83-8-13.88,1.47-16.93,4.99-23.34,26.99-2.66,76.8,17.94,100,12.85,14.47,24.6,18.8,38.35,29.65,8.2,6.47,24.1,37.11,31.86,48.14,30.86,43.86,75.98,89.31,129.8,102.2,77.31,18.51,128.69-30.72,139.88-104.15,11.05-72.58-18.87-152.03-72.85-200.88-6.09-5.51-19.83-13.62-22.08-20.92-11.59-94.94-23.49-191.85-46.23-284.77-10.29-42.03-26.35-96.51-50.89-132.11-2.07-3-11.41-13.26-11.79-15.21-1.62-8.19,5.59-12.99,11.93-7.92,3.2,2.56,12.75,16.36,15.46,20.53,7.26,11.17,12.79,23.46,18.57,35.43,21.89,1.35,61.93,1.94,77.91,19.09s-4.23,52.38-14.48,69.31l-19.41,27.08ZM848.1,300.26c1.6,1.45,9.29-8.65,10.41-10.08,9.34-11.94,27.35-41.62,27.61-56.46s-25.8-18.63-36.66-20.32c-4.41-.69-24.84-3.06-27.36-1.12,10.79,28.61,19.48,58.09,26.01,87.99ZM872.1,423.26l13.01-9.48c12.07-11.78,42.29-41,38.94-58.97-1.23-6.61-14.54-13.1-20.28-15.72-15.06-6.88-31.96-10.59-48.15-13.8l16.48,97.97ZM891.1,559.26c1.09,1.28,22.29-14.25,24.47-16.02,9.76-7.93,37.54-34.22,36.32-47.24-.82-8.73-15.48-19.14-22.49-23.55-16.02-10.07-34.18-17-52.3-22.19l14,108.99ZM762.09,588.26c1.32-9.34,5.26-18.79,9.15-27.35,5.12-11.27,25.3-37.87,7.75-46.04-6.12-2.85-9.25-1.5-15.15.63-12.29,4.44-23.11,15.36-29.61,26.49l25.05,44.6,2.82,1.67Z"/>
      <path d="M709.86,374.53c9.06-1.11,19.61,3.17,26.25,9.23,2.34,2.14,7.07,9.56,9.49,9.55,14.07-12.41,37.98-16.15,50.5.47,23.63,31.37-25.26,75.73-50.7,89.3-16.41,8.75-19.07,6.65-30.7-6.9-15.11-17.6-34.03-49.6-31.59-73.39,1.44-13.99,12.65-26.53,26.75-28.25ZM737.37,409.99c-1.3-1.33-3.5-7.4-5.45-10.05-8.76-11.95-27.33-18.38-33.3-.64-6.14,18.24,9.51,44.32,20.08,58.86,2.15,2.96,10.94,14.9,13.94,15.16,18.81-8.81,53.97-36.51,55.45-58.57.92-13.72-10.31-21.29-22.97-16.95-8.14,2.79-10.45,7.48-15.96,12.04-3.24,2.68-8.74,3.28-11.79.16Z"/>
      <path d="M571.85,746.03c-2.71,2.31-29.09,6.62-34.27,7.22-27.76,3.23-88.97,2.31-113.87-10.1-2.63-1.31-6.31-5.9-2.68-8.44,3.09-2.17,19.2,3.39,23.86,4.27,32.12,6.04,66.08,7.51,98.58,3.17,5.45-.73,22.63-5.34,26.07-4.89,4.18.54,4.57,6.86,2.31,8.78Z"/>
      <path d="M827.86,442.42c4.22-.43,6.88,4.41,3.16,8.27-1.65,1.71-18.52,11.49-20.89,12.12-3.83,1.01-8.17-.12-6.88-4.82.62-2.26,21.72-15.27,24.61-15.57Z"/>
      <path d="M806.36,495.01c-2.51-3.61.53-8.33,4.99-7.58,1.13.19,19.33,9.93,20.3,10.79,2.29,2.02,2.58,7.43-1.07,8.09-6.36,1.13-17.79-9.36-24.21-11.29Z"/>
      <path d="M835.85,479.03c-1.12,1.11-3.65,1.15-5.21,1.28-4.48.38-16.83.09-20.89-1.19-2.53-.8-2.19-5.42-.24-6.95,1.8-1.41,21.03-2.48,24.1-1.91,3.55.66,4.56,6.46,2.25,8.76Z"/>
      <g>
        <path d="M214.1,282.27c-.41,1.52.4,1.66.98,2.51,4.64,6.73,12.51,13.01,17.42,20.58,3.24,4.99,12.29,19.63,1.85,21.73-7.59,1.53-8.58-6.08-11.85-10.74-57.93-82.79-167.03-65.29-200.44,27.4-29.13,80.83,29.78,112.09,100.48,115.56,107.76,5.28,268.32-22.91,367.51-65.57,34.54-14.85,71.44-34.21,92.97-65.98-5.45-4.88-18.57-8.31-15.73-17.78.45-1.5,3.3-3.85,4.76-4.29,4.77-1.46,10.65,4.77,15.02,7.11,8,4.27,18.39,7.22,27.48,7.52,5.1.17,15.32-2.88,18.6.4,5,5.01.21,12.25-5.79,13.32-9.94,1.78-20.43.13-30.33-1.29-22.89,37.98-65.71,58.8-104.95,76.01-4.26,14.31-6.29,29.62-12.8,43.2-16.69,34.82-44.06-.75-56.87-18.75-40.21,11.21-81.11,19.84-122.12,27.28-3.28,13.48-14.04,50.96-30.77,51.72-16.38.75-34.17-29.81-42.08-41.77-26.51,1.35-53.04,4.28-79.71,3.96l-1.15.85c-3.78,10.83-7.71,22.7-13.31,32.69-3.03,5.4-6.89,12.53-13.16,14.35l.62,2.06c24.54,15.29,53.52,21.97,82,25.79,72.45,9.71,154.89,2.17,226.56-11.19,50.67-9.44,112.79-25.5,157.12-51.88,5.71-3.4,20.21-15.15,24.68-16.38,8.53-2.34,10.16,6.29,4.53,12.59-12.52,14-51.21,31.71-69.25,38.75-49.73,19.4-102.64,29.65-155.19,38.32-.78,1.15,5.92,19.06,6.84,22.49,15.8,58.74,1.43,99.79-9.45,156.4-6.63,34.5-13.39,69.34-15.47,104.53-.48,8.18,1.01,18.15-.07,25.92-1.28,9.22-12.04,9.03-13.7-.17-1.81-10.06-.07-30.85.77-41.75,4.34-56.05,20.66-110.19,28.98-165.51-11.32,12.31-20.71,27.8-29.16,42.33-27.63,47.5-46.89,99.6-60.06,152.94-3.25,6.33-12.58,5.09-12.87-2.75-.38-10,10.21-41.29,13.83-52.29,19.49-59.23,49.57-118.47,90.07-165.93.43-16.37-2.08-33.38-6.51-49.08-1.07-3.8-7.08-22.19-8.78-24.21-1.11-1.32-2.46-1.1-3.96-1.04-10.43.44-22.39,3.14-33.06,4.03-62.65,5.21-175.44,7.26-227.81-31.18-6.37-4.67-14.98-12.52-18.23-19.77-1.25-2.78-1.19-5.68-2.22-7.78-6.52-13.29-14.13-25.96-17.22-40.78-62.17-16.59-87.52-65.93-65.03-127.01,28.58-77.61,118.4-120.81,190.44-69.56,33.41-5,66.54-12.9,98.1-24.9,4.55-1.73,19.69-7.03,22.46-9.54s-4.87-7.46-6.94-10c-18.76-22.91-27.29-56.69-29.02-85.98-.64-10.9-1.53-21.01,10.77-24.21,8.97-2.33,25.8-2.59,35.73-3.27,67.5-4.61,135.37-6.14,202.98-10.02,75.98-4.36,148.89-10.79,225.05-8.03,13.5.49,34.08.79,46.88,3.12,15.04,2.74,23.77,18.72,29.44,31.56,3.59,8.12,10.87,24.7-1.11,29.6-17.99,7.37-16.72-28.17-34.69-32.8-3.2-.82-7.17-.64-10.51-1.49l-81.53.56c-1.61,1.28-3.34,3.14-3.81,5.19-1.46,6.52-.28,18.65-1.33,26.67-3.59,27.49-14.71,51.11-36.41,68.59-54.44,43.86-144.06,27.33-166.19-42.76-1.98-6.26-3.61-22.31-5.86-26.14-3.2-5.43-13.17-5.2-17.39-1.54-4.94,4.29-3.29,12.61-4.16,17.84-10.51,63.31-61.28,99.19-124.42,77.66-3.99-1.36-8.94-5.42-12.86-5.04-2.67.26-15.24,7.09-19.35,8.74-32.24,12.98-65.86,22.68-100.25,28.26ZM585.83,120.44c-1.93.4-3.45,1.94-4.73,3.33-8.95,9.76-29.83,38.94-36.42,50.58-5.57,9.84.54,15.43,9.83,9.83l38.42-52.57c3.45-5.95.08-12.66-7.11-11.17ZM569.33,205.03c2.02,2.02,9.31,2.04,10.74-1.28l49.88-68.12c4.56-8.95-6.05-14.96-13.27-6.28-16.68,20.07-30.84,45.11-47.45,65.55-1.61,2.21-1.71,8.32.1,10.13ZM368.81,134.47c-5.14,1.54-32.49,44.71-38.96,51.06-3.25,7.44,6.75,13.48,12.25,7.24,11.72-17.73,26.67-33.6,36.98-52.08.33-5.45-5.72-7.58-10.27-6.22ZM406.85,139.45c-3.33.3-5.62,3.08-7.72,5.35-15.76,16.99-28.12,41.6-43.85,59.15-6.39,8.92,1.99,16.5,10.37,10.37l47.53-64.46c3.19-4.5-1.22-10.85-6.32-10.4ZM437.1,428.28c-.65.86,3.19,5.39,4.02,6.46,2.97,3.83,15.53,18.6,20.26,17.39,5.91-1.51,12.47-30.45,13.7-36.86l-37.99,13.01ZM284.09,463.27l-40.02,5.53c2.6,6.21,18.05,28.14,24.49,27.49,3.18-.32,5.1-5.17,6.4-7.67,1.38-2.68,10.12-24.43,9.14-25.35ZM131.09,474.27l-42-4c1.74,7.64,15.12,40.22,23.53,39.97,6.13-.18,17.52-29.62,18.47-35.98Z"/>
        <path d="M702.4,62.96c-2.95-2.7-8.04-12.44-11.79-16.71-27.81-31.62-68.97-37.67-98.49-4.46-3.09,3.48-12.39,18.57-13.74,19.51-2.87,2-7,2.14-9.81-.03-8.37-6.44,5.72-25.42,10.55-31.48,27.85-34.99,76.31-40.03,110.44-10.5,7.81,6.76,29.87,31.21,25.01,41.96-2.02,4.47-8.68,4.9-12.18,1.7Z"/>
        <path d="M516.84,67.01c-7.47,8.08-16.34-6.46-21.27-10.72-28.32-24.47-64.08-15.95-86.98,10.96-4.78,5.61-10.03,19.26-18.53,16.58-12.56-3.96,3.46-25.28,8.07-31.04,27.22-34.03,77.66-42.77,109.49-9.54,4.74,4.95,15.31,17.19,9.23,23.76Z"/>
      </g>
      <g>
        <path d="M407.34,832.51c1.13-1.13,3.42-1.27,4.99-1.06,6.26.83,17.44,5.62,24.75,7.33,52.54,12.32,108.28,12.17,161.22,2.19,4.82-.91,20.31-6.24,23.39-3.8,1.95,1.54,1.93,4.84.49,6.69-2.11,2.71-26.92,8.13-31.9,9.09-50.25,9.67-112.31,8.19-161.6-5.76-4.46-1.26-22.08-5.82-22.6-10.45.07-1.32.34-3.29,1.26-4.22Z"/>
        <path d="M151.87,331.52c28.87-3.88,27.74,48.9-2.82,43.29-21.78-4-19.1-40.34,2.82-43.29Z"/>
        <path d="M69.84,331.5c7.45-1.19,14.62,2.87,18.28,9.24,11.47,19.96-9.99,45.55-29.05,30.05-13.2-10.74-6.01-36.6,10.76-39.29Z"/>
      </g>
    </g>
  </g>
</svg>