<?xml version="1.0" encoding="UTF-8"?>
<svg id="Capa_1" xmlns="http://www.w3.org/2000/svg" version="1.1" viewBox="0 0 923.4 647.9">
  <style>
    svg { fill: #314fff; }
    #_x31_, #_x32_, #_x33_ { opacity: 0; }
    #_x31_ { animation: cocoFrame 1.2s linear infinite 0s; }
    #_x32_ { animation: cocoFrame 1.2s linear infinite 0.4s; }
    #_x33_ { animation: cocoFrame 1.2s linear infinite 0.8s; }
    @keyframes cocoFrame {
      0%, 33.33%   { opacity: 1; }
      33.34%, 100% { opacity: 0; }
    }
  </style>
  <!-- Generator: Adobe Illustrator 29.4.0, SVG Export Plug-In . SVG Version: 2.1.0 Build 152)  -->
  <g id="_x31_">
    <g>
      <path d="M403.9,239.08c35.79-6.13,24.89,51.91,4.91,61.6-16.65,8.08-24.75-10.95-24.41-24.41.29-11.37,6.15-34.91,19.5-37.2Z"/>
      <path d="M459.73,243.57c-1.69,2-4.66,2.24-6.94,1.25-3.74-1.62-9.15-16.05-12.22-20.64-2.71-4.06-12.03-12.96-16-16.04-19.27-14.91-54.85-9.47-71.86,6.87-2.55,2.45-9.84,10.13-11.87,12.77-2.85,3.7-5.83,12.88-12.79,8.67-6.9-4.17,4.13-17.59,7.44-21.42,31.64-36.73,88.63-38.61,116.95,3.03,3.71,5.45,12.31,19.55,7.29,25.5Z"/>
      <path d="M589.63,259.67c3.7-.26,14.05-.4,14.95,4.27,2.22,11.49-8.53,8.03-15.79,8.86-9.69,1.11-21.63,6.04-29.83,11.25-16.77,10.66,1.53,6.49,9.1,6.56,8.4.08,28.38,2.77,35.15,7.57,3.15,2.23,5.93,7.14,1.67,9.62-3.2,1.86-10.2-1.96-14.23-2.81-15.53-3.26-33.88-2.6-49.55-.19-5.53.85-27.22,8.7-19.66-5.7,10.2-19.42,46.73-37.94,68.19-39.44Z"/>
      <g>
        <path d="M795.95,239.78c-13.08,2.01-23.48,1.28-30.67-10.83l-5.4-11.43c.05,7.14-1.29,14.14-3.31,20.93,2.87,5.52,16.53,19.15,9.03,24.64-6.38,4.68-8.84-7.81-11.63-12.15-5.57-8.68-7.86-5.29-13.2-9.58-5.65-4.54-5.07-13.04-7.38-19.14-4.13-10.92-15.47-33.22-24.44-40.47-7.74-6.26-21.44-13.29-31.47-10.88-7.62,1.83-10.76,13.07-10.49,19.98.49,12.78,10.67,19.47,16.3,28.89,12.34,20.62,8.34,39.7,13.52,61.25,4.14,17.2,27.23,39.89,40.86,51.16,4.45,3.68,17.66,11.26,18.6,15.99.67,3.38-2.61,7.79-5.99,8.06-1.6.13-3.26-1.99-5.2-1.46.74,3.72,1.69,7.44,2.37,11.18.32,1.78-.25,3.86.24,5.51s2.84,2.06,3.86,3.53c.8,1.15,2.57,6.64,2.52,8.05-.23,5.55-5.51,7.41-6.35,10.11-1.67,5.35-1.2,28.66-11.91,25.56-6.82-1.97-2.01-13.03-1.51-17.62,1.83-16.77.38-45.52-7.26-60.75-2.01-4-9-8.12-12.38-11.45-14.18-13.98-27.68-29.39-31.81-49.53-1.37-6.66-1.2-13.91-2.7-20.31-1.88-1.18-3.7-2.4-5.75-3.28-2.54-1.1-11.15-4.09-13.59-4.48-8.69-1.36-18.11,5.7-26.17-2.6-4.27-4.4-8.98-12.03-13.19-16.39-3.96-4.1-23.21-19.34-28.01-19.65-2.98-.19-10.97,2.65-14.84,3.15-11.4,1.48-22.97.57-34.32-.81-2.5-.3-5.62-2.01-7.6-2.12-8.45-.48-31.65,14.81-37.71,21.07-4.34,4.49-10.08,18.04-17.64,14.41-6.75-3.24,1.67-14.27,4.51-17.67,8.89-10.63,20.24-18.71,32.45-25.05-3.96-3.81-9.01-6.28-13.14-9.85-12.63-10.92-22.55-27.22-27.76-42.9-3.45-10.39.2-22.77-15.48-24-10.94-.86-10.18,3.8-14.75,10.55-9.46,13.98-27.07,27.03-43.26,32.33-33.23,10.88-83.06,3.29-101.01-30.07-6.4-11.89-14.37-43.34-15.46-56.85-1.1-13.7,2.36-18.14,16-17.64,14.79.54,35.15,3.81,49.76,6.93,105.13,22.44,211,42.36,316.29,64.12,10.91,2.26,21.71,5.13,32.53,7.77l1.56-.77c11.85-39.41,61.63-34.71,87.89-12.31,4.33,3.69,7.32,8.48,11.64,12.14,12.61-5.05,27.6-4.52,38.1,4.67,7.2,6.3,14.2,18.72,16.34,28.02,10.35,2.78,17.3,6.05,24.33,14.29,17.88,20.95,17.19,46.24,8.64,71.1-10.22,29.7-32.06,80.25-63.92,90.55-5.77,1.86-21.64,6.4-17-4.68,9.6-6.18,21.63-11.55,29.96-19.33,15.17-14.16,41.11-69.1,43.49-89.61,1.49-12.84-2.01-30.13-11.13-39.72-1.15-1.21-8.09-6.74-9.31-7.12-10.2-3.16-27.74,7.43-35.39,14-9.01,7.75-29.83,32.95-9.84,39.44,7.14,2.32,13.5.26,20.02-2.97,5.63-2.79,9.96-9.33,16.35-7.93,3.44.75,3.65,3.71,3.04,6.79-.59,2.98-8.97,8.83-11.74,10.44-12.39,7.2-28.42,10.25-40.75,1.01-4.79-3.59-7.11-8.47-8.36-14.23ZM357.88,98.52l-33.5,22.43c-5.36,5.09-1.33,11.5,5.75,9.02,9.18-7.54,21.42-13.67,30-21.76,1.47-1.39,3.97-3.07,3.76-5.27-.21-2.17-3.87-4.74-6.01-4.42ZM382.52,107.58l-38.41,28.97c-5.73,5.91-.11,12.01,6.88,7.69,8.57-5.3,28.58-20.64,35.5-27.76,3.05-3.14,4.04-5.35.38-8.66-1.38-.67-2.89-.57-4.34-.24ZM760.69,207.65c1.63-14.53,8.18-30.05,17.28-41.47,2.04-2.56,12.78-11.37,12.19-13.79-1.91-2.4-3.37-5.66-5.29-7.94-12.4-14.68-43.62-22.29-59.77-10.61-4.22,3.05-11.15,9.97-9.44,15.7l26.55,27.7c4.37,3.38,10.84,3.3,14.4,7.79,2.63,3.31,2.87,10.53,3.11,14.81.11,1.97-2.1,6.23.97,7.8ZM567.41,136.37c-1.17-1.17-4.82-1.4-6.36-.59-4.13,3.53-8.71,6.78-13.23,9.77-6.6,4.35-19.72,11.28-24.87,16.21-4.61,4.42-1.54,10.68,4.6,9.57l39.26-27.33c1.79-1.65,2.3-5.94.6-7.63ZM587.94,142.87c-2.08.38-18.67,14.86-22.04,17.47-5.29,4.11-16.02,10.14-20.06,14.45-4.94,5.28-.49,10.89,6.13,8.58,3.14-1.1,16.79-11.98,20.5-14.82s20.17-15.53,21.08-18.38c1.27-3.98-1.21-8.12-5.61-7.31ZM788.92,173.44c-6.4,6.49-15.51,25.52-15.91,34.66-.29,6.78,2.27,18.4,10.26,19.29,14.83,1.66,22.58-17.99,32.04-27.15,3.72-3.6,10.19-8.96,14.47-11.82,8.15-5.44,16.65-4.58,12.04-16.3-4.44-11.28-15.98-20.27-28.52-15.8-8.11,2.89-18.4,11.05-24.38,17.11ZM661.24,166.62c-4.09-1.05-15.19-7.68-16.42-.46-.27,1.61.32,1.04,1.07,1.43,3.56,1.83,8.74,2.44,12.43,4.67l2.92-5.64ZM655.41,178.19c-3.83-.42-12.39-6.05-15.47-4.64-1.79.82-8.44,11.39-10.69,14-3.18,3.7-7.44,6.96-10.69,10.67l-10.68,8.2c8.1,6.14,16.58,11.71,23.42,19.31,2.31,2.57,8.69,12.46,11.1,13.55,3.21,1.46,6.96-.92,10.26-1.21,8.89-.77,17.82,1.17,25.47,5.72,2.18-.09.03-5.12-.4-6.16-6.14-15.09-21.36-25.45-23.02-41.89-.6-5.94.96-11.66.7-17.54Z"/>
        <path d="M740.98,299.68c1.2-4.45,6.41-5.09,7.8-9.84,1.67,1.25,1.06,1.28.26,2.7-1.62,2.89-5.66,4.81-8.06,7.14Z"/>
      </g>
      <g>
        <path d="M130.66,456.46c4.39,2.77,8.37,6.4,13.08,8.69,36.48,17.74,82.91,15.01,122.71,14.44,8.15-.12,14.8,1.5,22.18,1.72,4.76.14,8.61-1.67,12.36-1.67,4.04,0,10.4,2.49,14.8,2.46,2.59-.02,4.84-1.76,8.2-1.72,2.95.04,6.09,1.47,9.06,1.69,10.79.82,24.04-.28,34.27,1.88,9.57,2.02,12.64,3.92,23.23,4.87,18.92,1.7,37.62,4.51,56.6,6.5,4.39.46,9.59,2.78,14.06,3.19,11.99,1.09,33.52-1.83,45.43-3.85,15.52-2.64,35.86-6.06,50.27-12.17,4.14-1.76,13.41-8.97,16.1-9.42,5.53-.93,7.41,4.32,4.46,8.62-1.31,1.92-3.64,2.62-4.95,4.08-7.21,8.04-19.61,18.94-30.53,22.05-14.76,4.21-28.22,6.88-43.82,7.94-18.43,1.26-34.47.12-52.57-1.64-25.39-2.48-48.56-4.58-73.71-9.27-16.31-3.04-32.33-6.09-48.79-7.91-45.02-4.98-91.04-.93-136.24-6.72-35.78-4.59-78.89-26.25-95.94-59.35-1.72-3.33-5.03-14.24-6.46-15.73-1.12-1.17-9.2-4.1-11.73-5.52-53.12-29.89-37.86-97.57,4.43-130,43.35-33.24,99.43-30.97,141.7,2.76,19.41-.92,38.9,1.88,58.29.85,9.23-.49,21.83-1.89,31.1-3.41,4.66-.76,15.95-5.5,18.98-1.47,3.36,4.48-.34,9.06-4.7,10.82-12.47,5.04-23.69,3.77-36.32,4.76-5.94.47-12.98,3.13-18.89,3.32-5.56.17-16.65-1.3-22.94-1.77-4.33-.33-9.73-3.96-13.63.56-.27,1.26,13.76,16.93,15.8,20.28s4.09,8.58-.41,10.69c-7.18,3.38-13.56-11.89-17.06-16.24-25.58-31.79-64.73-49.28-105.53-38.99-32.41,8.17-70.02,43.49-71.1,78.42-.81,26.18,16.7,46.55,40.89,54.4,13.82,4.48,28.38,4.72,42.25,7.87,5.85,1.33,11.5,1.55,17.5,2.06,74.6,6.32,147.42-.3,221.85-7.22,43.26-4.02,87.06-7.42,129.62-15.81,3.65-.72,19.28-7.25,21.55-9.67.55-.58,1.4-.92,1.18-1.95-4.6-4.04-16.93-16.66-12.33-23.17,4.59-4.11,8.29-1.34,11.56,2.53s6.06,9.42,10.92,12.08c1.88,1.03,14.83,5.9,16.8,6.21,5.2.81,17.58-1.99,16.64,7.11-.45,4.39-5.06,5.27-8.75,5.35-4.52.11-16.56-2.93-19.37-2.24-2.12.51-9.52,6.61-12.39,8.21-18.14,10.12-34.39,11.26-54.48,14.54-3.89.64-10.55.09-14.07,1.54-3.3,1.36-7.46,10.73-9.71,14.12-4.53,6.81-9.38,13.52-14.18,20.33-3.22,4.55-3.89,9.62-11.86,7.46-4.71-1.28-21.44-19.39-25.23-24.06-3.33-4.1-4.67-10.88-11.12-11.13-4.57-.18-12.34,1.34-17.25,1.69-27.32,1.93-54.75,4.14-82.15,6.59-5.68.51-11.3,2.09-17.11,1.79-4.46,1.33-13.73,29.06-20.89,32.52-8.5,4.1-13.14-2.15-18.32-7.6-6.18-6.5-11.93-14.43-16.38-22.24l-2.02-1.26c-11.96-2.37-24.19-.95-36.25-1.55-9.78-.48-19.65-2.55-29.53-2.48-3.66.71-7.07,8.49-9.11,11.43-2.06,2.96-12.06,15.42-10.07,18.8ZM435.16,414.13c-6.63.29-15.1.47-21.53,1.47-4.34.68-5.79,1.63-3.49,5.81,1.3,2.37,15.38,20.12,16.68,20.34,5.59-3.25,7.84-11.27,10.95-16.81,3.59-6.4,11.19-11.42-2.61-10.82ZM134.51,423.84c-4.85-2.31-10.5-2.05-15.81-2.66-4.03-.46-7.47-2.88-11.82-.53-.42.33-.65,1.3-.65,1.85.04,2.62,6.24,13.49,8.01,16.28,7.01,11.07,7.11,8.34,13.33-1.14,1.41-2.14,7.99-12.11,6.94-13.8ZM258.66,429.53c-.79-1.17-19.63-1.1-22.61-.89-3.81.26-5.85.47-3.68,4.58,2.01,3.8,8.03,13.25,10.81,16.29.97,1.06,1.85,2.09,3.46,2.04,1.09-.5,1.88-1.42,2.51-2.41,1.77-2.75,8.2-14.44,9.16-17.14.29-.81.54-1.6.34-2.47ZM135.43,466.47c1.56-1.99-7.24-9.55-9.85-9.03-1.39,1.27,8.86,8.11,9.85,9.03Z"/>
        <path d="M116.39,312.2c17.92-1.29,20.01,26,3.76,27.69-20.22,2.1-21.92-26.38-3.76-27.69Z"/>
        <path d="M180.45,315.48c20.37-2.54,20.17,30.89-.69,26.56-15.19-3.16-15.16-24.58.69-26.56Z"/>
      </g>
    </g>
  </g>
  <g id="_x32_">
    <g>
      <path d="M603.35,502.89l-12.08,9.07,2,1.49c-1.56,3.81-15.82,7.84-20.14,8.56-.8-.62,8.16-8.88,9.05-9.41.74-.43,2.23-.14,3.36-.75,5.7-3.08,11.9-6.78,17.81-8.97Z"/>
      <path d="M621.48,462.58l1-4.02-2.84,3.36,2.81,4.15-9.02,10.62c-1.06-3.32,2.41-7.59,2.7-9.74s-1.59-3.02.24-5.92c2.81-4.45,7.85-3.98,9.22-5,.83-.62.01-2.18.89-2.98,1.51-1.39,5.36-2.44,7.08-4.56,1.27,1.56-8.05,14.82-12.08,14.09Z"/>
      <path d="M642.62,371.94c.71.71-5.18,7.49-6.07,8.53-4.87,5.73-12.22,16.09-20.12,14.62,1.5-1.71,5.42-6.84,7.11-7.59,3.69-1.64,4.88,2.62,6.37-6.54l12.71-9.03Z"/>
      <path d="M482.47,262.15c-1.35,1.31-12.04,17.24-14.1,15.09l7.11-11.51,6.98-3.58Z"/>
      <path d="M533.84,530.08l-7.56,2.01c-4.47-1.81-8.42-.52-12.61-.42-1.53.04-2.49.48-3-1.59h23.17Z"/>
      <g>
        <path d="M183.68,346.15c-.56.25-.02,2.32-3.79,1.57-1.03-.21-11.01-4.95-11.68-5.52-1.52-1.32-1.18-5.5-2.1-7.79-.29-.73-1.92-.77-2-1.39-.06-.49,2.28-9.05,2.55-9.46.25-.37,6.91-4.11,7.73-4.36,20.56-6.32,29.64,17.75,9.28,26.95Z"/>
        <path d="M128.59,333.37c-2.17.69-1.76,2.99-3.15,4.34-4.84,4.68-12.65,5.02-18.57,2.37-4.93-2.21-7.03-7.82-6.1-12.93.25-1.35,1.36-2.26,1.67-3.36,1.37-4.99.78-7.96,7.91-9.22,16.35-2.87,19.23,3.91,18.25,18.79Z"/>
        <path d="M504.63,479.72c-4.21,5.04-12.44,2.37-18.13,3.01-1.54-1.33,4.96-4.72,5.73-4.83,1.61-.23,8.45,4.9,12.39,1.82Z"/>
        <path d="M539.89,410.22c-3.18,2.93-9.61,10.32-13.33,11.36-1.55.44-1.39,1.03-2.76-.79l1.72-2.58,14.37-7.99Z"/>
        <path d="M200.43,381c-.21,6.99-5.63,3.68-10.07,3.01.04-1.04,4.21-2.6,4.82-2.72,1.77-.37,3.47-.43,5.25-.28Z"/>
        <path d="M194.04,273.58c3.6,1.87,16.9,11.39,19.95,11.77,18.19-1.16,40.75,3.5,58.51,1.02,2.35-.33,3.59-1.79,5.94-2.12,7.92-1.11,18.78.49,27.2-1.01,5.23-.93,22.68-13.64,21.8.56-.43,6.92-8.18,6.46-12.35,7.86-5.31,1.78-10.51,4.36-16.4,4.79-10.32.74-21.28,0-31.33.84-1.88.16-.97,1.95-2.9,2.2-8.36,1.05-14.07-1.23-21.17-2.15-5.03-.65-12.19,1.25-17.68.06-.38.34,3.94,8.45,4.29,8.79.79.78,3.68.6,5.36,2.23.27.26,4.06,5.02,4.45,5.56,2.71,3.73,3.76,7.3,2.88,11.99l-.79,1.21c-10.26,3.1-11.98-8.48-16.62-13.71-15.27-17.22-28.67-25.6-49.19-34.43-1.94-.83-3.01-3.02-5.48-3.58-3.48-.8-26.01-2.87-28.81-2.2-.76.18-.62,1.78-1.39,1.97-2.79.67-6.92-.63-9.7.04-.78.19-.63,1.84-1.38,2.01-2.6.59-5.71-1.46-8.78-1s-22.19,8.13-25.48,9.85c-5.98,3.12-9.87,8.16-14.91,12.31-.96.79-3.18.65-4.75,1.96-5.93,4.92-10.39,14.68-13.96,21.41-5.24,9.89-8.92,19.93-10.82,31.72-.13.8,1.78,13.97,2.18,15.77,1.64,7.4,6.97,10.68,8.14,13.7.36.93-.48,2.34-.15,3.29,1.13,3.21,3.78,4.76,6.43,6.66,12.98,9.28,30.68,16.51,47.26,19.22,4.63.76,9.82-.15,14.92,1.19,3.14.83,5.97,3.37,9.24,3.85,4.22.62,8.12-1.35,10.93-.94,1.52.22,2.63,1.76,4.16,1.98,14.92,2.07,30.76,2.63,45.48,2.28,6.52-.15,17.71,3.54,24.85,2.85.73-.07.63-1.88,1.85-2.39,6.5-2.69,10.17,2.16,16.46,1.38,3.54-.44,5.44-3.18,9.98-3.09,7.39.14,7.07,3.73,17.87,1.74,10.65-1.96,16.16-1.15,26.55-1.83,1.74-.11,6.57-2.48,10.04-2.89,12.35-1.45,24.32-2.29,36.33-3.91,44.36-6,89.82-4.73,132.67-14.44,4.14-.94,11.87-3.88,15.57-4.76,10.18-2.42,21.97-4.16,31.39-9.72,1.06-.63,3.32-2.57,3.05-3.84-5.18-2.87-5.39-6.36-8-10.2-1.08-1.58-3.85-3.06-4.52-4.54-2.78-6.14.75-10.64,7.08-10.96.42-.02.39,1.37.75,1.52,1.73.68,3.41.21,4.68,1.96,1.48,2.04.63,6.14,2.35,8.23.38.46,9.13,6.5,9.86,6.75,12.16,4.21,15.76,5.06,28.6,4.55,5.59-.22,12.69,1.34,10.41,8.42-.95,2.97-8.66,5.05-11.67,5.45-7.08.95-20.48-3.12-24.54-2.22-2.01.45-3.69,3.22-5.56,4.35-9.57,5.76-19.29,9.79-29.76,13.56l-43.94,7.92c-.45,5.31-4.08,7.99-6.08,11.55-3.97,7.05-8.16,15.76-12.8,22.45-3.21,4.62-7.39,8.01-13.26,7.74-1.34-2.25-4.04-2.55-6.22-4.23-3.2-2.47-18.57-16.45-20.81-19.48-1.72-2.32-2.38-8.76-5.93-9.2-3.17-.4-7.75.08-11.16.12-24.02.24-49.78,3.83-74.38,6.12-3.86.36-8.97,2.71-12.3,2.81-2.75.08-5.66-1.42-9.03-1.01-1.92.24-.98,1.94-2.9,2.18-3.32.42-7.16-1.38-9-1.14-.68.09-.52,1.87-1.31,2.05-5.81,1.35-6.5-1.82-10.1,5.85-3.07,6.52-4.36,8.79-8.21,14.96-3.12,5.01-3.55,11.6-10.7,12.46-5.24.63-8.79.1-12.65-3.51-4.8-4.49-12.65-14.4-16.37-19.94-2.07-3.09-1.69-7.84-6.71-9.36-5.36-1.63-15.57-.02-21.76-.44-3.67-.25-7.47-1.91-9.97-2.07-9.93-.63-20.2-.48-30.16-1.03-4.89,10.05-11.27,21.05-19.74,28.77l15.93,11.49c13.65,6.45,25.54,12.06,40.97,13.18,5.77.42,12.76-.75,18.19-.07,1.93.24.96,1.93,2.89,2.17,13.8,1.74,32.6-2.08,46.45-1.13,11.28.78,12.7.84,24.1,0s23.4,3.22,33.35,2.12c27.6-3.05,52.79,2.81,80.47,5.61,4.17.42,10.79-.38,13.95.38,6.24,1.5,11.49,1.82,18.28,3.09,4.32.81,15.84,6.14,19.22,6.02s5.13-3.09,10.99-2.02c11.63,2.12,22.42,2.16,34.31,2.06,4.07-.03,5.31-2.94,9.06-3.19,4.61-.31,10.68,2.26,15.89,1.04.7-.16.66-1.61,1.5-1.88,16.3-5.21,36.31-8.75,50.08-19.23,4.86-3.7,9.32-11.5,15.23-12.03,9.79-.89,7.08,11.32,1.91,16.08-1.46,1.34-3.63,1.57-5.01,3.04-1.91,2.03-3.64,6.71-6.38,9.02-3.37,2.84-7.26,3.07-10.23,5.6-1.65,1.41-2.83,4.38-4.08,4.98-1.76.85-4.13.28-6.1.96-2.73.94-5.87,4.85-7.72,5.37-2.58.73-5.71-.1-8.62.45-2.39.45-5.92,3.29-7.45,3.48-1.71.22-3.68-1.14-5.71-.72-5.19,1.08-11.61,2.28-18.17,3.18-16.92,2.32-24.58,1.83-41.43-.14-6.86-.8-8.49,1.75-11.02,2.1-14.47,2-30.56-6.52-43.49-8.01-4.83-.56-8.07,1.02-11.93.93-5-.12-11.16-2.03-16.66-1.06l3.01-1.99c-5.08-3.2-10.04-.87-14.37-1.24-4.68-.4-6.35-1.68-13.19-1.86-4.16-.11-5.23-3.78-8.37-3.69-2.21.06-3.74,1.89-6.83,1.79-2.56-.08-4.76-1.74-7.17-2-21.77-2.3-42.5-.2-64.33-3.16-16.13-2.18-35.41.17-51.49-1.88-1.97-.25-1.03-2.15-2.91-2.21-12.61-.37-28.27,1.91-41.38.16-3.24-.43-6.48-3.52-9.15-3.77-2.97-.28-3.41,1.32-7.83-.41-5.57-2.18-12.95-9.82-16.14-11.1-4.16-1.66-4.75-.81-9.22-4.28-11.48-8.9-17.96-13.05-25.35-26.58-3.64-6.67-7.85-13.53-11.25-20.18-1.16-2.26-1.6-6.64-3.55-8.32-3.44-1.87-8.11-3.1-11.33-4.77-10.73-5.56-19.59-9.69-27.53-18.85-3.89-4.49-7.71-10.16-9.78-16.38-5.81-17.44-4.03-41.25,3.24-58.67,6.4-15.32,15.39-22.19,25.3-34.23,1.23-1.5.59-2.91,2.31-4.56,3.52-3.37,7.03-2.71,10.75-4.44,5.77-2.69,5.86-9,11.5-10.52,1.3-.35,2.45.52,3.35.38,2.53-.4,13.64-3.85,18.04-5.13,7.57-2.19,31.54-5.36,39.89-3.27,7.55,1.89,11.64,1.44,18.36,2.79,5.22,1.05,15.73,6.39,20.75,8.99ZM432.82,442.15c.46-.43,7.12-9.61,7.41-10.24.67-1.45.05-2.96.68-4.24,1-2.04,5.89-8.07,4.82-9.43-3.09-1.59-7.72-2.48-11.15-2.05-2.23.28-3.54,1.85-5.04,2.03-3.42.39-17.66-.55-18.44,3.72-.66,3.61,5.47,6.02,6.94,7.88,1.35,1.71,1.32,4.19,2.96,6.11.62.73,8.43,6.76,9.09,6.98.97.38,2.03-.1,2.74-.76ZM136.81,428.48c-4.58-2.79-8.75-1.55-13.32-2.27-5.72-.91-20.62-6.57-14.51,5.48,1.38,2.73,4.24,6.71,6.05,10.03.74,1.36.59,3.33,1.35,4.69,1.22,2.2,4.04,2.53,5,5.14,4.59-.29,10.18-11.41,12.14-15.07,1.31-2.45,5.03-3.6,3.28-8ZM253.35,441c1.43-3.38,4.28-4.99-.17-7.49-4.18-2.34-6.01-.11-9.9-.09s-15.24-1.84-16.6,2.62c-.93,3.07,3.86,5.54,4.99,7.17,2.44,3.5,8.27,16.34,13.89,13.11,1.9-3.25,4.11-6.43,5.79-9.82.55-1.12,1.25-3.71,2.01-5.51Z"/>
      </g>
      <path d="M570.38,275.48c-.24.1-.23,1.35-1.06,1.68-6.8,2.75-19.48,5.75-20.36,14.18,2.84-1.07,7.04.49,9.38.02.82-.16.24-1.86,2.13-2.11,12.32-1.64,30.81.77,41.24,6.25,10.31,5.41,2.16,16.12-8.03,10.99-3.4-1.71-2.09-3.32-8.09-3.94-15.28-1.57-32.98.04-47.95,3.17-6.73,1.41-14.15,6.82-21,2.08-2.19-4.29-.43-6.58,2.12-9.88,2.38-3.08,9.48-10.03,12.54-12.64,19.52-16.63,33.05-21.79,58.39-25.22,3.4-.46,12.38-5.03,14.47,1.77,3.28,10.66-12.09,8.44-18.21,9.61-2.03.39-14.45,3.56-15.57,4.04Z"/>
      <g>
        <path d="M834.01,276.24c-1.93,9.47-11.54,13.14-20.13,14.09l20.13-14.09Z"/>
        <path d="M736.31,283.3c.38.54-9.79,8.24-11.07,7.03,1.43-5.42,5.2-11.3,11.07-7.03Z"/>
        <path d="M338.15,56.98c4.89,2.19,12.52,4.63,17.96,5.67,5.1.98,10.82-2.08,15.85-.92.56.13,6.56,4.77,9.77,5.51,4.4,1.01,8.6.13,13.15.95,2.67.48,13.2,4.4,16.31,5.63.75.3.77,1.93,1.37,1.96,3.77.16,8.88-2.74,13.95-1.96,3.15.48,4.93,3.36,7.35,3.83,2.67.51,4.59-.99,6.58-.64,2.33.41,3.46,3.22,10.27,4.38,6.8,1.17,13.59,2.88,20.43,4.21,10.93,2.12,20.33,4.13,31.04,5.72,7.18,1.07,12.03,4.28,18.31,5.4,11.72,2.08,25.47,1.18,36.74,5.36,4.09,1.51,3.86,1.07,8.33,2.01,3.62.75,7.35,4.1,10.33,4.72,4.02.84,8.49-.29,12.63.47,3.51.64,4.61,2.83,7.22,3.86,8.91,3.51,16.74.56,25.55,3.86,4.14,1.55,7.25,1.37,10.55,2.34,18.84,5.54,36.62,6.96,55.35,11.13,1.99.44,5.75,3.17,7.55,3.46,4.03.65,4.54-5.15,6.33-7.31,12.72-15.31,33.88-22.92,53.85-20.52,3.65.44,8.2,4.09,11.82,5.25,3.75,1.21,9.7,1.06,12.66,2.45,2.44,1.14,3.51,5.59,6.24,7.86,2.98,2.47,8.67,3.59,10.8,6.82.96,1.46-.47,4.64,4.1,5.52,2.47.47,8.91-2.83,12.85-2.89,11.05-.18,13.29,2.17,21.41,7.09,2.1,1.28,7.63,3.06,8.39,3.75,1.32,1.2,1.21,4.19,2.07,5.64,1.85,3.12,4.2,4.8,6.06,8.1,1.99,3.52,4.13,8.75,4.97,12.66.83.72,8.03-.38,10.27.13.37.08,5.71,3.5,6.29,3.96,7.12,5.59,15.01,19.19,18.69,27.45,1.76,3.96,1,2.84,1.94,7.16.16.75,1.81.61,1.98,1.37,3.15,13.91,3,27.91,2.01,42.11-.18,2.57-6.78,27.73-7.96,30.31-1.17,2.54-3.4,3.65-4.34,5.76-1.15,2.59-1.17,8.73-1.76,11.08-.13.51-2.67,1.98-3.7,3.57-2.54,3.94-3.08,9.25-6.52,13.64-6.37,8.15-14.13,19.11-22.53,25.81-3.04,2.42-12.67,8.56-16.22,8.99s-7.9-.33-8.49-4.52c-1.03-7.25,13.71-15.43,18.16-20.09,12.97-13.58,25.8-32.9,31.71-50.89,1.52-4.61,5.79-16.33,6.51-20.69.47-2.85-.5-6.3.09-8.81.19-.81,1.83-.27,2.07-2.14,1.35-10.36.26-30.75-4.22-40.25-.48-1.01-4.98-7.96-5.35-8.41-1.12-1.34-11.58-11.75-12.32-12.2-2.59-1.59-7.81-2.85-10.73-2.14-.72.18-.57,1.63-1.45,1.93-9.84,3.33-23.51,9.88-30.06,18.09-2.03,2.54-1.08,5.17-2.54,7.56-1.35,2.21-6.39,3.8-7.28,5.89-.5,1.16-3.43,11.09-3.63,12.41-.98,6.24-1.12,11.38,5.43,13.58,12.9,4.33,24.72-4.64,32.85-13.62.85-.93.67-2.93,1.15-3.34.62-.53,3.12-.26,4.56-.97,3.28-1.6,5.93-6.49,10.33-7.3l-6.6,7.98c2.85,4.28,2.89,9.16-.42,13.42-2.58,3.32-20.7,15.54-24.79,16.79-12.47,3.81-19.69-.63-30.39-4.69-.92-.35-2.42.56-3.3.2-3.16-1.28-.99-4.25-1.26-5.85-.21-1.23-1.88-2.29-2.29-3.62-.6-1.95,0-5.66-1.4-6.68-4.23-.17-8.18,1.21-12.58.52-3.78-.59-11.66-5.27-13.74-8.43-.88-1.34-.58-2.93-1.05-3.77-.51-.92-1.61-1.1-1.81-1.63-1.55-4.26-.92-8.97-2.13-13.3h-2.99c2.01,5.38-2.79,18.71-1.88,22.48.44,1.83,4.52,3.11,6.11,6.02.53.97,5.78,17.22,5.9,18.31.75,6.6-3,11.74-9.88,8.83-6.15-2.6-1.82-11.03-3.44-15.72-.44-1.26-2.23-1.28-2.85-2.41-.72-1.31-.47-4.03-1.51-5.29-1.76-2.13-11.71,1.02-14.87-6.28-1.85-4.27.15-9.32-.78-13.16-.61-2.53-2.96-8.79-3.7-12.58-1.83-9.38-5.51-9.09-6.84-13.36-.78-2.52.3-4.35-.33-6.56-1.57-5.47-8.17-9.97-12.18-13.11-1.39-1.08-5.76-5.72-6.14-5.91-1.91-.97-4.12-.28-6.08-1.02-6.81-2.56-4.99-3.71-13.5-2.42s-10.97,4.07-14.21,11.92c-.83,2.02-1.53,4.6-2.4,6.86-2.64,6.84.56,5.7.89,6.98,1.64,6.3,6.26,16.39,10.63,21.44,1.76,2.03,3.77,1.83,5.04,3.02,2.26,2.1,11.36,20.81,12.14,24.12,1.47,6.26.25,9.59,3.48,16.46,2.92,6.2,1.72,12.36,4.48,19.9,1.42,3.88,3.52,8.39,4.87,11.86,1.6,4.1,14.97,23.71,19.12,27.1,1.68,1.37,4.47,1.63,6.27,3.31,1.93,1.8,2.34,4.86,4.44,6.64s4.8,1.74,6.66,3.41c1.68,1.51,1.76,3.83,2.74,4.82.49.49,10.44,7.73,11.05,8.09,1.07.63,3.29.08,4.82.7,4.36,1.76,10.69,7.15,8.74,12.37-.56,1.49-5.87,2.62-5.88,5.13l-8.91-2.84c3.34,2.67,3.5,18.28,4.14,19.03.38.45,4.86.17,6.83,3.74,1.82,3.3.27,6.87,2.7,9.98.48,4.74-5.48,7.65-5.63,8.25-.88,3.58.89,10,0,13.71-.18.77-1.81.63-1.98,1.37-.41,1.87.61,4.79-.24,6.17-.33.53-2.39.61-2.67,1.76-.3,1.2,2.56,6.02-.12,6.49l-2.49-8.12-1.04-.7c-.92,3.46-7.46-2.5-7.57-2.97-1.32-5.45,1.15-13.72,1.11-18.94-.05-6.51-1.07-16.42-2.52-22.6-.74-3.18-.9-7.39-1.65-10.59-1.31-5.58-6.61-15.14-9.07-21.15-2.9-7.07-7.65-7.6-12.58-11.63-8.79-7.17-12.35-15.24-21.08-23.15-6.05-5.49-4.57-10.56-7.13-17.08-.96-2.44-4.77-5.91-5.05-7-.82-3.16-.09-6.62-1.27-9.82-.52-1.41-2.01-1.4-2.15-2.08-.86-4.03,1.6-8.6-3.11-11.82-5.84-4-12.77-4.78-19.35-5.84-1.78-.29-3.49-1.55-5.39-1.74-7.25-.73-12.18,4.63-21.55.47-5.71-2.53-6.59-9-11.6-13.63-7.34-6.78-15.57-16.57-24.51-21.78-8.55-4.99-14.62-2.98-22.75-4.45-2.07-.37-4.09-2.68-6.11-2.57-8.5.48-17.45.6-25.2,2.52-14.1,3.5-24.56,6.31-38.15,14.32-2.41,1.42-3.1,4.69-5.09,5.99-1.62,1.05-3.88.85-5.17,1.88-1.64,1.31-8.85,13.74-11.51,16.74-.33.38-3.47,3.44-3.72,3.49-6.05,1.23-8.8-4.48-6.59-9.82.54-1.29,7.81-12.19,8.85-13.3,1.62-1.74,4.35-1.86,5.99-4.08,1.12-1.53,1.14-3.88,2.06-4.99.68-.82,15.98-10.36,17.92-11.3,1.83-.89,13.76-4.62,13.76-5.36-2.01-2.71-5.81-1.81-8.29-2.58-1.25-.39-6.75-3.72-8.04-4.25-1.69-.71-8.15-2.63-9.33-3.67-2.23-1.97-2.2-4.13-3.52-5.61-6.2-6.94-13.66-9.46-19.2-17.08-1.06-1.46-.59-3.34-1.21-4.3-2.24-3.48-1.26.39-2.96-5.58-1.06-3.72-7.68-13.07-8.43-15.73-1.59-5.61.95-15.06-.6-19.59-1.15-3.36-13.1-7.72-16.9-6.65-.74,4.86-2.38,10.51-4.88,14.78-1.42,2.43-5.96,6.6-7.7,9.4-1.01,1.62-.59,3.97-2.13,5.93-.47.6-9.97,9.21-10.6,9.54-7.88,4.14-11.23,5.81-18.56,10.65-1.41.93-15.48,3.74-18.15,4.01-18.93,1.91-26.12.29-43.32-6-5.11-1.87-8.64-2.89-13.62-4.51-2.53-.82-9.16-5.22-10.41-7.58-3.44-6.52-3.83-4.73-8.57-9.7-1-1.04-8.5-12.57-8.66-13.36-.4-1.92,1.03-3.76-.19-6.96-.75-1.97-7.39-6.22-7.94-8.19-1.18-4.2.32-8.91-.42-12.7-.54-2.76-3.3-2.43-3.89-4.17-.19-.57-1.17-10.65-1.17-11.94,0-3.57,2.33-5.32,2.96-8.12.96-4.26-.31-12.92.2-14.82.39-1.44,2.77-2.24,2.95-4.3.2-2.31-3-4.6-2.07-7.5l3.41,1.08c1.96-5.04,6.97-.54,10.23-.13,5.21.66,28.38,2.06,31.39,3.41ZM328.36,80.84c-3.81-2.79-17.23,8.74-15.1,11.07l7.28-4.02,7.82-7.05ZM366.46,86.03c-5.99-3.65-8.42-1.93-13.4,1.87-8.26,6.32-19.13,15.51-26.73,22.63-1.73,1.62-8.77,8.1-8.63,9.65.33,3.67,4.7,7.3,8.22,5.57.95-.47,1.02-1.73,1.8-2.26,11.32-7.74,21.7-18.18,31.92-26.98,3.6-3.1,8.87-3.02,6.81-10.47ZM405.91,89.9c-5.44-.23-7.49,1.29-9.57,6.03-1.15-3.35-7.93-3.65-10.86-2.8-.91.26-13.86,9.07-15.74,10.44-9.2,6.73-20.16,16.53-26.87,25.5-.78,1.04-2.76,1.34-3.26,2.77-1.98,5.67,1.58,9.03,7.18,8.22,3.23-2.99,7.86-4.35,11.28-6.87,2.55-1.87,4.1-5.14,5.9-6.69,7.19-6.19,16.05-11.83,22.83-17.97,3.07-2.77,7.78-10.22,9.25-11.31.28-.21,1.97.39,3.15-.34,2.53-1.54,6.42-3.58,6.71-7ZM331.72,98.31c1.88-1.61,4.35-1.86,3.67-5.4l-8.04,5.55,2.51,2.51c.93-.6,1.14-2.04,1.86-2.66ZM451.52,100.28c2.53-1.07,7.96,2.16,5.79-1.84-5.88-.88-11.09-4.32-17.15-3.51l-1,7.46c2.38,1.49,2.47,5.98,6.84,3.41.35-.21,3.96-4.85,5.51-5.52ZM411.97,114.06l7.58-4,8.53-11.11c-4.74,1.19-6.78,7.21-9.63,10-2.31,2.26-6.68,1.94-6.47,5.1ZM514.71,109.04l-15.11-2.02,3.52,7.02c1.34-.75,2.86-2.38,4.28-2.75,2.73-.71,8.07,1.26,7.31-2.26ZM781.26,145.91c.5-.39.69-1.54,1.43-2.04,1.49-.99,3.84-.3,4.99-2.13-3.67-6.12-7.9-13.36-14.18-17.03-1.24-.72-13.78-6.44-14.57-6.58-10.67-1.97-28.55-.86-36.32,7.39-1.22,1.3-1.19,3.39-3.02,4.57-2.21,1.43-5.22.61-6.28,1.28-.34.22-3.23,6.32-3.3,7.37-.33,5.08,2.45,4.05,4.07,6.1,1.31,1.65,4.51,7.68,5.52,8.57,1.05.93,9.51,4.89,10.2,5.91.97,1.45-.02,3.88.62,4.94.22.37,7.02,4.16,7.45,4.23,4.77.69,16.07-7.95,20.1-11.11,2.64-.74,1.01,2.53,1.5,3.02,2.14-1.73,6.85.42,7.87-.16.35-.2.53-1.76,1.24-2.28,6.47-4.73,7.55-8.07,12.68-12.06ZM385.78,138.24c1.84.4,2.79-.57,4.18-1.35,1.6-.89,13.62-10.75,14.99-12.21,2.35-2.5,3.03-6.25-.69-4.74-4.59,1.87-7.3,7.47-12.13,9.54l-6.35,8.76ZM564.92,125.29c-2.95-1.38-5.6-1.62-8.66-.38-6.72,2.72-17.03,15.4-24.68,18.4-3.98,5.12-21.28,13.16-13.59,20.88,2.33,2.34,7.84-1.51,10.13-2.96,9.25-5.85,17.97-14.46,25.95-21.39,4.5-3.91,12.92-7.04,10.85-14.55ZM383.75,129.18c-2.3-2.04-23.06,16.07-23.14,17.62-.16,2.87,5.18-.74,5.94-.96.97-.28,2.66.7,3,.42.38-.31.37-2.39,1.09-3.27,2.51-3.09,6.2-5.72,8.97-8.43.71-.69,4.96-4.66,4.14-5.38ZM593.87,140.9c2.76-5.17,2.27-9.25-4.27-9.68-4.59-.3-10.95,7.44-14.72,10.35-4.88,3.77-11.6,6.51-15.34,12.76-3.01,2.16-17.74,13.45-18.5,15.79-2.18,6.66,6.55,7.73,11.31,5.27,11.22-5.82,27.57-22.98,37.27-31.78.61-.56,3.33-.98,4.25-2.7ZM649.68,139.25c-6.44.23-11.83-3.71-18.14-3.03-.24,2.18.58,4.72-.28,6.81-1.07,2.6-10.94,10.39-13.34,13.32-1,1.23-1.96,2.54-2.5,4.04,2.46,2.27,8.93-8.21,10.34-9.4,6.5-5.5,15.92-6.21,22.47-9.64,1.03-.54,1.92.54,1.44-2.1ZM831.3,151.12c-.2-.23.41-1.48-.24-2.29-3.13-3.87-11.4-7.19-16.25-6.13-5.47,1.2-6.04,5.17-7.98,6.16-3.17,1.61-5.82-2.06-12.33,2.54-2.46,1.74-3.63,5.35-5.1,6.69-3.03,2.76-8.22,5.27-10.83,9.82-1.46,2.54-.96,5.37-2.03,7.84-.35.82-3.87,3.62-4.37,5.78-.39,1.66.72,3.51.4,5.49-.77,4.7-3.64,10.11-1.96,16.15,3.24,5.92,3.27,19.12,13.4,17.4,1.54-.26,11.76-8.09,13.26-9.77,3.92-4.37,4.01-9.54,7.09-13.06,2.3-2.63,8.45-5,10.21-7.42,1.06-1.46.67-4.25,2.77-5.8,1.65-1.22,4.33-1.11,6.57-2.49,3.08-1.91,4.31-6.17,7.18-7.98,4.21-2.67,16.55.01,12.07-10.2-.25-.58-6.86-9.59-7.43-10.19-1.08-1.17-3.65-1.61-4.43-2.53ZM508.66,145.3c-3.85.48-7.93,1.22-11.11,3.48-5.55,3.94-5.04,11.68.79,9.3.62-.25,8.51-8.67,9.19-9.64.52-.75,1.91-.68,1.14-3.14ZM686.95,146.31c.42,3.76,11.99,5.55,12.07,2.51-1.42-.29-5.24-3.3-5.67-3.38-1.37-.26-4.02,2.46-6.4.87ZM409.95,147.32c-.76-.67-8.92,3.28-10.39,4.02-1.08.54.16,3.07-3.52,1.25l-3.21,3.78c2.46.52,19.26-7.17,17.12-9.05ZM639.4,161.61c-3.58-1.4-11.52,8.69-13.89,11.38-7.42,8.45-11.53,16.26-22.45,21.29-.62-.93-7.74,4.17-6.76,5.4,3.13.85,7.34,1.85,10.23,3.16,9.97,4.54,23.94,17.58,30.64,25.98,2.6,3.27,2.55,6.36,7.76,8.35,4.77,1.82,6.41-.21,10.19-.1,6.5.2,14.29,2.05,19.51,3.84,2.5.86,5.24,1.16,7.75,2.05l1.42-2.3c-2.57-3.8-3.72-9.22-6.01-12.93-2.61-4.23-9.32-9.46-11.99-13.43-.88-1.3-8.02-13.24-8.24-14.03-.98-3.47-2.06-13.53-1.86-17.24.12-2.23,3.11-13.92,2.65-14.61-5.83-4.06-15.59.74-18.94-6.81ZM764.51,163.43c-.98-1.16-10.43,8.44-10.88,9.77-.3.88-.35,1.8-.24,2.71l2.1,1.12c.08,1.17-1.55,2.14-1.58,2.98-.21,5.37.46,12.15.54,17.67h3.01c-.82-2.44,1.47-4.33,1.8-5.85,1.42-6.46,1.06-13.95,3.33-21.58.22-.73,3.7-2.74,1.92-6.82ZM557.01,181.56c-1.19-1.11-12.43,7.89-12.08,9.55l8.05,3.54c1.52-3.16-2.9-3.61-3-4.52-.27-2.43,8.83-6.87,7.03-8.57ZM589.17,187.51l-.42-2.92-10.9,5.02-.69,3.03c5.33.22,7.48-4.43,12-5.12Z"/>
        <path d="M745.37,145.3c-3,4.01-9.22,7.9-14.1,9.05.04-2.49,4.24-4.23,6.19-5.39,2.27-1.35,5.33-3.15,7.91-3.66Z"/>
      </g>
      <g>
        <path d="M407.7,237.17c.21.1.28,1.52,1.01,1.78,1.47.52,3.92.09,4.8.94.47.46,7.34,9.99,7.59,10.59,1.97,4.75,2.79,18.18,1.88,23.19-.79,4.39-8.24,20.02-11.56,22.69-1.72,1.38-3.66.96-5.21,1.84-1.74.99-5.16,4.11-6.67,4.03-.61-.03-10.78-4.39-11.32-4.78-2.01-1.48-2.65-5.13-3.56-7.32-.31-.74-1.73-.79-1.89-1.51-.51-2.29-1.13-13-1.12-15.92.02-6.41,3.32-27.12,8.57-30.78.42-.29,8.44-3.22,9.57-3.52s7.53-1.41,7.89-1.23Z"/>
        <path d="M419.6,192.04c13.05,6.99,14.7,8.09,24.98,19.36,7.6,8.34,15.78,14.54,16.76,27.07.64,8.21-5.69,10.62-10.02,4.72-4.23-5.75-7.02-16.67-10.76-21.24-1.94-2.37-6.2-4.08-8.5-6.61-3.02-3.31-8.69-11.41-13.78-12.45-1.88-.38-4.16,1.18-6.73.81-6.67-.96-14.45-8.13-23.07-6.01-.75.19-.61,1.77-1.39,1.96-7.42,1.79-15.4,2.75-22.7,5.33-7.63,2.7-22.64,18.59-26.49,25.89-2.2,4.16-2.82,12.6-8.99,12.17-3.11-.22-6.07-7.13-5.17-10.15.25-.82,5.64-10.02,6.6-11.58,1.88-3.04,6.22-9.06,8.58-11.57,6.67-7.06,16.67-12.99,25.17-17.13,4.95-2.41,7.96-1.09,11.94-2.01.76-.18.6-1.91,1.36-2.04,4.89-.81,10.1.04,14.89.07,12.4.09,15.31-3.04,27.33,3.4Z"/>
      </g>
    </g>
  </g>
  <g id="_x33_">
    <g>
      <path d="M585.37,271.43c-11.61,1.52-30.9,13.48-38.78,22.15l9.06-.99-.5,4.02,2.14-4.09c8.99-2.76,48.12,2.28,49.57,12.89,1.53,11.17-19.15.22-24.62-.62-10.26-1.57-24.63-1.46-34.89.15-5.67.89-37.87,14.88-29.02-2.83,1.42-2.85,18.15-17.65,21.74-20.56,9.59-7.76,19.25-14.54,31.18-18.17l-2.03,4.02c3.57-.2,4.65-4.7,5.22-5.05,4-2.46,25.54-3.28,28.48.59,1.8,2.37,1.01,8.5-1.44,8.5-4.9,0-11.54-.6-16.12,0Z"/>
      <path d="M743,432.6c1.19.78,3.32,20.33-4.01,18.12,1.31-2.18-.33-20.98,4.01-18.12Z"/>
      <path d="M307.8,63.04c.35.29-.16,2.52.17,2.74,1.27.82,23.79,1.78,28.33,2.45,23.68,3.5,47.63,14.52,70.86,17.77,3.33.47,11.6-2.29,6.48,2.09,3.15-.74,4.73,3.62,5.24,3.88.6.31,10.52,1.06,13.42,1.72,3.86.87,8.99,1.85,12.06,4.47l1.5-2.99-11.07-3.04c-.28-.42,1.31-1.98,1.5-1.98.92.03,13.67,5.03,17.39,5.76,16.77,3.28,34.05,5.16,50.82,8.61,35.98,7.4,71.38,17.4,107.56,23.37,2.9,2.86-1.74.17-2.01,2.52,6,1.75,11.14,1.55,16.1,3.02l-2-1.99,31.22,6.04-1,3c2.69,1.01,1.66-1.89,2.66-2.06,5.38-.97,8.29,5.3,13.09,5.98,3.49.5.17-2.1-.63-2.89l9.06,1-1.01,3,7.05-.99.51,3.01c1.35-3.95,9.49.41,12.01.94,10.05-24.81,38.74-36.82,64.03-29.13-3.84,2.85-10.27,2.37-13.09,7.03,3.16-.76,14.37-6.2,16.8-5.32,1.88.68,3.36,3.48,5.03,4.24,5.46,2.49,10.47,3.47,15.96,8.13,2.45,2.09,7.53,10.3,10.27,10.93,1.79.41,11.96-3.59,15.93-3.84,20.52-1.29,39.14,15.24,41.83,35.17,32.86-.13,48.8,31.64,47.34,61.04-1.71,34.53-27.03,81.78-49.9,107.24-4.87,5.43-12.08,10.7-18.96,13.27-3.15,1.17-18.16,4.95-20.84,4.44-4.05-.77-6.52-4.15-3.92-8.05,1.47-2.2,24.12-12.79,29.44-16.89,23.52-18.16,53.56-78.79,51.82-108.11-2.17-36.81-28.63-51.57-59.12-28.11-9.17,7.06-34.37,32.37-22.31,44.3,6.19,6.12,23.78,5.55,29.06-.73.16-.19-.82-2.52,1.19-4.38,1.12-1.03,9.55-7.86,10.16-8.1,2.25-.88,4,.86,4.85.46.63-.3,1.86-5.82,7.7-5.81,3.08,0,10.6,2.79,8.55,6.89-.87,1.02-9.24-6.17-13.62-1.02-3.61,4.24,6.11-.42,6.56.03l-6.03,12.08c4.44,1.47,16.19-13.87,13.87-3.76-2.17,9.44-12.96,6.43-17.93,7.25-4.91.81-15.4,9.92-22.74,11.61-5.41,1.24-18.63.45-24.27-1.81-10.2-4.09-9.72-11.47-13.92-19.32-3.73,2.47-7.92,4.62-12.58,4.01l.5-2.02c-11.51,7.07-23.54-19.89-21.25-28.27.48-1.76,5.53-5.35,6.65-7.48-3.16-1.73-3.97,3.94-6.03,4.53-1.09-12.96,5.74-28.4,12.68-39.18,1.96-3.04,13.09-14.83,13.28-15.85,2.19-11.57-27.38-25.1-36.79-25.29-7.39-.16-19.24,3.18-25.4,7.35-1.37.93-9.86,9.38-10.32,10.81-3.83,11.87,15.89,11.93,20.86,21.86,2.08.85,1.29-3.19,2.92-5.12,6.77-8.02,20.17-5.49,17.23,8.18-.56,2.62-5.36,9.14-5.45,9.69-.17,1.09,7.03,13.59,6,21.03-.27,1.93-5.5,4.59-5.1,7.53l6.02-5.03c1.4,6.76,2.51,13.71,2.45,20.65-.03,4.38-2.22,10.49-2.19,12.96,0,.72,7.13,8.84,8.54,11.49,1.69,3.15,7.41,16.91,7.15,19.6-.06.64-2,4.8-2.38,4.83-.68.05-7.89-3.48-8.55-4.5-4.14-6.39-5.41-16.77-12.42-22.37-8.72-6.98-4.53,5.14-4.68,8.23-.09,1.95.1,1.58-2.01,1.49-.95-13.54-6.22-29.32-12.24-41.66-4.15-8.52-15.83-26.75-23-32.4-10.67-8.41-35.39-17.76-39.16,2.18-4.86,25.75,27.95,30.51,31.07,52.74l-2.99-2.54,4.09,15.87c4.01,15.8,4.69,31.15,12.65,46.97,9.06,18.01,22.08,25.98,36.69,38.86,3.42,3.01,13.9,7.03,10.51,13.63-3.64,7.08-9.9,1.89-15.61,1.05,5.41,6.55,4.4,20.67,7.28,26.46.85,1.7,3.07,2.28,4.42,4.74,5.14,9.35-3.14,11.29-4.23,15.04-1.61,5.54-.92,31.75-12.78,28.14-6.32-1.92.79-19.85,1.22-24.58,2.03-22.45-5.68-38.93-10.03-60.12-23.75-17.65-31.43-31.52-39.82-59.14-3.15-10.38,1.12-10.6-8.5-19.7-9.11-8.61-22.02-11.61-34.06-8.85-5.12,1.17-7.17,5.45-13.59,2.1-3.09-1.61-8.84-13.33-11.99-17.26-5.8-7.22-22.32-20.18-31.59-20.74-3.1-.19-6.91,2.1-10.01,2.5-6.75.88-14.06,1.76-21.21,1.52-19.19-.64-24.09-9.47-43.81.41-7.58,3.8-14.54,9.83-20.07,16.19-2.34,2.69-14.26,23.41-17.97,11.83-2.87-8.96,19.01-29.41,26.3-33.72,2.58-1.53,10.35-3.53,12.1-4.82,2.99-2.22-7.38-7.71-9.64-10.05-1.44-1.5-3.82-9.32-5.28-4.07-11.57-10.77-17.54-22.96-22.66-37.78l3-.99c-12.63-6.21-.07-25.21-18.86-28.48-9.74-1.7-8.75,1.2-12.31,7.11-1.06,1.76-5.53,1.94-1.04,3.21-1.25,1.56-1.78,3.49-3.04,5.05-8.19,10.24-25.31,16.75-35.64,23.79-1.8,1.23-1.54,3.67-2.62,4.43-14.82,10.31-51.5,5.27-67.46-2.07-2.73-1.25-6.03,1.37-5.08-3.47l-2.39,1.93c-6.56-3.45-16.79-9.05-20.78-15.52-1.69-2.73-2.05-6.76-4.16-9.94-1.55-2.33-7.5-6.09-7.92-9.23-.1-.72,2.06.19,1.96-1.83-.22-4.14-2.75-1.52-2.94-1.67-.87-.68-1.63-22.92-5.04-21.16-.3.16.74,2.46-1.01,2.01-.07-11.01-12.76-43.11.99-48.86,2.31-.97,14.82-2.42,16.06-1.38ZM346.15,79.04c-6.43-.28-12.68-2.44-19.15-2.54-11.38-.19,6.92,4.22,10.59,4.54,1.94.17,9.62,1.25,8.55-1.99ZM403.56,91.11c-7.48-4.23-17.69-5.29-26.19-7.03,7.72,4.35,17.38,6.89,26.19,7.03ZM368.08,110.05c1.01-4.65.57-8.87-5.06-8.65s-24.78,18.09-30.02,22.42c-3.99,3.3-10.73,2.23-7.51,11.63,3.46,3.31,6.4,1.86,9.9-.18l32.68-25.22ZM359.8,130.98c-7.03,5.88-26.83,19.38-4.62,20.06,6.1-6.33,38.84-27.85,40.14-34.47,1.14-5.83-3.5-8.51-8.84-6.76-1.62.53-23.61,18.6-26.68,21.17ZM336.06,160.63c-4.37-6.35-10.46-11.5-14.93-17.8-4.38-6.18-6.82-13.93-12.25-19.47,4.31,15.35,13.36,29.06,27.17,37.27ZM566.43,148.25c3.58-5.94-.87-10.48-7.32-8.88l-39.78,29.74c-2.39,3.87-1.01,8.37,3.67,8.61,6.99.35,35.18-25.54,43.43-29.47ZM615.09,145.52l-23.17-5.03c3.53,2.74,11.93,5.23,16.55,6.07,1.98.36,7.54,2.62,6.63-1.04ZM559.03,165.01c-2.25,1.88-17.9,16.28-18.26,17.49-1.94,6.45,1.95,9.34,8.1,8.14,6.47-8.33,39.56-27.94,42.52-35.07,2.31-5.57-1.61-10.36-7.48-8.5-1.55.49-22.24,15.74-24.88,17.94ZM832.57,156.63c-.37-.33-2.26.81-3.03.43-7.19-3.48-11.89-4.18-19.01-6.51-2.34,4.74-10.31,6.74-14.63,10.08-14.2,10.96-32.05,41.6-26.69,59.83,3.68,12.49,17.1,14.72,24.19,4.16,12.01-17.88,17.62-27.3,36.34-40.21,6.52-4.5,14.03-3.08,11.5-13.73-.29-1.21-8.04-13.48-8.67-14.04ZM641.28,170.68c17.04,8.01,26.69-1.06,3.49-5.11l-3.49,5.11ZM684.58,252.29c-1.96-28.95-37.11-39.21-32.16-70.04l-16.07-4.42c-6.98,12.46-18.93,26.66-32.34,32.16,13.55,8.94,24.77,19.47,34.21,32.72,10.12-2.85,21.13-1.23,31.27.52l-1.01,3c2.61,1.15,1.8-2.1,2.49-2.01,4.01.5,10.3,5.6,13.61,8.07ZM553.65,213.01l-26.19-7.05c4.17,3.65,13.64,7.57,19.09,8.6,1.93.36,8.02,1.99,7.1-1.55ZM881,292.59c-1.35-1.39-17.61,18.05-19.13,20.13,3.89.43,20.38-18.84,19.13-20.13Z"/>
      <g>
        <path d="M396.5,190.86c-1.76,2.67-10.13,1.67-10.06,6.03,10.09-5.3,23.75-7.63,33.22-.01-4.5-.09-7.86-2.56-12.6-2.43-1.68.05-4.22-.21-3.5,2.44,7.85-1.85,17.29,3.09,24.69,6.02l-3.07-5c4.16,2.07,7.74,4.89,11.11,8,4.3,3.97,16.51,15.87,19.01,20.31,2.65,4.69,9.5,24.09-.43,22.65-6.92-1-9.91-17.13-14.5-22.82-27.34-33.86-70.88-31.82-96.85,2.49-2.35,3.1-4.72,10.55-7.44,13.2-2.14,2.09-5.76,2.35-5.95,2.61-.39.52-.48,9.11-1.12,10.96,3.8-.4,4.19-7.17,2.01-9.05,9.73-1.36,2.77,14.41,2.5,19.59-.19,3.68,1.27,18.95-.13,20.79-3.96,5.21-33.7,10.75-41.26,11.87-22.48,3.34-45.21,3.1-67.88,3.15,2.49,6.94,17.32,19.33,19.24,24.64,1.48,4.09-.16,8.06-4.79,8.27-5.9.27-19.52-16.58-23.35-21.53-1.61-2.09-1.19-4.53-2.16-5.86-13.04-18.1-44.98-27.71-66-27.6-27.68.14-49,6.74-71.48,27.14-24.23,21.99-39.68,57.56-17.66,87.09,3.32,4.45,10.17,7.51,11.09,12.59l1.49-2c3.46,2.38,9.41,6.54,13.05,8.1,2.92,1.25,24.63,6.41,23.18,7.99l-4.49,4.04,8.5-5.14c17.89,3.48,35.83,4.4,53.95,6.17-2.15,3.38-10.88,4.31-10.58,9.05,6.9-5.48,13.6-9.2,22.66-8.04l-8.55,6.04c7.42-3.12,19.66-9.18,27.71-5.57,3.91,1.76-3.3.54-2.02,3.54,11.17-7.85,23.67-1.99,34.96-2.31,4.49-.13,13.31-3.61,18.99-2.83,1.56.21,1.97,3.76,3.46,2.1.89-.99-2.04-3.12,6.56-3.99,6.25-.63,8.49,1.86,8.99,1.86,10.97-.18,25.5-3.23,34.5-3.87,2.33-.17,5.71-.35,7.94-.11,1.89.2,1.35,2.17,1.95,2.14,1.46-.07,2.5-1.87,4.05-2.02,4.86-.48,9.12.03,13.56-1.55l-2.01,2.51c7.53-3.4,15.29-3.98,23.68-5.01,11.76-1.44,23.74-2.72,35.35-3.94,3.7-.39,19.98-2.48,21.94-2.2,1.14.16-.07,2.54,1.6,2.09l1.68-2.95c31.26-3.97,67.19-8.83,97.21-18.55,2.19-.71,18.25-7.12,16.97-9.7-4.39-.89-13.34-12.04-14.04-15.69-1.02-5.28.2-12.43,7.28-10.36,3.31.97,3.7,7.29,5.75,10.43,3.65,5.59,18.1,13.78,24.59,14.78,5.3.82,20.21-2.94,20.73,5.43.79,12.74-25.59,3.4-31.3,4.02-5.36.59-8.95,8.08-13.88,9.91-2.09.78-5.62.23-8.21,1.08-19.95,6.56-40.11,11.45-60.78,15.53-3.15,6.25-22.19,41.87-26.55,43.2-5.72,1.75-10.43-2.75-14.58-5.89-10.7-8.11-18.63-19.09-27.63-28.89-7.65.61-15.38,2.27-23.03,2.82-24.54,1.77-49.82,3.57-74.51,7.03l-20.08.09c-7.23,10.69-11.84,39.03-29.13,34.91-3.44-.82-16.99-15.79-19.87-19.41-2.01-2.53-6.38-11.73-7.55-12.58-4.12-3.01-18.4.16-24.18.04-11.35-.23-27.14-3.92-38.18-2.98-11.73,1-16.76,16.31-21.68,25.45.49,1.67,16.4,9.18,19.1,10.2,55.66,20.93,128.67,11.62,187.89,16.58,25.59,2.14,64.51,6.28,88.72,14,1.49.47,2.36,4.02,5.41,1.67l-3.01-2.51c11.07.1,23.21.16,34.72,1.02,4.97.37,10.1,2.56,15.21,2.86,19.05,1.11,76.88-12.57,93.04-22.59,3.38-2.1,1.83-6.21,8.63-5.56,15.08,1.45-6.42,16.9-8.95,19.33-5.95,5.71-2.42,7.81-12.92,11.23-24.14,7.85-55.57,11.27-80.87,12.9-52.25,3.37-105.5-13.39-157.09-18.26-14.01-1.32-30.21.05-44.19-1.93-.95-.13-.29-1.76-1.19-2.06-2.18-.73-.72,1.92-2.94,2.12-9.32.85-27.4-1.14-37.33-2.13-1.57-.16-20.83-2.41-18.65-4l12.09-.02c-2.1-2.94-9.74-1.18-13.5-.89-39.08,2.99-108.48-15.6-126.54-54.98-1.58-3.45-3.33-13.15-5.02-15.12-1.84-2.14-14.18-5.67-18.15-8.04-5.62-3.35-19-18.16-22.29-24.04-22.46-40.1,13.93-93.63,50.87-111.64,5.49-2.68,10.09-1.78,10.61-2,.19-.08.54-2.23,1.73-2.75,3.5-1.55,7.31-3.54,11.12-4.04.82-.11,3.52-.52,1.87.89l-11.57,6.04c2.72,2.05,15.91-8.73,19.09-9.58,2.06-.55,21.27-.98,22.66-.55l1.55,3.09.6-3.13c4.74-3.9,28.5,5.74,34.43,7.96,3.06,1.14,7.93,2.08,11.84,5.24l1.98-1.99c1.31,2.29,4.94,3.82,6.27,5.32.73.83-.15,3.61,1.81,4.74,2.46,1.42,2.51-2.16,3-2.01,1.99.62,3.84,3.3,8.16,3.94,8.19,1.21,24.91-.68,34.2-.96,16.62-.51,36.5-1.15,53.09-4.32,2.33-.44,18.8-6.68,19.39-7.71,1.47-10.79,1.73-21.86,3.52-32.58.16-.95,1.96-.6,2-.7.21-.56-2.53-2.97-2.85-4.75-1.33-7.48,14.12-23.99,19.49-29.47l1,2.01c14.51-14.31,28.55-23.04,49.86-21.14ZM141.66,268.42c-8.2-.58-15.93,2.62-22.16,8.04,7.09-2.38,16.13-3.93,22.16-8.04ZM437.77,419.53c-1.17-1.3-29.55,5.11-34.54,4.18l-1.6,2.21c5.78,8.93,14.37,15.08,21.56,22.77,1.81,0,16.96-26.49,14.57-29.16ZM130.58,433.61c-.8-1.2-26.99-5.59-28.52-4.89-5.08,2.34,2.83,8.15-1.69,10.91,6-2.91,10.35,11.44,12.16,13.04.13.12,1.47-.79,2.23-.56,1.11.33,2.24,1.67,3.12,1.54,1.19-.18,12.05-17.52,12.71-20.04ZM243.2,435.92c-3.1.07-16.33.19-16.65,3.21-.21,2.06,14.04,20.77,16.36,20.71,2.65-.07,11.68-19.5,11.57-21.77-.2-4.08-8.36-2.23-11.28-2.16ZM352.18,494.03c-23.64-3.81-47.57-4.48-71.51-4.01l53.85,5.06c6.62-1.33,17.67,3.02,21.69-3.05h-8.05s4.02,1.99,4.02,1.99ZM412.63,501.09l-27.19-4.03c-.54,2.99.78,1.61,2.33,2.14,3.19,1.1,20.56,4.32,23.33,3.87,1.7-.28,1.72.63,1.53-1.97ZM388.45,504.12l-31.21-4.04c-.52,3.12.84,1.59,2.49,1.99,5.6,1.36,20.19,3.91,25.52,3.83,1.58-.02,2.75.15,3.2-1.78ZM426.72,509.16l-32.22-5.05c-.41,2.56.24,1.79,1.88,2.37,2.42.85,10.9,1.96,14.03,2.37,4.94.64,11.83,2.61,16.31.31Z"/>
        <path d="M383.42,273.45c-.39-.4-3.97.99-3.02-1.5,7.57-10.2,7.57-28.76,23.68-30.75,34.78-4.31,20.6,57.78,3.23,63.69-20.49,6.97-22.86-14.32-24.63-28.24-.17-1.32.88-3.07.76-3.2Z"/>
        <path d="M173.67,320.03c24.17-2.77,22.75,32.16.83,29.88-17.94-1.86-18.34-27.87-.83-29.88Z"/>
        <path d="M100.81,324.23c8.49-11.5,25.57-6.27,25.82,9.15.39,23.63-42.75,13.78-25.82-9.15Z"/>
      </g>
    </g>
  </g>
</svg>