<?xml version="1.0" encoding="UTF-8"?><svg id="Capa_2" xmlns="http://www.w3.org/2000/svg" viewBox="0 0 59.037 20.718"><g id="Capa_1_copia"><path d="M10.729,13.899c4.129-.707,4.123,2.641,6.632,3.981,1.551.829,3.584.898,5.26.406,3.297-.967,3.233-5.005,7.545-4.42,2.287.311,3.018,3,4.766,4.02,1.422.829,3.683.803,5.229.362,3.361-.958,3.058-5.039,7.582-4.383,2.364.343,2.786,2.976,4.616,3.956.705.378,1.899.675,2.693.735.988.074,3.464-.571,3.858.217l.111.739c-.176,1.269-4.05,1.071-5.051.985-1.306-.113-2.624-.674-3.631-1.513-1.466-1.223-1.663-3.244-3.868-2.999-1.351.15-1.626,1.379-2.456,2.26-2.826,3-8.622,3.334-11.578.422-.697-.687-1.377-2.277-2.347-2.581-2.17-.68-2.759,1.517-4.001,2.667-2.943,2.725-8.658,2.605-11.451-.293-.536-.556-.939-1.456-1.508-1.921-2.358-1.925-3.448,1.162-5.018,2.456-.859.707-1.581,1.122-2.678,1.395-1.041.259-5.246.551-5.376-.875-.15-1.643,2.74-.86,3.76-.957,3.83-.363,4.282-4.21,6.913-4.66Z" fill="#fff"/><path d="M16.22,3.271c1.674,1.587,4.197,1.898,6.358,1.259,3.303-.978,3.278-4.814,7.393-4.396,2.511.255,3.024,2.805,4.884,3.901,1.512.891,3.642.956,5.305.5,3.247-.888,3.326-4.9,7.392-4.406,2.558.31,2.952,3.082,4.951,4.049.735.355,1.955.617,2.762.666,1.115.067,3.768-.743,3.77.753.003,1.581-3.957,1.283-5.066,1.188-1.304-.112-2.627-.674-3.631-1.513-1.253-1.047-1.841-3.135-3.647-3.008-1.571.111-2.185,1.94-3.323,2.909-2.472,2.105-7.267,2.308-9.934.498-1.091-.74-2.578-3.137-3.511-3.349-2.169-.493-3.13,2.322-4.842,3.426-2.936,1.894-7.806,1.538-10.341-.89-.985-.944-1.345-2.599-2.991-2.601-1.64-.001-2.996,2.912-4.778,3.815-1.228.622-6.145,1.407-6.798.064-.998-2.055,2.576-1.193,3.622-1.31C7.768,4.38,8.261.277,11.417.016c2.652-.22,3.369,1.896,4.803,3.256Z" fill="#fff"/></g></svg>