<?xml version="1.0" encoding="UTF-8"?><svg id="Capa_2" xmlns="http://www.w3.org/2000/svg" viewBox="0 0 49.352 50.033"><g id="Capa_1_copia"><path d="M43.379.008c.51-.078,1.108.427,1.525.727.807.58,3.485,2.723,4.052,3.373.437.5.531.871.184,1.46-1.031,1.75-2.714-.952-3.365-.622l-22.282,22.932c-1.515,1.304-.675,2.563-.909,4.395-.538,4.213-6.645,14.862-10.314,17.057-2.953,1.767-6.115-.127-8.408-2.052-2.446-2.053-4.833-4.53-3.463-7.905,1.722-4.241,14.02-12.179,18.528-12.451.775-.047,1.849.297,2.337.013L44.069,3.263c.001-.205-2.263-1.292-1.59-2.653.207-.249.584-.554.899-.602ZM18.985,29.086c-4.097.481-13.038,6.577-15.652,9.824-1.503,1.867-1.491,2.949-.001,4.868,1.486,1.913,5.4,5.223,7.832,3.597,3.195-2.136,9.973-13.36,9.301-17.12-.174-.971-.488-1.286-1.48-1.17Z" fill="#fff"/><path d="M17.279,31.623c.24-.04.485-.107.704.052,1.047.757-1.884,4.461-3.3,4.387-2.665-.139,1.384-4.239,2.596-4.439Z" fill="#fff"/></g></svg>