<?xml version="1.0" encoding="UTF-8"?><svg id="Capa_2" xmlns="http://www.w3.org/2000/svg" viewBox="0 0 44.487 50.8"><g id="Capa_1_copia"><path d="M42.639,48.169c-2.608,2.423-9.828,2.238-13.293,2.395-5.891.266-21.526.83-26.445-1.89-6.021-3.33-1.454-13.312,2.753-16.682,7.198-5.767,26.885-5.635,33.921.466,3.675,3.187,7.168,11.899,3.064,15.711ZM40.781,46.545c1.939-1.93,1.182-6.028.192-8.283-2.311-5.259-8.138-7.32-13.48-7.9-8.173-.888-21.789-.215-24.505,9.42-1.754,6.226.852,7.505,6.408,8.205,7.565.954,18.645.906,26.231.027,1.356-.157,4.204-.525,5.153-1.47Z" fill="#fff"/><path d="M35.51,13.173c0,7.275-5.9,13.173-13.177,13.173s-13.177-5.898-13.177-13.173S15.055,0,22.333,0s13.177,5.898,13.177,13.173ZM33.11,13.184c0-5.947-4.822-10.768-10.771-10.768s-10.771,4.821-10.771,10.768,4.822,10.768,10.771,10.768,10.771-4.821,10.771-10.768Z" fill="#fff"/></g></svg>