<?xml version="1.0" encoding="UTF-8"?><svg id="Capa_2" xmlns="http://www.w3.org/2000/svg" viewBox="0 0 1029.251 871.843"><g id="Capa_2-2"><path d="M843.423,125.111c7.49.659,29.651,2.775,34.514,7.486,8.719,8.446,10.897,35.829,22.72,38.271,9.251,1.911,18.339-4.183,18.017-14.004-.257-7.863-13.422-43.485-18.735-48.983-6.126-6.339-18.267-7.356-26.649-8.638-71.057-10.863-149.855-13.575-221.899-16.101-89.247-3.129-183.776-6.444-272.918-2-8.469.422-23.949-2.76-28.038,6.962-6.321,15.028.232,60.55,4.999,76.995,4.632,15.979,12.653,30.899,23.538,43.484,1.153,1.047,1.163,1.043-.044,2.009-3.59,2.872-25.173,9.253-30.999,11.006-38.425,11.561-88.341,20.988-128.451,21.541-3.827.053-13.313-.187-16.531-1.552-1.773-.752-7.667-8.018-10-10-51.585-43.797-126.295-34.012-165.405,20.624-43.832,61.232-39.461,151.4,43.157,173.121,9.977,63.746,73.041,84.451,128.861,92.641,49.472,7.259,100.029,6.874,149.831,5.087,4.499-.161,9.053.201,13.546.036,1.227,18.035-.945,33.724-5.511,51-2.516,9.519-10.391,38.249-15.472,44.528-10.559,13.048-26.798,26.375-38.536,39.464-42.473,47.362-95.581,121.096-112.202,182.798-1.258,4.67-6.686,23.611-2.605,26.29,2.671,1.497,5.419.789,7.216-1.683,29.308-94.814,92.59-173.354,161.88-242.116,8.746-33.178,21.979-63.603,20.215-98.766-.487-9.706-3.486-20.675-3.974-30.026-1.096-20.995,17.323-31.602,34.896-19.896,14.846,9.89,19.367,33.921,17.883,50.708-6.002,7.032-21.297,20.121-20.763,30.107.31,5.785,6.278,5.469,10.013,2.141,8.965-7.987,16.285-18.287,26.482-26.516,34.947-28.206,103.598-57.907,148.717-49.772,15.969,2.879,32.687,16.258,19.276,32.765-11.393,14.023-53.452,21.825-71.479,28.521-12.188,4.527-23.876,9.347-36.025,13.975-5.289,2.015-21.558,8.802-22.818,14.249-2.777,11.999,18.084,1.734,22.586.519,22.756-6.142,57.242-5.51,66.255,21.178,3.725,11.031,2.252,25.557-5.653,34.491-16.507-12.472-35.088-16.355-55.168-11.236-3.208.818-14.337,4.683-15.549,7.518-1.333,3.118-1.067,7.168,2.891,7.776,4.254.653,15.975-3.661,21.903-4.049,25.092-1.645,49.201,11.358,46.415,39.417-1.79,18.034-20.29,38.048-38.377,40.623-4.548.647-10.281-.47-15,0l-1.354-2.32,5.785-15.249c7.27-3.409,22.863-5.905,18.08-16.957-2.572-2.94-13.55,2.64-17.228,3.808-3.213,1.02-8.121.996-10.732,2.268-4.197,2.045-4.092,10.222-5.594,14.406-8.204,22.855-27.679,38.854-50.808,45.192-4.573,1.253-17.727,2.377-20.099,4.901-8.163,19.582-15.76,39.403-24.082,58.918-7.546,17.697-16.628,35.591-23.644,53.356-1.514,3.832-8.056,16.714.505,16.412,4.926-.174,7.419-6.529,9.661-10.245,9.24-15.309,17.865-35.304,25.183-51.817,8.058-18.184,14.931-36.903,22.854-55.146l18.55-4.461c1.473-.166,2.763-.757,2.319,1.314-1.512,7.054-6.57,18.489-9.41,25.605-11.508,28.833-25.6,56.699-36.073,85.993.242,11.255,6.307,8.974,11.104,1.038,15.863-26.238,32.267-66.711,43.232-95.768,1.949-5.164,7.417-25.498,9.221-27.779,1.642-2.077,8.322-5.549,11.041-7.958,4.606-4.082,8.457-8.95,12.695-13.385,46.013,11.99,91.814-35.282,71.454-80.48,23.368-31.224,12.05-70.266-25.694-81.628-1.418-.427-1.769.625-1.462-2.003,25.72-10.995,74.998-13.992,82.88-46.624,3.719-15.395-6.191-29.411-19.565-36.211-32.514-16.53-89.934.749-121.677,14.962-5.242,2.347-18.463,10.771-22.351,11.649-6.698,1.512-18.286-.199-25.681,1.27-5.074-19.067-15.669-38.939-36.408-43.764-21.357-4.968-40.911,9.572-43.078,31.326-.711,7.133,1.16,13.369.882,20.382-60.301,1.312-123.791,3.715-183.016-9.494-19.273-4.299-39.093-10.714-55.97-21.01,13.072-11.296,20.468-27.177,27.651-42.54l37.871.081,64.818-4.925c7.83,15.303,24.676,51.906,46.98,37.723,7.043-4.479,16.106-21.601,19.518-29.482,1.475-3.406,4.515-14.938,5.667-16.333,2.033-2.463,22.98-4.396,27.707-5.293,83.789-15.906,155.269-34.476,240.985-12.447,9.339,2.4,30.033,11.274,37.313,11.764,5.43.365,8.416-1.664,7.487-7.498-1.02-6.408-23.712-13.304-29.81-15.255-104.468-33.423-196.907.084-299.848,14.563-41.461,5.832-83.068,9.608-124.847,11.153-76.733,2.838-188.086-.303-165.197-109.197,21.142-100.578,139.661-125.54,192.208-32.835,2.192,3.867,6.464,15.364,8.415,17.583,1.888,2.148,6.277,2.283,7.989-.135,5.291-7.476-8.221-29.596-10.92-37.422,60.123-.318,121.116-13.26,176.663-35.771,56.537,35.255,124.793,13.121,146.791-50.275,4.401-12.683,5.299-24.474,7.776-37.224,2.338-12.032,21.34-12.575,28.653-5.123,4.468,26.096,9.338,50.214,24.721,72.279,42.583,61.08,137.272,59.759,177.806-2.975,8.16-12.63,15.099-29.991,18.291-44.709,1.314-6.059,2.446-24.552,5.271-27.73,4.031-4.535,8.189-1.573,12.534-1.486,9.902.198,19.06.145,28.98,1.018ZM270.435,428.135c12.604-2.469,25.814-2.933,38.493-5.026-1.647,6.487-12.488,32.023-18.552,33.007-1.331.216-2.41.036-3.693-.271-4.65-1.114-17.147-21.326-17.734-26.276-.26-2.189.179-1.177,1.486-1.433ZM132.933,434.107c1.736,1.778-8.669,19.172-10.593,21.904-2.455,3.486-8.228,11.381-12.838,11.082-9.175-.594-21.992-29.466-23.567-37.985l46.998,4.998ZM393.115,157.783c5.64-10.09,27.628-38.179,35.849-47.148,1.589-1.734,4.344-4.989,6.679-5.355,5.84-.915,10.689,6.185,7.126,11.168l-38.796,50.197c-7.349,7.596-16.317.906-10.857-8.861ZM480.792,119.464l-54.351,70.648c-6.181,8.622-17.045,2.592-12.583-7.59l57.116-72.87c.806-.589,1.699-1.17,2.69-1.377,7.2-1.499,10.536,5.231,7.127,11.189ZM627.093,159.762l38.841-51.157c.974-1.104,2.276-1.99,3.725-2.305,7.099-1.542,11.397,3.876,8.344,10.383l-40.125,51.862c-5.846,4.758-14.873-2.081-10.786-8.783ZM721.005,118.682l-58.655,75.34c-3.611,3.34-10.308,3.346-11.965-1.87-1.59-5.006,1.028-7.557,3.715-11.381,16.488-23.459,37.309-45.502,53.858-69.142,1.484-1.671,3.427-3.87,5.702-4.351,6.298-1.332,10.533,6.059,7.345,11.404ZM725.917,581.542c-1.06-.559-3.078.046-3.735.828-2.529,3.01,2.833,24.23,3.591,29.391,7.807,53.182,10.186,107.21,6.151,160.834-2.348,31.195-8.317,62.195-13.037,93.06-.122,2.636,1.844,4.743,4.496,4.494,4.261-.4,6.924-14.406,7.866-18.23,17.584-71.35,20.061-165.926,5.217-237.851-1.126-5.455-6.618-30.565-10.548-32.527ZM694.259,41.274c12.332,6.771,45.753,23.331,58.944,20.597,8.145-1.688,11.756-11.437,6.292-17.833-3.477-4.07-19.609-6.905-25.83-9.17-10.552-3.841-22.587-10.058-32.405-15.595-9.626-5.43-24.914-18.84-35.594-16.933-7.744,1.383-10.859,10.414-6.175,16.702,3.53,4.74,28.147,18.596,34.768,22.232ZM499.198,48.869c14.966-5.482,28.224-14.293,42.061-21.939,8.873-4.903,25.942-7.746,18.46-22.115-4.376-8.404-17.818-3.865-24.464-.889-13.152,5.888-25.861,15.526-39.65,21.35-9.934,4.195-24.077,5.954-32.046,9.954-6.337,3.181-8.02,11.488-3.317,16.565,7.199,7.772,30.108.314,38.955-2.926ZM685.204,824.252c-55.377,13.348-115.05,16.574-171.107,4.184-5.174-1.144-30.544-9.425-32.441-9.151-5.313.767-4.23,4.57-.656,7.248,9.769,7.32,49.469,15.705,62.548,17.452,38.506,5.144,99.506,3.779,135.628-11.139,3.845-1.588,12.395-4.472,6.028-8.594ZM813.596,726.205c-2.763.883-2.779,5.868-2.58,8.273.824,9.951,7.039,25.997,9.429,36.611,6.93,30.77,8.359,59.321,13.763,89.237,3.044,16.852,11.387,13.565,12.708-1.738,2.537-29.387-9.97-88-21.216-115.754-1.742-4.3-6.434-18.439-12.104-16.629ZM156.668,291.344c-21.463,4.075-21.02,45.613,2.593,45.395,26.731-.247,26.204-50.862-2.593-45.395ZM73.668,286.342c-22.792,3.702-23.872,47.714,3.766,44.754,22.921-2.454,22.731-49.058-3.766-44.754ZM695.276,719.216c-1.621-.53-28.242,6.631-33.157,7.573-24.333,4.664-49.888,6.463-74.728,5.355-4.674-.209-25.088-4.481-27.32-.914-4.447,7.103,18.587,9.445,22.378,9.857,26.349,2.865,87.649-.937,110.534-14.435,2.667-1.573,6.834-5.952,2.294-7.436ZM664.148,632.818c4.986-1.368,28.466-8.765,28.591-14.053l-1.065-2.427c-.839-.685-1.738-.934-2.815-.721-5.393,1.065-13.332,4.864-19.505,6.407-12.699,3.174-27.855,6.381-40.88,7.12-5.222.296-35.049-1.092-36.409,1.085-4.405,7.046,10.502,8.563,14.38,8.861,18.113,1.389,40.203-1.47,57.704-6.271ZM1026.926,806.607c-8.321-80.918-42.482-155.198-93.005-217.995,20.209-7.536,40.223-16.526,57.732-29.288,11.239-8.192,26.236-20.118,24.191-35.639-2.514-19.075-37.324-42.716-53.241-51.753-7.085-4.022-17.056-7.48-23.365-11.635-1.051-.692-2.553-1.061-2.316-2.685,15.424-6.61,30.342-15.209,43.901-25.119,25.498-18.636,51.471-42.618,17.023-68.804-20.469-15.559-47.979-24.966-72.323-32.524l-.583-2.043c16.804-11.779,34.186-28.719,45.807-45.705,20.567-30.06,22.147-49.908-13.85-65.78-23.948-10.558-52.004-14.937-77.97-17.03-6.026-9.642-11.438-19.628-18.18-28.82-4.447-6.064-20.633-27.65-28.1-26.503-3.919.602-5.023,4.889-4.774,8.303.342,4.691,9.597,12.652,13.018,17.056,66.33,85.37,75.965,234.677,71.052,338.969-1.098,23.312-2.885,46.551-3.8,69.779,15.793,22.817,33.575,44.158,48.207,67.794,31.924,51.572,50.459,108.925,56.579,169.421,1.527,15.096.654,33.408,3.24,47.76.255,1.417,1.659,5.592,2.744,6.249,3.566,1.338,6.618.728,8.25-2.785,4.189-9.017.992-49.303-.234-61.224ZM915.943,316.098c-6.14-34.406-16.507-67.855-30.007-99.991,18.533,2.075,38.395,5.22,55.954,11.536,8.308,2.988,25.721,10.167,27.602,19.408,2.128,10.451-12.012,29.37-18.588,37.523-3.147,3.901-31.865,33.811-34.961,31.524ZM975.603,366.931c13.163,7.438,31.112,16.667,18.742,33.085-14.686,19.491-43.766,34.678-65.408,45.082l-6.488-98.99c18.147,5.527,36.586,11.461,53.154,20.823ZM929.446,473.088c18.503,6.868,37.002,17.282,52.382,29.618,7.511,6.025,22.423,17.357,18.319,28.119-6.416,16.825-58.527,40.436-76.209,45.273l5.508-103.011Z" fill="#3756f6"/></g></svg>