<?xml version="1.0" encoding="UTF-8"?><svg id="Capa_2" xmlns="http://www.w3.org/2000/svg" viewBox="0 0 1172.242 897.853"><g id="Capa_2-2"><path d="M661.012,71.42c4.396-2.773,12.504-17.303,17.552-22.445,24.645-25.106,63.041-33.733,94.79-16.801,15.401,8.213,25.366,21.536,36.961,34.035,16.335,3.766,16.177-9.612,9.565-20.562-18.316-30.335-54.789-48.072-90.023-45.379-27.03,2.066-52.774,16.56-69.771,37.229-4.54,5.52-14.013,18.968-14.048,25.966-.038,7.766,8.472,12.059,14.974,7.957ZM442.019,95.428c3.1-2.014,11.896-18.932,16.068-23.928,23.087-27.648,59.676-38.007,89.449-13.508,6.203,5.104,15.488,20.432,22.96,19.944,11.268-.735,8.497-12.742,4.728-19.633-13.348-24.404-45.16-38.832-72.373-36.04-22.501,2.309-43.353,15.333-57.766,32.233-5.982,7.014-23.052,31.837-15.07,40.017,2.961,3.034,8.531,3.171,12.005.915ZM728.135,362.393c-3.739-2.938-19.557-.924-25.562-1.439-7.695-.661-18.692-3.995-25.728-7.272-6.397-2.979-21.563-17.132-26.27-6.698-4.548,10.083,10.907,16.468,17.5,20.505-17.957,26.94-52.018,39.984-82.022,48.979-63.201,18.947-139.05,30.607-204.664,40.336-81.795,12.128-209.394,31.44-288.34,10.674-97.432-25.629-97.624-131.647-23.884-185.898,65.314-48.052,140.457-22.867,179.062,43.719,3.254,5.612,6.01,18.145,13.963,17.176,13.236-1.613.801-24.479-2.615-30.523-1.158-2.049-10.034-14.252-9.514-14.971,35.581-3.913,71.21-9.156,105.498-19.615,38.212,25.947,100.147,24.535,135.51-5.884,21.487-18.483,30.774-43.27,36.695-70.305,2.842-12.978-.759-26.64,16.052-28.948,5.408-.742,16.251-1.343,19.693,3.791,2.682,3.999,4.552,18.781,6.284,24.716,14.678,50.269,50.556,85.625,104.723,89.277,84.068,5.668,125.111-41.161,139.251-118.831,1.092-5.998.398-22.091,6.994-24.006,1.786-.519,8.401-1.091,10.755-1.246,22.39-1.467,73.644-.449,94.582,5.501,18.733,5.324,15.332,41.925,33.355,41.464,2.598-.066,9.38-2.424,11.267-4.261,7.815-7.607,2.236-23.9-.646-33.18-3.248-10.459-9.323-27.979-20.04-31.96-25.95-9.638-84.633-13.538-113.436-14.564-110.505-3.938-228.773,8.634-339.037,19.046-60.452,5.708-125.161,10.635-184.862,20.138-4.751.756-15.121,1.063-17.119,5.881-1.179,2.842-.937,26.559.379,29.575,2.318,5.312,10.82,2.715,13.976,8.024,2.359,3.969,3.153,15.058,4.615,20.385,3.46,12.602,7.705,25.172,14.715,36.285l11.79,16.701c-34.539,8.358-69.822,15.025-105.476,15.985-63.063-61.959-158.514-49.351-209.354,20.691C-23.819,370.587-.354,453.586,80.518,481.01c5.51,18.814,16.353,47.535,33.628,58.372,41.955,26.318,82.407,36.759,131.536,42.464,63.634,7.389,128.045,5.324,191.866,1.114,5.419-.358,11.606-1.231,17.026-2.023.997-.035,2.144.683,2.359,1.614.167.72-1.81,12.496-2.167,14.627-2.996,17.876-8.784,36.098-14.874,53.126-54.955,48.121-105.699,101.528-147.055,161.945-9.729,14.214-31.75,45.85-35.712,61.292-2.304,8.98,3.324,13.631,11.36,8.355,22.973-38.812,48.138-76.411,76.599-111.402,24.387-29.983,51.52-59.526,80.966-84.524-22.58,59.614-50.471,117.846-66.706,179.784-1.622,6.189-6.296,20.984-5.078,26.495,1.274,5.765,8.659,7.777,12.273,2.7,9.769-28.687,18.396-57.747,28.771-86.229,25.684-70.509,63.171-140.63,76.436-214.565.571-3.18,1.097-12.997,2.718-14.282,57.953-7.515,117.711-14.104,171.273-38.727,10.383-4.773,32.923-16.631,39.846-25.155,4.582-5.642,4.909-12.266-3.778-11.829-74.407,46.737-166.919,57.547-253.255,63.798-76.52,5.54-196.263,7.719-267.476-21.503-2.776-1.139-17.487-6.868-16.946-9.857,11.418-12.416,17.927-28.29,24.402-43.66,1.899-1.949,19.766-.764,24.071-.929,12.822-.49,26.058-1.244,38.948-2.052,13.605-.852,27.267-2.639,40.837-3.893,9.118,14.321,26.973,46.969,47.063,44.843,13.053-1.382,22.046-21.608,26.784-32.266,1.578-3.55,7.386-21.87,9.484-22.516l121.862-19.26c1.305-.116,2.011.338,2.966,1.123,2.985,2.454,8.986,13.294,12.542,17.453,29.419,34.408,45.406,25.971,59.723-13.223,2.677-7.329,4.697-14.885,6.846-22.363,45.705-11.211,97.048-24.865,125.056-65.774,9.341,2.091,37.202,6.272,44-.462,3.301-3.27,3.094-8.345-.574-11.228ZM724.779,140.251c2.822,2.818,2.733,8.006.095,11.038l-62.832,85.166c-6.736,8.253-17.596.558-12.843-8.85l65.943-88.042c2.679-2.03,7.317-1.627,9.637.689ZM621.197,200.608c14.904-17.25,26.922-40.339,41.885-57.114,1.806-2.025,3.818-4.031,6.712-4.315,6.22-.61,10.384,5.943,7.339,11.373l-43.66,59.332c-7.119,6.843-17.177-.086-12.275-9.277ZM439.783,164.164c2.943-.66,6.31-.221,8.15,2.423,3.229,4.64,1.521,6.842-.853,10.91-14.559,24.944-37.995,48.702-53.472,73.524-6.721,6.528-16.672.207-12.625-8.633l55.657-76.335c.812-1,1.896-1.608,3.143-1.888ZM354.819,219.224c13.159-15.388,24.24-37.736,37.72-52.273,8.02-8.648,17.296-1.391,12.906,7.915l-38.703,53.783c-7.273,6.178-15.702-.142-11.923-9.425ZM134.479,523.891c-7.286,8.34-12.369,2.662-17.934-3.909-7.817-9.23-13.672-22.599-17.483-34.006l51.993,4.999c2.075,1.984-13.698,29.622-16.575,32.916ZM321.059,512.467c-7.438,7.226-17.734-8.428-21.817-14.181-1.714-2.415-7.51-10.698-8.171-12.834-.598-1.933.414-1.293,1.492-1.458,14.333-2.196,29.191-2.36,43.488-5.018,1.571,1.566-12.034,30.617-14.993,33.492ZM527.912,478.32c-1.068,1.148-1.905,2.199-3.581,2.492-7.01,1.054-23.981-21.489-27.271-27.83l43.987-9.012c2.034,2.83-9.829,30.796-13.135,34.35ZM1078.433,703.503c2.594-11.867,5.23-23.949,6.617-36.041,2.708-23.605-.291-48.47,6.992-71.008,12.319-38.123,36.179-84.791,17.516-125.485-11.481-25.035-40.634-26.449-57.5-5.498-1.81,2.249-2.614,5.932-4.99,7.493-2.536-28.803-12.479-75.184-50.518-71-14.177,1.56-20.398,11.093-27.253,21.718-.629.976.109,1.784-2.231,1.289-4.661-24.957-18.586-60.222-49.496-57.98-22.373,1.623-34.133,23.079-35.558,43.434-2.234,31.907,8.791,62.46,13.035,93.545-42.71-43.359-134.802-.139-115.987,61.995-15.093,2.204-25.978,16.152-27.724,30.784-4.319,36.202-.453,68.302,22.748,96.694,25.362,31.037,52.001,62.128,87.952,81.048,3.882,2.043,12.633,4.404,15.049,6.951,4.649,4.901,11.689,22.088,15.798,29.201,12.577,21.771,43.046,72.274,64.847,83.153,4.86,2.425,15.748,6.401,13.826-2.811-30.174-31.149-54.963-67.827-73.495-107.01,3.826.295,15.138-.164,11.526-6.036-1.119-1.818-18.923-6.998-22.514-8.486-16.19-6.707-31.845-15.476-45.488-26.512-16.016-12.955-60.947-62.461-68.706-80.294-6.153-14.141-7.515-41.596-6.806-57.17,1.412-31.002,33.614-32.649,43.743-5.767,6.614,17.555-2.864,37.808,12.218,49.782,11.839,9.399,23.701,7.372,37.252,9.748,12.515,2.194,27.406,8.735,37.249,16.751,3.434,2.797,15.228,16.874,16.528,17.479,1.371.638,2.682.896,4.064.073,4.777-3.464-6.511-18.916-9.1-22.044-9.23-11.155-22.791-20.221-36.972-23.539,5.583-10.941,10.945-20.901,11.986-33.506,1.575-19.061-5.545-50.265-23.276-60.693-16.744-9.847-23.66,10.436-37.999,15.418-14.72,5.115-29.771-3.357-29.796-19.712-.043-29.186,38.214-50.067,64.463-47.375,19.985,2.049,37.826,20.009,45.106,37.895,2.403,5.904,2.435,16.748,10.049,17.054,9.596.385,5.957-16.262,5.345-22.447-3.179-32.103-14.11-63.719-17.752-95.248-2.031-17.579-4.134-58.71,23.37-56.387,20.869,1.763,28.876,42.313,32.214,58.803,7.155,35.342,9.745,71.684,7.317,107.682,10.127,13.343,13.566-3.046,14.858-12.09,4.521-31.636-3.818-71.228,3.609-99.391,5.332-20.217,24.314-28.663,37.938-9.924,17.217,23.68,15.38,82.739,8.284,110.147-1.8,6.95-10.627,26.959-9.522,32.054,1.145,5.277,7.236,6.101,10.827,2.25,2.005-2.15,6.663-12.499,8.153-15.846,10.079-22.642,12.975-47.179,21.804-69.196,4.43-11.049,15.591-27.562,29.53-18.484,20.564,13.395,9.947,64.378,4.205,84.218-5.659,19.551-19.021,43.803-20.695,63.305-2.902,33.795-1.214,61.55-10.521,95.479-1.417,5.166-10.914,29.102-10.55,31.475,1.277,8.327,11.583-2.176,13.883-5.141,4.01-5.168,5.231-9.632,7.959-15.067.476-.948-.267-1.608,1.699-1.254,37.054,37.984,86.924,91.19,82.501,148.479-.59,7.638-3.533,14.871-3.991,22.513,14.898,2.183,19.391-19.209,20.045-30.459,3.425-58.917-55.36-120.062-93.666-159.007ZM850.557,566.988c18.133,15.517,22.532,49.977,7.914,68.896-4.481,5.799-6.44,6.729-13.959,6.122-7.543-.609-15.786-5.347-16.464-13.547-.339-4.095,1.134-7.257,1.103-10.988-.095-11.268-3.642-22.32-8.095-32.491,11.888-1.815,21.665-9.339,29.502-17.991ZM917.869,190.658c-3.423-5.1-16.298-22.972-21.064-24.929-8.075-3.315-13.894,3.36-11.197,11.198.893,2.597,11.17,13.463,13.841,17.152,29.704,41.023,45.503,101.856,57.12,150.88,4.118,17.377,4.706,36.241,14.472,51.59l1.333.299c2.381-1.775,9.382-3.301,9.712-6.369l-6.021-36.505c20.195,3.018,41.358,6.779,60.512,13.978,4.998,1.878,19.474,7.229,20.476,12.555,1.636,8.701-12.153,22.88-16.803,29.974,3.464,3.481,5.187,8.077,7.591,12.214.354.61.035,1.96,1.704,1.266,3.623-1.508,18.498-23.713,20.699-28.306,12.529-26.146-6.761-34.833-27.667-42.703-20.739-7.808-42.745-12.068-64.514-15.989-.41-1.518.396-1.659.983-2.507,4.969-7.177,16.617-17.105,22.986-25.014,12.755-15.841,43.872-54.579,19.363-71.307-21.797-14.878-61.688-16.323-87.351-19.649-5.363-9.262-10.2-18.93-16.172-27.828ZM994.273,244.254c4.775,1.418,18.047,5.332,19.581,10.426,2.221,7.379-8.666,22.375-12.982,28.605-9.454,13.645-20.8,26.258-32.802,37.683l-26.009-84.992c17.146.819,35.692,3.374,52.213,8.279ZM990.816,631.158c-7.222.978-20.713,11.849-25.784,17.286-18.782,20.132-26.991,51.814-20.506,78.558.769,3.173,6.822,17.912,8.528,8.463,1.247-6.906-1.53-17.795-.983-25.983,1.748-26.179,13.606-47.942,32.462-65.539,2.758-2.574,13.143-7.685,10.089-12.034-1.091-1.317-2.384-.945-3.805-.753ZM678.57,614.96l-2.909-.923c-2.508.744-3.007,8.052-3.437,10.599-5.047,29.898-7.072,61.482-11.31,91.69-8.306,59.208-18.951,118.181-32.832,176.278l.429,2.371c5.736,4.875,7.6-3.392,9.257-7.795,8.966-23.835,15.066-56.681,19.976-82.024,9.641-49.766,18.351-105.074,21.354-155.646.43-7.243,1.841-24.771.895-30.976-.2-1.311-.651-2.498-1.424-3.575ZM598.568,870.89c-6.906.021-19.333,3.955-27.139,4.951-47.721,6.095-98.823,1.18-144.143-14.6-3.431-1.195-23.396-11.808-17.729-.265,1.493,3.041,19.785,10.462,23.982,12.012,41.172,15.2,102.801,18.283,145.722,9.687,4.035-.808,20.31-4.706,22.512-6.972.543-.559,1.417-2.536,1.253-3.162-1.015-1.806-2.718-1.656-4.459-1.651ZM176.782,332.197c-20.803,4.281-24.225,43.498-1.138,46.683,34.869,4.81,34.069-53.461,1.138-46.683ZM81.795,332.213c-20.733,3.583-24.874,41.587-2.794,46.314,34.287,7.34,36.097-52.07,2.794-46.314ZM576.547,774.96c-37.417,3.125-75.315-.152-111.257-10.723-3.89-1.144-17.04-6.975-19.584-6.178-6.729,2.108,3.636,8.514,5.993,9.769,35.278,18.791,99.829,20.518,138.543,13.827,4.794-.828,27.633-5.326,29.326-8.673.647-1.279.553-2.643.491-4.007-14.59,1.202-28.91,4.766-43.512,5.985ZM515.853,670.674c31.957,6.563,70.811,6.119,102.42-1.989,3.134-.804,25.51-6.39,21.782-11.706-1.344-1.917-23.632,3.996-27.812,4.677-38.415,6.253-73.607,5.191-111.402-3.969-3.15-.764-24.431-9.49-17.843.849,2.931,4.6,26.688,10.873,32.855,12.14Z" fill="#3756f6"/></g></svg>