<?xml version="1.0" encoding="UTF-8"?><svg id="Capa_2" xmlns="http://www.w3.org/2000/svg" viewBox="0 0 1135.597 894.368"><g id="Capa_2-2"><path d="M917.037,100.153c-.907,1.946-.997,4.834.384,6.58.696.829,1.592,1.249,2.651,1.412,3.699.572,18.308-4.447,23.432-5.52,16.007-3.353,40.868-4.979,53.485-15.516,16.47-13.756,5.295-35.643-15.688-33.706-17.625,1.627-37.69,17.965-49.814,30.204-2.348,2.37-13.525,14.562-14.449,16.544ZM947.503,83.625c8.392-6.77,33.368-25.484,43.531-16.513,6.86,6.055-2.262,12.627-7.827,15.217-13.425,6.246-30.529,6.525-44.685,10.804l8.981-9.508ZM166.978,140.173c14.779,1.255,45.539,1.513,60.094.021,2.709-.277,4.586-.325,5.706-3.346,1.81-4.881-7.75-10.488-11.373-13.103-16.052-11.584-41.784-25.543-62.151-22.369-7.527,1.173-16.429,7.285-17.677,15.32-2.339,15.056,12.603,22.389,25.401,23.476ZM157.774,113.896c12.743-5.078,41.028,5.795,50.74,15.24h-41.5c-.96,0-7.941-2.161-9.197-2.803-5.896-3.012-6.007-10.061-.043-12.438ZM255.934,92.21c12.417,4.027,7.894-10.899,6.09-18.083-4.774-19.015-23.37-58.622-47.765-54.761-6.993,1.107-12.256,6.864-13.338,13.758-3.726,23.745,40.077,45.984,55.012,59.086ZM221.548,31.612c12.24,3.308,26.873,31.43,28.956,43.524-9.823-8.676-36.261-24-37.812-37.769-.71-6.303,3.458-7.214,8.856-5.755ZM890.015,76.133c9.946-6.998,37.044-37.53,41.259-48.736,5.539-14.726-.444-30.009-18.025-27.019-17.028,2.896-27.229,30.892-30.27,45.724-1.383,6.745-7.769,40.448,7.035,30.031ZM917.195,11.43c1.119-.091,2.19.277,3.076.947,1.483,2.402,1.494,5.433,1.164,8.167-1.027,8.509-19.553,29.871-26.418,35.595-1.125.938-1.621,2.429-3.502,1.988,2.465-11.936,10.88-45.501,25.68-46.697ZM1083.541,344.61c-48.877-53.54-115.653-92.658-178.57-127.43-24.671-62.42-72.796-130.885-148.828-123.915-25.965,2.38-56.966,21.052-44.633,50.865-39.49.431-79.041-.537-118.537-.035-34.804.443-70.12,2.221-104.918,3.083-14.232.352-28.384-.114-42.536.954,14.349-36.264-30.13-50.635-58.495-48.985-59.133,3.439-107.352,55.252-131.562,105.438-109.987,47.256-342.471,167.769-221.466,314.568,35.693,43.301,91.388,82.59,137.795,114.204,60.777,41.403,124.073,79.04,188.63,114.261-15.408,35.747-29.778,73.431-38.422,111.504-1.28,5.637-7.716,26.539-1.492,29.51,6.003,2.865,8.502-.896,10.288-5.715,4.324-11.669,6.589-27.28,10.22-39.78,13.546-46.63,31.417-92.403,55.326-134.674,20.169-35.658,47.666-67.644,60.312-107.189,1.914-1.223,39.706,1.364,45.352,1.869,12.442,1.112,26.842,4.672,38.996,5.061,4.072.13,8.305-1.964,4.538-5.599-1.537-1.484-17.592-5.2-21.014-5.981-41.245-9.41-81.038-7.922-122.552-10.448-12.523-.762-33.509-5.079-44.182-11.788-1.028-.646-1.746.057-1.28-2.247,44.417-7.463,88.616-17.4,133.512-21.997,48.48-4.964,94.671-3.579,142.847,3.135,39.632,5.523,99.096,29.142,110.991-27.297,7.137-33.863-11.257-77.475-38.431-98.264-78.464-60.025-189.126,2.771-270.15,27.683-47.951,14.743-98.816,24.923-148.433,32.567-39.942,6.153-93.998,14.685-133.706,10.039-100.988-11.817-84.092-138.255-3.873-166.618,44.428-15.708,84.552,6.111,111.642,40.849,3.226,4.136,8.845,15.31,13.196,15.869,2.832.363,6.295-.586,7.21-3.692,2.622-8.905-16.071-27.852-20.802-35.266,42.526-11.607,85.269-24.084,125.673-41.841,5.576-2.45,29.221-15.54,32.03-15.993,2.535-.408,17.847,3.545,22.806,3.81,53.207,2.849,86.065-33.061,97.177-81.804,1.211-5.314,1.262-13.168,2.518-17.482,2.054-7.054,20.47-8.106,23.284-1.693,1.584,9.635,1.938,19.453,3.978,29.022,8.126,38.118,38.188,68.253,77.993,71.007,63.619,4.401,101.241-38.836,108.532-98.55.239-1.958-.817-9.254,1.495-9.449,8.488,3.521,17.621,7.226,24.525,13.447,9.18,8.273,4.905,11.248,6.118,21.882,5.007,43.904,33.149,78.655,76.854,88.146,14.586,42.827,22.244,87.984,27.013,132.988,2.583,24.377,4.746,50.54,5.994,75.006.668,13.103,2.693,34.819,1.062,47.042-.147,1.099-.149,2.151-.998,3.002l-33.887,33.114c-4.142,6.657-2.991,13.867,6.12,12.146,32.925-29.527,65.201-61.384,94.227-94.8,11.385-13.106,22.86-26.985,32.707-41.293,4.362-6.337,14.514-19.736,13.711-27.116-1.061-9.753-23.809-38.384-30.957-47.081-31.815-38.709-70.408-70.966-106.428-105.572-37.875-6.522-64.103-33.94-70.268-71.732-2.81-17.223,2.245-24.348-12.809-37.191-14.317-12.215-29.829-13.995-45.827-21.173-24.796-11.125-15.769-31.87,7.873-33.841,19.448-1.621,41.052,9.28,55.957,21.011,3.831,3.016,15.371,15.452,17.543,16.45,6.476,2.976,9.505-2.447,7.433-8.436-.65-1.878-9.428-11.637-11.437-13.553-21.969-20.954-60.525-37.149-89.704-22.68l-9.303,7.187c1.021-17.573,21.356-24.89,36.456-26.034,70.643-5.351,113.491,63.414,135.479,120.6,67.385,36.762,140.446,79.199,190.032,138.968,49.688,59.892,47.18,108.075,10.2,174.143-36.195,64.665-90.263,121.666-140.172,175.828-2.689,2.951-2.207,7.204-1.873,10.883,1.14,12.547,5.569,27.557,7.583,40.409,5.287,33.732,9.745,67.745,13.28,101.72.624,5.999-1.869,20.371,6.603,21.462,3.432.442,6.348-.963,7.649-4.232,1.829-4.593-.657-26.676-1.246-33.236-2.023-22.558-6.289-44.912-7.985-67.504,14.762,6.61,30.328,14.449,43.305,24.185,7.298,5.476,22.925,17.769,20.215,27.842-3.299,12.262-29.713,28.642-40.004,35.991-4.07,7.577,1.385,11.114,8.735,8.752,12.709-4.084,40.879-27.789,44.056-40.954,5.718-23.693-25.08-43.757-42.646-53.987-5.312-3.094-17.229-7.28-21.042-10.745-.76-.691-1.047-1.615-.626-2.069,15.968-8.671,37.946-21.954,48.996-36.516,19.884-26.203-12.714-45.134-29.817-59.99,33.397-39.534,67.316-79.391,93.625-124.201,48.1-81.924,45.913-138.966-18.782-209.834ZM441.515,600.137c1.005.96-3.387,10.457-4.597,12.078-1.368.228-17.813-7.985-20.592-9.39-1.174-.593-3.748-1.271-3.811-2.688h29ZM634.51,539.131l-31.993-4.006c3.031-5.208,11.852-26.224,16.977-27.609,3.024-.817,5.486,4.141,6.734,6.408,1.595,2.897,9.445,24.118,8.283,25.207ZM649.519,419.142c1.279-1.239,28.325,6.959,30.931,10.593.399,1.696-13.736,23.539-16.641,24.292-4.974,1.289-8.606-13.161-9.792-16.894-.702-2.207-5.164-17.346-4.498-17.991ZM521.52,440.15l31.99-10.008c1.2,1.143-6.851,29.379-9.25,31.724-3.918,3.831-10.099-3.438-12.718-6.257-1.879-2.022-11.271-13.693-10.022-15.459ZM321.514,496.147l33.996-6.005c1.6,1.599-7.745,27.367-10.101,30.384-1.64,2.099-3.509,2.197-5.878,1.095-3.316-1.541-19.737-23.435-18.016-25.475ZM307.374,499.283c5.674,10.658,18.579,33.731,31.082,36.409,22.015,4.715,27.798-34.811,33.048-49.066,46.015-10.156,90.952-24.44,134.95-41.07l1.59.476c7.92,10.353,23.759,36.396,39.473,29.599,9.926-4.293,14.328-22.452,16.926-32.066,1.161-4.298,2.048-14.492,3.589-17.411,1.228-2.324,5.993-2.841,8.47-3.53,13.071-3.639,37.263-7.437,50.553-6.518,2.555.177,5.053.696,7.469,1.522,4.83,13.722,6.879,28.904,14.474,41.526,15.037,24.994,35.904-7.397,42.564-21.978,2.432-1.677,13.936,10.119,15.979,12.435,17.517,19.862,30.114,57.937,19.167,83.218-12.396,28.627-54.354,10.364-77.246,8.862-3.762-12.983-11.638-47.065-28.436-47.643-16.654-.573-26.174,28.506-33.18,40.129-55.022-4.118-109.412,2.149-163.515,11.275-52.987,8.938-157.435,37.086-206.089,19.459-3.925-1.422-19.98-9.65-20.625-13.417,7.843-12.372,12.612-26.253,17.91-39.847l91.849-12.365ZM200.51,512.143c-1.364,5.309-10.679,30.61-14.698,31.832-4.146,1.285-6.91-2.606-9.126-5.509-5.409-7.087-9.185-16.965-12.167-25.323l35.991-1ZM260.501,313.623c-6.403,5.928-12.02,12.723-18.694,18.382-2.366.616-9.502-4.967-12.271-6.389-45.523-23.38-95.174-15.831-129.995,22.047-54.402,59.178-36.698,154.77,50.019,163.928,5.701,14.556,13.606,38.158,28.549,45.451,8.626,4.209,6.644,3.353,13.934,9.065,29.645,23.231,71.422,19.56,106.846,15.905,8.02-.828,17.472-3.572,25.146-3.871,7.733-.302,35.137,12.176,43.836,16.138,21.152,9.635,41.213,21.786,62.641,30.872-19.418,36.612-46.051,69.171-62.898,107.35-.505,1.005-1.536.782-2.485.634-2.292-.357-15.953-8.064-19.288-9.827-74.225-39.224-156.645-91.718-223.224-142.776-71.168-54.577-151.016-122.044-81.519-215.311,51.303-68.849,146.661-114.418,223.347-148.653,4.97-3.521,7.644-13.417,10.896-19.104,24.639-43.088,70.099-87.852,123.712-84.37,14.787.96,42.973,9.437,34.443,29.037-2.609.494-1.541-.42-2.07-1.42-18.713-35.412-72.519-12.57-95.441,7.398-4.164,3.627-19.21,16.861-14.567,22.623,6.903,4.627,8.436-.974,12.051-4.14,15.1-13.227,31.794-25.809,52.008-29.992,11.674-2.416,35.667-3.563,34.078,14.037-1.11,12.298-27.117,16.78-37.01,21.031-11.762,5.054-39.376,20.573-39.11,34.962.102,5.497,3.366,12.319,3.955,18.126,2.443,24.069-7.948,41.865-29.5,52.257-7.578,3.654-20.88,5.365-26.34,8.66-7.129,4.303-23.828,21.259-31.052,27.948ZM261.515,334.127c4.221-4.863,8.785-9.597,13.473-14.017,4.704-4.435,19.897-19.542,23.998-22.002,3.759-2.255,12.765-3.31,17.79-5.21,31.168-11.791,50.077-37.946,44.483-72.005-.995-6.055-7.362-16.706,1.251-18.751-1.117,31.588,10.327,65.284,38.986,81.495-44.185,22.595-92.064,37.83-139.98,50.49ZM416.025,231.147c-7.968,8.871-17.535,5.335-13.589-6.591l40.664-53.335c1.233-1.106,3.607-2.653,5.173-2.913,6.039-1.002,10.726,5.931,7.114,11.206-14.237,15.544-25.482,36.18-39.362,51.632ZM495.995,180.123l-56.97,73.024c-3.87,4.168-8.217,8.744-14.04,4.018-4.68-3.799-1.714-7.661.701-11.356,12.94-19.796,33.484-44.656,48.853-63.148,2.596-3.123,9.598-12.598,12.689-13.308,7.916-1.82,10.993,3.601,8.767,10.77ZM601.659,220.774c13.636-15.289,25.042-37.586,38.885-52.107,1.574-1.651,3.333-3.867,5.704-4.359,4.963-1.029,8.799,2.672,9.019,7.508.242,5.316-36.639,48.909-41.22,57.354-6.385,7.127-16.808.106-12.389-8.397ZM696.983,174.086c-14.411,18.332-27.737,37.572-42.054,55.965-4.249,5.459-14.144,19.941-18.488,23.51-3.151,2.588-7.55,3.382-10.647.295-2.839-2.829-2.706-7.994-.111-11.054,18.016-21.776,33.505-45.75,51.436-67.561,1.899-2.31,7.308-9.614,9.414-10.585,5.854-2.7,12.979,3.182,10.451,9.43ZM908.52,483.132l-5.512-69.971c12.703,5.977,26.732,11.353,37.835,20.147,4.936,3.91,11.3,8.911,9.216,15.871-2.034,6.793-22.857,23.262-29.414,27.589-1.744,1.151-11.127,7.392-12.126,6.364ZM912.524,550.137l-2.004-41.995c1.047-1.167,25.363,12.55,26.919,15.636.322,1.911-21.402,23.786-24.914,26.359ZM942.029,383.123c19.895,20.5,38.941,43.34,52.42,68.52-12.259,22.66-30.118,41.406-46.091,61.35-2.309,1.337-10.037-5.24-12.535-6.664-4.53-2.58-11.817-5.611-15.643-8.357-1.367-.981-3.011-1.786-2.66-3.816,11.234-6.296,23.364-14.93,32.518-23.995,25.264-25.016,13.141-38.862-12.604-54.443-10.329-6.251-21.641-11.288-32.916-15.594l1.06-2.423,25.439-24.595c1.686.003,9.259,8.212,11.012,10.018ZM920.36,362.781c.706,3.632-18.912,21.405-22.835,24.355l-11.001-55.999,33.835,31.644ZM1031.351,723.382c-1.072,6.387-12.292,15.61-17.364,19.727-12.038,9.773-25.592,17.301-38.978,25.004-1.145-.661-1.116-1.485-1.449-2.521-2.128-6.611-6.653-31.23-6.954-38.114-.053-1.219-.399-2.416.092-3.622l32.455-34.649c8.236,5.089,33.909,23.982,32.198,34.175ZM744.215,613.432l-4.717-1.917c-1.118.653-2.919,1.455-3.485,2.615-2.151,4.412,5.019,30.94,6.208,37.799,11.304,65.212,14.048,124.801,6.28,190.695-1.473,12.496-6.662,31.758-6.612,43.185.042,9.705,9.918,11.959,13.367,2.571,3.459-9.415,5.721-29.27,7.129-39.871,8.85-66.611,6.751-139.275-9.164-204.581-2.5-10.26-5.396-20.578-9.008-30.496ZM694.068,860.093c-81.76,15.2-169.149,16.317-250.372-2.637-6.685-1.56-34.535-10.502-38.528-9.172-1.87.623-1.997,2.443-1.501,4.163.981,3.404,18.944,8.662,23.082,9.956,69.606,21.773,165.405,24.519,237.1,12.567,7.283-1.214,26.224-4.124,31.945-7.054,4.647-2.38,3.163-7.708-1.726-7.824ZM431.167,745.284c-3.486,1.164-1.541,4.979,1.094,6.606,7.864,4.854,31.215,9.831,41.062,11.938,58.451,12.51,124.663,12.982,183.398,2.015,5.106-.953,38.886-8.506,40.339-10.658,1.57-2.324.132-6.821-2.985-6.973-76.064,19.351-156.934,20.037-233.574,3.438-5.975-1.294-25.026-7.804-29.334-6.366ZM698.855,94.064c10.496-.35,16.009-8.934,8.615-17.383-17.896-6.011-33.68-11.5-48.852-23.147-6.153-4.723-15.66-16.606-23.342-16.165-7.101.407-12.21,6.813-10.295,13.8,5.332,19.462,54.59,43.539,73.875,42.896ZM470.988,103.155c20.07,2.398,63.891-24.004,73.364-41.677,5.078-9.474-1.742-18.218-12.102-16.119-4.758.964-14.677,12.068-19.263,15.749-7.878,6.324-17.642,12.941-26.8,17.199-4.916,2.286-17.397,5.461-20.617,8.383-6.082,5.518-2.913,15.468,5.419,16.464ZM509.33,656.822c46.655,8.464,117.934,7.21,162.949-8.421,5.346-1.856,15.266-5.344,4.884-9.219-52.371,12.577-108.5,16.824-162.019,9.827-10.087-1.319-24.488-6.238-33.411-6.628-1.002-.044-3.688.261-4.084.891-1.39,2.216.227,4.935,2.136,6.094,4.77,2.896,23.189,6.302,29.545,7.456ZM205.258,389.368c-22.176,3.543-20.12,43.239,2.709,42.802,25.091-.481,22.523-46.833-2.709-42.802ZM130.261,392.37c-22.603,3.614-19.443,44.943,3.755,42.815,23.533-2.159,21.153-46.798-3.755-42.815ZM759.603,438.786c-.652,2.078,10.033,28.661,11.416,34.346,2.902,11.929,5.195,27.286,4.485,39.494-.413,7.1-3.591,15.889-3.916,22.119-.049.937.534,3.92,1.064,4.253,5.57,3.505,8.304-7.357,9.359-10.865,8.151-27.097,1.458-62.446-14.078-85.915-1.314-1.985-6.561-9.071-8.33-3.432ZM772.152,273.268c-2.611.908-4.219,20.011-4.952,24.054-3.247,17.915-11.714,44.975-5.463,62.093,8.531,23.362,40.957,18.616,44.517-6.039,3.064-21.217-12.687-52.877-23.217-71.261-2.442-4.262-4.788-10.968-10.884-8.847ZM795.271,350.4c-3.068,19.641-24.43,15.89-24.788-4.816-.184-10.677,4.763-33.55,7.106-44.873.248-1.198.468-2.382,1.914-2.572,5.452,14.653,18.254,36.347,15.768,52.261Z" fill="#3756f6"/></g></svg>