<?xml version="1.0" encoding="UTF-8"?><svg id="Capa_2" xmlns="http://www.w3.org/2000/svg" viewBox="0 0 1175.248 899.838"><g id="Capa_2-2"><g id="AcvK8s"><path d="M259.333,495.017c28.864-1.462,29.821,50.36-.309,50.222-28.392-.13-28.282-48.774.309-50.222Z" fill="#3756f6"/><path d="M170.24,502.966c30.498-3.953,31.633,47.664,2.68,49.257-27.992,1.54-29.552-45.774-2.68-49.257Z" fill="#3756f6"/><path d="M391.159,130.643c71.881-8.393,143.94-16.048,216.142-21.702,105.413-8.254,221.703-18.626,326.482-7.921,17.905,1.829,49.739,3.467,63.348,14.813,10.241,8.538,23.879,36.015,27.122,49.055,4.884,19.639-18.464,30.488-29.141,11.338-5.537-9.932-12.758-31.262-23.692-35.672-12.428-5.012-50.464-6.426-65.295-6.93-9.843-.334-19.76.377-29.608-.019l-6.427,31.157c.406,1.586,12.266,3.91,14.932,4.806,43.388,14.582,76.361,43.455,99.319,82.728,30.576,5.478,66.125,11.874,93.421,27.284,35.548,20.069,12.252,49.913-5.545,73.644-7.573,10.098-19.653,20.867-26.147,30.248-.58.838-1.378.978-.973,2.48,24.853,6.441,52.443,13.136,75.21,25.216,33.199,17.615,37.452,33.768,12.361,62.86-16.976,19.683-39.212,37.233-59.852,52.918,26.008,10.268,54.703,19.356,77.072,36.688,33.032,25.593,11.959,45.734-11.778,66.223-16.07,13.871-34.012,25.554-51.458,37.587,20.218,8.893,40.286,18.779,58.261,31.764,28.698,20.732,43.488,36.82,14.975,67.196-12.39,13.199-28.163,24.925-42.65,35.732,7.71,18.873,17.756,37.173,23.098,56.983,1.422,5.273,4.831,13.5.751,18.093-3.408,3.836-11.111,3.407-13.756-1.13-9.446-31.878-23.618-62.237-41.261-90.327-11.499-18.308-29.234-34.321-31.072-55.993-3.444-40.606-3.679-81.898-6.945-122.664-5.959-74.385-17.506-148.578-35.292-220.958-20.748-84.43-50.563-181.929-147.283-203.065l-1.317.178c-11.782,30.918-34.876,55.188-65.902,67.178-36.161,13.974-92.206,12.289-126.083-7.514-3.032-1.772-14.568-11.384-16.228-11.094-14.976,10.722-25.617,26.362-33.18,42.974-2.83,6.216-4.244,20.937-14.726,16.423-9.464-4.076-1.982-12.671-3.619-18.078-.391-1.291-6.209-8.774-7.549-10.328-9.634-11.172-23.333-19.384-37.265-24.077-2.652-.041-4.01,4.141-5.749,5.737-4.429,4.065-9.735,8.597-14.616,12.098-22.368,16.045-52.087,20.673-79.183,20.745-20.146,24.449-24.371,62.727-13.307,92.084,2.767,7.343,9.582,14.337,5.474,22.768-4.356,8.939-39.421,26.973-49.564,31.565-20.08,9.091-41.422,16.039-62.996,20.608-1.373,1.314,11.009,12.106,12.372,13.837,3.322,4.216,7.175,11.502,1.753,15.886-8.921,7.215-16.304-7.137-22.031-12.428-64.945-60.006-194.832-32.795-214.4,60.677-35.529,169.712,221.892,105.311,308.391,84.79,69.474-16.482,139.559-33.846,207.526-55.65,44.589-14.304,118.118-38.558,146.633-76.967,9.361-12.608,2.789-8.577-6.383-16.319-4.592-3.877-9.047-10.979-3.019-15.838,7.73-6.232,15.547,4.16,21.99,7.75,6.7,3.733,17.027,7.073,24.661,7.989,6.788.815,19.877-2.086,19.136,9.394-1.064,16.483-29.548,3.545-34.594,6.039-1.352.668-5.799,9.133-7.499,11.321-24.286,31.248-62.293,48.447-97.933,63.337-5.236,15.579-8.74,32.057-16.738,46.583-20.019,36.36-46.974,3.148-58.392-19.83l-1.896-.922c-41.468,12.374-83.125,24.077-125.254,34.076-5.405,14.247-9.695,31.321-18.374,43.957-16.783,24.435-34.657,9.739-47.717-8.507-2.355-3.291-8.904-15.809-11.609-16.167-39.635,9.267-79.326,18.509-119.794,23.644-3.192.405-17.776.854-18.696,2.082-3.374,16.703-11.258,31.733-19.272,46.515,13.083,5.089,26.096,9.769,39.757,13.187,76.777,19.209,189.388,11.524,268.312,1.537,81.785-10.349,172.979-30.366,239.005-81.549,6.004-1.941,12.326,1.161,12.003,7.945-.311,6.523-13.231,15.324-18.56,19.13-29.511,21.08-68.741,35.715-103.436,45.961-38.691,11.426-78.384,18.667-118.265,24.703-10.172,26.883-23.722,52.505-37.659,77.603-14.812,26.675-33.26,61.749-50.216,86.319-2.346,3.399-3.031,5.17-7.847,5.13-5.496-.046-7.887-4.246-7.333-9.401.631-5.874,12.074-25.481,15.586-31.93,22.518-41.351,49.14-80.609,68.016-123.958l-1.045-1.986c-6.442,1.324-13.27,2.3-19.808,2.931-78.343,7.557-183.288,13.889-258.489-9.625-15.968-4.993-26.45-11.311-43.166-14.218-27.191-4.73-47.206-39.642-56.485-63.23-19.492-5.538-39.429-12.597-54.455-26.675-39.159-36.688-32.685-105.308-5.827-147.361,24.078-37.701,63.956-55.819,107.628-60.342l3.651-9.443c-4.478-2.016-5.155-9.034-1.005-11.88,2.495-1.711,15.476-2.705,19.95-3.796,54.455-13.285,64.88-63.404,104.755-94.111,8.126-6.257,29.758-16.33,33.582-23.803,4.32-8.441.873-16.146-6.624-21.133-22.665-15.079-63.803,12.118-79.519,28.983-3.764,4.039-5.886,11.127-9.877,15.847-9.456,11.183-22.235,14.551-36.499,11.478-6.387,23.171-29.606,39.989-53.504,30.59-3.474,17.686-15.153,37.901-31.991,45.688-6.928,3.204-19.01,5.567-18.545-5.594.288-6.927,5.776-6.368,10.003-8.884,27.308-16.254,33.378-58.66,18.939-85.309-3.119-5.757-15.031-14.954-8.832-20.836,7.385-7.007,19.08,8.76,22.307,14.286,6.119,10.48,8.681,22.478,10.083,34.439.828,7.063-1.855,9.978,7.861,11.922,15.196,3.041,26.213-13.581,29.09-26.43,5.596-24.992-2.738-56.412-26.046-69.612-5.279-2.99-23.649-6.908-14.58-16.032,6.719-6.76,25.909,4.747,31.848,9.647,13.925,11.491,24.737,32.924,26.233,50.939.84,10.124-4.602,22.363,11.172,19.048,23.222-4.88,20.698-52.865,15.833-69.798-22.654-78.853-106.923-39.654-144.753,3.218-35.646,40.397-34.359,73.154-46.765,121.43-6.18,24.046-21.293,49.514-30.844,73.042-33.547,82.643-63.42,199.064-28.692,284.88,31.447,77.709,116.096,117.557,188.478,148.902,10.341,4.478,26.224,8.996,35.284,14.185,7.933,4.543,5.872,14.986-2.259,16.005-5.772.723-36.432-12.248-43.907-15.35-60.439-25.08-133.274-62.745-172.017-116.883-73.993-103.394-28.26-257.727,17.47-364.098,4.966-11.552,11.739-22.602,16.027-34.432,7.729-21.321,8.713-45.81,15.097-68.012,18.573-64.599,72.039-118.734,140.543-126.348,18.374-30.766,50.406-56.241,85.925-63.715,31.778-6.687,73.054-1.222,77.04,37.857ZM248.64,159.377c7.79,1.969,15.663,5.191,22.091,10.077,5.915,4.495,10.297,10.931,15.989,15.659,10.272-14.272,25.059-27.045,42.825-30.399,7.159-1.351,14.194-.647,21.052-1.704,28.059-4.322,31.621-35.142,3.558-43.235-34.77-10.026-77.442,13.363-99.098,39.707-1.217,1.481-7.348,8.609-6.417,9.894ZM737.112,126.954c-1.45.332-2.702,1.145-3.672,2.261l-42.997,51.978c-2.876,10.628,5.149,14.371,12.847,6.917,14.724-14.258,27.149-35.38,41.687-50.324,3.84-6.746-.048-12.622-7.865-10.833ZM772.736,135.844c-2.329.535-11.628,11.788-14.083,14.627-16.219,18.749-31.174,38.7-47.431,57.435-2.718,8.928,5.273,14.211,12.37,7.433,19.635-18.752,35.889-47.601,55.785-66.901,5.375-5.947,1.29-14.416-6.641-12.594ZM455.13,147.726c-1.308.392-2.251,1.801-3.185,2.746-13.525,19.75-34.995,38.361-47.802,58.063-2.083,3.205-4.176,4.895-2.402,8.97,2.072,4.757,8.665,5.655,12.171,1.787,14.348-19.841,33.806-38.27,47.857-58.008,1.041-1.462,3.028-3.976,3.372-5.584,1.227-5.733-4.71-9.561-10.011-7.975ZM622.287,150.825c-5.212-5.211-20.911-3.138-27.336-.807-10.705,3.884-8.477,12.669-10.194,21.467-3.487,17.87-6.834,35.518-15.584,51.689,16.424,6.629,32.745,16.263,42.589,31.19l2.024-.608c7.539-14.042,18.286-26.191,30.368-36.477-8.873-13.115-14.404-28.249-17.303-43.808-1.132-6.076-.449-18.531-4.563-22.645ZM489.787,157.582c-1.616.334-3.091,1.603-4.225,2.762l-58.292,70.322c-3.141,4.324-1.472,9.983,3.985,10.793,5.417.804,6.504-1.429,9.833-4.884,19.571-20.31,36.374-46.985,55.877-67.788,4.087-5.273-.523-12.579-7.179-11.206ZM305.034,234.089c.528,5.692-.385,12.029,0,17.809l1.979,1c15.964-14.17,35.494-21.571,56.411-24.76-5.835-11.077-9.644-22.376-11.733-34.769-.671-3.978-.492-13.121-1.306-15.514-.448-1.316-4.361-3.184-5.817-5.104-2.099-2.767.961-3.955-5.362-3.444-18.268,1.475-33.701,15.365-43.343,29.944-.812,2.151,4.74,14.819,5.72,18.501,1.18,4.435,3.047,11.985,3.45,16.337ZM438.604,275.152l-32.646-7.921c-2.612,21.804-24.772,28.343-39.909,39.744-31.005,23.351-43.965,60.576-76.322,81.98-12.886,8.524-27.627,14.47-42.892,16.962l-2.148,7.739c17.249-.486,35.005,2.164,51.406,7.464,8.665,2.8,16.593,7.281,25.15,10.297,39.451-9.645,81.055-21.295,113.117-46.929-11.98-25.594-14.509-53.274-7.148-80.661,2.695-10.026,8.009-18.953,11.394-28.675ZM1076.402,300.234c-4.642-5.107-20.942-11.665-27.828-14.22-17.15-6.365-35.904-10.704-53.934-13.828,14.496,33.086,24.978,67.816,33.648,102.888,2.304.638,1.662-.601,2.247-1.262,14.818-16.737,30.36-32.574,41.689-52.239,3.532-6.132,9.921-15.018,4.177-21.338ZM1055.982,516.553c.716.836,3.93-1.988,4.82-2.591,7.356-4.982,15.497-11.503,22.358-17.217,11.206-9.332,41.425-36.196,46.247-48.727,3.667-9.529-5.329-13.837-12.168-17.953-23.833-14.344-55.255-21.367-82.034-28.272l20.776,114.759ZM1068.844,656.056c1.401,1.439,21.669-12.716,24.454-14.617,15.218-10.386,34.745-24.495,47.283-37.804,10.068-10.686,12.147-14.598-.033-24.725-21.185-17.614-54.605-28.381-80.608-36.626l8.904,113.771ZM676.048,555.149l-38.562,13.409c2.695,5.698,15.217,25.971,22.036,24.05,4.397-1.238,15.11-31.589,16.526-37.459ZM473.226,613.524l-35.895,8.121-1.617,2.154c3.134,4.503,15.33,24.684,20.984,23.222,5.404-1.397,15.287-27.35,16.528-33.497ZM259.525,653.097c-20.106,2.521-40.403-1.183-60.365-1.478,4.369,11.971,24.821,42.138,38.107,42.138,4.906,0,9.228-8.186,11.542-12.297,1.926-3.422,12.482-26.61,10.716-28.363ZM1106.483,786.617c1.479,1.039,7.214-3.397,8.772-4.494,9.068-6.387,36.294-30.288,40.84-39.293,1.068-2.116,1.94-4.28,1.373-6.625-1.948-8.057-27.58-26.219-35.286-31.086-16.128-10.186-33.753-18.099-51.354-25.313l3.624,57.212c10.312,16.76,23.497,31.743,32.031,49.598Z" fill="#3756f6"/><path d="M763.904.39c23.05-2.377,47.222,6.348,65.418,20.078,9.875,7.451,34.179,31.661,35.52,43.714,1.006,9.042-8.68,15.876-17.373,12.342-3.969-1.614-11.506-12.896-15.067-16.593-26.68-27.694-58.297-40.475-94.367-21.099-7.989,4.291-14.697,13.325-24.323,6.223-6.939-5.12-4.549-13.823-.039-19.702,9.323-12.154,35.194-23.411,50.231-24.962Z" fill="#3756f6"/><path d="M533.935,377.691c-12.617-12.445-11.251-38.307,3.103-49.123l14.333-4.445c-16.345-19.081-42.724-24.575-60.839-4.464-3.571,3.965-6.348,12.968-13.762,7.848-8.904-6.148,7.427-24.141,13.344-28.053,41.278-27.293,95.71,16.685,85.761,62.016-4.363,19.88-25.736,32.205-41.94,16.223Z" fill="#3756f6"/><path d="M537.364,21.143c17.463-.63,34.838,5.648,48.57,16.143,7.678,5.868,21.407,18.946,11.012,28.65-8.828,8.242-19.296-5.168-26.84-9.854-29.243-18.164-58.406-8.744-79.574,16.23-4.868,5.743-9.176,17.267-17.776,16.904-10.503-.444-10.236-10.617-7.175-18.108,10.787-26.395,43.25-48.936,71.782-49.965Z" fill="#3756f6"/><path d="M557.048,845.206c2.599-.394,17.842,6.019,22.049,7.245,46.978,13.692,96.21,17.522,144.63,9.091,7.885-1.373,23.579-6.813,30.016-6.708,5.563.091,8.146,4.539,5.305,9.387-2.075,3.541-15.971,7.039-20.449,8.234-50.786,13.556-113.672,10.419-162.985-7.616-3.676-1.344-20.745-8.155-22.315-10.327-2.47-3.416-.598-8.647,3.75-9.306Z" fill="#3756f6"/><path d="M804.369,732.438c6.444-1.981,9.534,2.389,10.198,8.216.912,8.006-.377,24.992-.998,33.629-1.803,25.083-6.544,52.244-12.344,76.701-2.662,11.227-7.57,33.422-12.331,43.075-4.642,9.412-17.114,7.246-15.768-5.884,1.367-13.329,10.165-36.015,13.434-50.867,4.005-18.195,7.641-37.761,10.059-56.23,1.651-12.61,1.363-33.257,4.322-44.158.456-1.678,1.678-3.943,3.429-4.481Z" fill="#3756f6"/><path d="M595.18,782.453c-1.829-1.928-2.004-7.8.726-9.151,3.593-1.778,28.208,5.116,34.428,6.144,35.721,5.902,72.267,4.144,107.267-4.947,7.951-2.065,22.507-8.787,29.08-9.534,6.259-.711,9.546,2.779,6.806,8.82-2.014,4.44-23.947,11.5-29.4,13.135-41.228,12.365-85.696,14.712-127.395,3.2-3.224-.89-20.174-6.257-21.512-7.668Z" fill="#3756f6"/><path d="M765.885,280.396c8.175-.563,22.181,1.117,18.556,12.609-2.25,7.131-9.72,3.676-13.793,4.009-24.804,2.027-51.36,20.277-69.875,35.999-4.813,4.087-18.195,18.651-22.169,20.372-7.516,3.254-13.924-1.586-12.439-9.438.635-3.357,17.99-19.528,21.747-22.806,20.065-17.508,50.708-38.867,77.973-40.744Z" fill="#3756f6"/><path d="M743.133,336.786c11.95-1.062,23.54-.41,35.04,2.953,7.063,2.066,18.091,5.575,13.879,15.302-3.392,7.834-11.716,2.102-17.236.917-32.683-7.017-62.108,3.755-89.569,20.888-9.493,1.918-12.914-6.825-6.769-13.692,10.572-11.813,48.814-24.96,64.655-26.368Z" fill="#3756f6"/></g></g></svg>