<?xml version="1.0" encoding="UTF-8"?><svg id="Capa_2" xmlns="http://www.w3.org/2000/svg" viewBox="0 0 1163.189 912.034"><g id="Capa_2-2"><path d="M670.372,600.843c-3.332-.828-4.186,12.029-4.476,14.505-9.581,81.803-14.512,162.282-29.324,243.676-1.096,6.022-10.388,45.152-8.68,46.818,1.363.059,2.729.156,4.007-.492,2.389-1.211,6.878-18.32,7.91-22.089,18.185-66.426,26.71-150.894,31.068-219.932.987-15.627,3.419-40.211,2.049-55.028-.243-2.627-.451-5.554-2.553-7.457ZM185.427,484.88c10.815-.465,22.077-1.21,32.951-2.049,14.288-1.103,28.645-3.267,42.857-5.067,10.216,16.592,38.98,63.324,59.071,32.995,8.077-12.194,12.871-28.495,17.775-42.225l2.03-1.97c44.778-8.078,89.634-16.361,133.47-28.532,2.214-.05,10.859,12.663,13.279,15.334,9.069,10.01,26.7,28.987,41.375,20.322,12.811-7.564,19.513-45.466,24.087-58.913,41.167-15.9,87.115-33.916,112.76-71.728,11.356.517,22.52,3.065,33.878.366,8.584-2.04,9.679-13.249,1.355-14.52-4.319-.659-10.603,1.164-15.922.931-9.265-.404-22.821-3.733-31.182-7.81-5.276-2.573-14.122-11.682-19.787-5.144-4.334,5.002.613,10.264,4.55,13.38,2.365,1.872,12.114,5.922,11.811,7.925-.544,3.593-14.395,16.285-17.886,19.175-60.596,50.164-207.582,79.663-285.827,93.173-74.81,12.917-181.719,29.805-255.375,14.004-122.542-26.289-80.243-165.186,14.75-192.629,51.974-15.015,101.292,3.327,133.854,45.025,4.24,5.43,12.005,23.737,20.553,16.377,7.183-6.184-6.308-22.875-10.548-28.382-3.213-4.174-7.838-8.141-10.92-12.081-.841-1.075-2.246-1.219-.518-2.518,50.091-7.762,100.371-18.232,146.579-39.453,55.875,24.12,122.316,5.541,140.704-56.265,3.121-10.491,4.035-21.122,6.23-31.77,2.527-7.015,16.907-8.394,20.979-2.969,4.748,16.5,7.401,31.821,16.007,46.993,36.9,65.051,143.087,61.662,185.35,4.312,14.019-19.024,19.027-38.717,22.161-61.839.735-5.427-.804-19.182,4.949-21.051,24.793-.192,49.81-1.251,74.6-.482,2.364.073,4.55.978,6.917,1.082,11.778.519,21.693-3.344,29.954,7.047,5.208,6.55,9.063,20.84,13.924,25.575,8.535,8.313,24.152-.538,23.607-12.024-.516-10.871-14.08-37.41-23.032-44.051-13.896-10.31-59.001-8.957-77.453-9.547-63.912-2.044-126.041-2.405-189.953,2.964-33.678,2.829-67.262,7.682-101.016,9.984-65.362,4.458-130.624,4.54-195.913,10.087-7.603,1.699-10.182,7.085-10.57,14.451-.634,12.015,2.85,33.404,5.484,45.482,5.399,24.754,13.772,41.616,31.422,59.577.792.806,1.483.805,1.084,2.399-31.291,13.307-64.383,22.286-97.811,28.7-9.956,1.91-45.7,9.114-53.232,6.857-4.396-1.317-15.989-9.952-22.281-12.717-60.574-26.619-131.886-5.934-170.489,46.859-46.778,63.974-30.818,143.958,49.586,165.542,5.434,18.056,18.06,47.74,34.909,57.593,29.312,17.141,58.449,27.749,92.135,33.865,64.654,11.739,143.116,11.953,208.675,7.304,13.838-.981,27.645-3.327,41.515-3.994-.413,19.613-5.018,38.936-9.568,57.941-53.592,50.535-105.163,105.655-145.251,167.749-13.687,21.199-31.197,50.07-39.203,73.796-1.56,4.623-7.208,20.221,3.294,17.372,4.437-1.203,13.695-23.289,16.552-28.526,40.833-74.855,93.441-141.664,155.162-200.328-8.5,31.485-22.127,61.765-34.522,91.968-16.228,39.544-36.668,78.533-45.154,120.846-1.193,5.948-4.851,21.754-2.121,26.494,2.458,4.268,9.743,3.513,11.667-.948,10.885-59.734,39.192-113.649,61.608-169.392,20.496-50.969,39.783-103.4,43.668-158.829,56.541-8.797,115.261-20.267,166.888-45.614,9.845-4.834,45.486-25.235,47.77-35.239,1.332-5.832-1.218-7.674-6.754-5.738-4.858,1.699-19.182,13.064-25.37,16.624-104.973,60.382-284.413,70.956-403.166,59.825-37.587-3.523-79.242-10.403-112.509-28.513,10.638-13.395,18.101-28.718,24.474-44.512,1.921-1.972,20.642-.739,25.071-.929ZM534.883,420.845c-1.173,6.533-9.173,38.3-14.705,39.86-3.046.859-6.966-2.5-9.303-4.354-2.685-2.13-19.944-20.351-19.968-22.013l43.977-13.492ZM282.503,474.978c12.232-2.664,26.904-3.533,39.379-5.133,1.089.955-9.053,24.346-10.467,27.023-1.393,2.636-3.993,8.471-7.188,8.762-4.984.455-24.493-23.486-25.351-28.315-.374-2.102,2.079-2,3.626-2.337ZM690.597,129.052c6.792-1.585,12.423,3.698,9.145,10.146l-53.438,70.561c-7.222,5.758-15.466.015-11.875-8.882l53.038-69.956c.805-1.017,1.884-1.578,3.129-1.868ZM608.031,180.475c13.851-15.645,25.079-35.743,38.888-51.104,1.605-1.786,4.323-4.941,6.706-5.38,6.51-1.198,10.747,6.809,7.137,12.224l-40.46,52.539c-6.589,6.882-16.675.42-12.271-8.279ZM452.59,144.047c7.806-2.375,11.6,4.691,8.375,11.373l-49.04,63.958c-6.134,6.37-16.385.507-12.108-8.116,15.753-19.115,29.634-42.643,46.099-60.894,1.303-1.444,5.235-5.884,6.674-6.322ZM375.813,189.255c6.619-6.708,33.993-48.459,39.78-50.213,6.52-1.976,12.539,2.816,9.514,9.516l-37.223,48.778c-6.127,6.321-16.055-.025-12.071-8.081ZM132.306,509.758c-2.35,3.885-6.867,12.392-11.849,12.071-8.748-.565-25.931-32.124-27.567-40.984l50.992,3.999c1.057,1.028-9.973,22.263-11.577,24.915ZM635.386,65.893c6.705-.005,16.048-18.165,21.453-23.601,35.023-35.223,80.074-20.31,110.561,11.533,4.102,4.285,13.03,19.778,20.515,10.544,6.235-7.692-6.308-23.469-11.518-29.542C757.848,13.208,729.718-1.578,700.683.135c-22.867,1.349-44.183,11.621-58.767,29.233-5.002,6.041-24.668,36.538-6.53,36.525ZM452.282,85.728c2.898-1.824,12.091-16.721,16.092-20.902,17.293-18.077,43.176-28.225,67.495-18.469,12.595,5.052,21.176,14.111,30.271,23.721,19.481,3.52,10.955-14.809,3.717-23.709-13.957-17.161-36.065-26.496-58.176-25.226-26.941,1.548-53.646,20.354-65.966,44.025-2.624,5.042-5.686,10.143-4.773,16.101.838,5.471,6.951,7.223,11.34,4.46ZM607.496,849.873c-5.655.457-16.615,4.419-23.425,5.651-49.272,8.911-110.596,4.561-157.703-12.667-3.686-1.348-16.919-8.436-19.399-6.938-.233.974-.853,1.976-.607,3.025,1.112,4.75,20.949,13.046,25.999,14.921,44.442,16.503,114.83,20.482,160.29,7.239,3.544-1.032,18.54-5.569,19.225-8.789-.12-2.617-2.299-2.609-4.379-2.441ZM628.61,738.011c-3.564-.057-19.171,5.383-24.534,6.517-41.843,8.846-90.948,8.851-132.187-3.191-6.239-1.822-16.028-6.988-21.238-7.814-.902-.143-3.404-.15-3.739.34-1.614,2.363,1.847,5.513,3.646,6.804,16.589,11.913,57.402,18.228,77.788,19.212,25.711,1.242,74.623-2.84,97.552-14.53,3.062-1.561,8.273-7.25,2.712-7.339ZM77.677,336.055c-17.744,1.78-25.777,26.366-13.813,39.307,17.08,18.476,42.466-5.09,32.538-27.539-2.919-6.602-11.354-12.508-18.725-11.768ZM167.695,336.067c-20.163,1.029-27.833,32.619-9.519,42.982,20.007,11.321,38.714-16.938,25.706-34.706-3.568-4.873-9.979-8.593-16.187-8.276ZM588.244,649.696c8.78-1.213,53.865-11.208,57.145-17.854.638-1.292.584-2.623.493-3.998-10.869,1.449-20.963,6.241-31.789,8.701-33.607,7.637-75.781,8.885-109.413,1-5.12-1.2-16.667-6.339-20.499-6.558-6.147-.351-.312,6.769,3.326,8.731,25.143,13.557,72.957,13.816,100.737,9.978ZM1152.653,743.572c-26.289-72.302-92.455-132.779-155.765-173.247l1.51-2.477c20.012-14.713,43.24-32.003,57.304-52.695,19.416-28.568,5.667-42.412-21.139-55.491-20.108-9.811-42.018-15.596-63.674-20.836,18.903-16.853,64.056-52.281,64.082-79.488.026-26.564-48.671-38.346-69.073-43.01-2.879-.658-22.01-3.526-21.992-4.99,19.857-23.732,72.857-82.996,26.338-105.357-23.818-11.448-53.786-11.182-79.692-11.308-6.099-8.344-11.144-17.393-17.275-25.725-3.795-5.158-14.888-20.929-20.912-21.179-6.195-.257-8.504,3.808-7.429,9.521.518,2.752,15.113,19.509,18.172,23.827,70.025,98.872,80.464,250.955,101.088,367.912,1.097,6.22,1.826,18.613,6.333,22.667,66.105,39.127,138.021,99.207,166.107,172.893,43.875,115.108-42.177,183.2-150.717,138.717-27.197-11.146-62.536-36.025-81.547-58.453-.878-1.036-5.133-6.144-4.483-7,7.147-2.31,22.261-11.833,24.571-18.96,4.048-12.489-19.073,2.969-22.591,4.429-27.067,11.236-62.696,10.891-88.652-3.314-1.052-.576-6.918-4.003-7.127-4.365-1.676-2.911,2.668-7.979-4.373-10.135-6.816-2.088-19.356-.161-27.203-.797-32.475-2.629-64.62-24.784-42.629-59.395,2.626-1.293,18.828,2.283,23.459,2.565,11.456.697,40.686.943,50.553-3.53,4.821-2.186,7.474-6.783,2.503-10.526-5.415-4.077-22.74-.035-29.971.054-27.635.34-73.649-1.19-68.285-40.28,3.804-27.722,35.008-30.013,57.251-31.749,13.483-1.052,32.67.877,44.934-1.066,9.836-1.558,9.148-12.838-3.903-13.984-11.734-1.031-30.044-.591-42.031.051-11.628.622-23.356,2.932-34.816,4.827-16.18-12.622-12.818-33.957-.204-47.847,20.503-22.578,71.168-27.067,100-25.98,6.665.251,26.763,6.389,25.501-5.42-.991-9.271-18.258-6.877-24.333-8.748-2.616-.806-5.528-14.609-6.191-17.809-6.675-32.171-4.886-71.37,21.009-95.059,15.935-14.579,54.379-23.469,51.398,8.405-1.094,11.703-7.038,24.143-7.914,37.079-4.88,72.047,48.896,106.617,73.508,163.574,2.047,4.736,7.9,24.743,9.467,26.528,4.017,4.573,8.408-.268,8.984-5.161.279-2.368-1.491-9.246.575-9.375,1.008-.063,15.762,7.555,18.179,8.803,16.965,8.764,34.083,20.278,49.645,31.355,6.024,4.288,19.669,16.898,24.984,19.052,3.899,1.579,6.122-.548,5.705-4.642-.837-8.224-28.621-30.575-36.116-35.983-20.783-14.995-44.4-26.887-67.84-37.161-24.035-50.708-76.426-94.834-72.038-155.936,1.604-22.343,19.172-49.895-3.537-67.488-17.337-13.431-44.932-6.848-60.954,5.997-27.341,21.921-36.663,58.843-33.513,92.47,1.09,11.639,4.186,23.213,6.992,34.499-27.782,2.066-58.202,4.819-82.13,20.381-24.862,16.17-38.498,49.475-16.906,74.174l.03,1.436c-24.526,15.177-29.018,54.056-7.52,74.044,2.688,2.499,6.219,3.657,8.387,6.605-23.155,49.341,14.331,75.86,59.649,80.359,3.842.381,9.435-.769,12.785.215,1.117.328,8.373,7.523,10.796,9.204,23.68,16.435,56.41,19.18,84.231,14.711,48.54,59.597,135.04,108.291,212.926,79.628,67.396-24.802,77.709-98.984,55.519-160.014ZM914.655,245.57c-4.823-12.093-10.777-23.718-15.764-35.726,18.295-.009,57.063.5,71.013,13.477,9.751,9.071-.439,26.724-5.846,36.19-8.074,14.133-19.25,27.78-30.672,39.308-6.479-17.65-11.763-35.777-18.732-53.249ZM959.89,425.843l-18.999-99c19.872,3.297,41.514,7.186,59.959,15.53,8.815,3.988,21.151,9.981,18.347,21.284-4.005,16.144-32.753,42.436-45.837,53.156-1.911,1.566-12.177,10.339-13.47,9.03ZM980.89,559.84l-16-105.996c20.212,2.809,42.091,9.149,60.672,17.818,9.48,4.423,26.68,11.856,24.094,24.453-2.652,12.916-35.2,41.167-46.312,49.682-2.541,1.947-20.738,15.884-22.454,14.043ZM926.39,824.827c1.404,3.015,14.472,13.066,17.497,10.007,2.753-2.784-11.51-14.19-13.711-14.825-3.673-1.061-5.322,1.522-3.786,4.819Z" fill="#3756f6"/></g></svg>